<?xml version="1.0" encoding="utf-8" standalone="no"?>
<!DOCTYPE svg PUBLIC "-//W3C//DTD SVG 1.1//EN"
  "http://www.w3.org/Graphics/SVG/1.1/DTD/svg11.dtd">
<svg xmlns:xlink="http://www.w3.org/1999/xlink" width="509.26997pt" height="226.088593pt" viewBox="0 0 509.26997 226.088593" xmlns="http://www.w3.org/2000/svg" version="1.1">
 <metadata>
  <rdf:RDF xmlns:dc="http://purl.org/dc/elements/1.1/" xmlns:cc="http://creativecommons.org/ns#" xmlns:rdf="http://www.w3.org/1999/02/22-rdf-syntax-ns#">
   <cc:Work>
    <dc:type rdf:resource="http://purl.org/dc/dcmitype/StillImage"/>
    <dc:date>2025-07-22T15:10:46.287613</dc:date>
    <dc:format>image/svg+xml</dc:format>
    <dc:creator>
     <cc:Agent>
      <dc:title>Matplotlib v3.10.3, https://matplotlib.org/</dc:title>
     </cc:Agent>
    </dc:creator>
   </cc:Work>
  </rdf:RDF>
 </metadata>
 <defs>
  <style type="text/css">*{stroke-linejoin: round; stroke-linecap: butt}</style>
 </defs>
 <g id="figure_1">
  <g id="patch_1">
   <path d="M 0 226.088593 
L 509.26997 226.088593 
L 509.26997 0 
L 0 0 
z
" style="fill: #ffffff"/>
  </g>
  <g id="axes_1">
   <g id="patch_2">
    <path d="M 38.076591 192.336874 
L 243.920532 192.336874 
L 243.920532 12.592336 
L 38.076591 12.592336 
z
" style="fill: #ffffff"/>
   </g>
   <g id="FillBetweenPolyCollection_1">
    <defs>
     <path id="ma8315164a9" d="M 134.854005 -68.550096 
L 134.854005 -68.550096 
L 160.835479 -66.531756 
L 160.835479 -66.531756 
L 160.835479 -66.531756 
L 134.854005 -68.550096 
z
" style="stroke: #ff6347; stroke-opacity: 0.2"/>
    </defs>
    <g clip-path="url(#p3026340121)">
     <use xlink:href="#ma8315164a9" x="0" y="226.088593" style="fill: #ff6347; fill-opacity: 0.2; stroke: #ff6347; stroke-opacity: 0.2"/>
    </g>
   </g>
   <g id="FillBetweenPolyCollection_2">
    <defs>
     <path id="m6102492eaf" d="M 120.590414 -168.097851 
L 120.590414 -168.097851 
L 122.954977 -146.7997 
L 125.087342 -134.522206 
L 128.649987 -117.232925 
L 132.974893 -100.749092 
L 136.134931 -92.618443 
L 145.099394 -75.793566 
L 153.586605 -71.5421 
L 153.586605 -71.5421 
L 153.586605 -71.5421 
L 145.099394 -75.793566 
L 136.134931 -92.618443 
L 132.974893 -100.749092 
L 128.649987 -117.232925 
L 125.087342 -134.522206 
L 122.954977 -146.7997 
L 120.590414 -168.097851 
z
" style="stroke: #a9a9a9; stroke-opacity: 0.2"/>
    </defs>
    <g clip-path="url(#p3026340121)">
     <use xlink:href="#m6102492eaf" x="0" y="226.088593" style="fill: #a9a9a9; fill-opacity: 0.2; stroke: #a9a9a9; stroke-opacity: 0.2"/>
    </g>
   </g>
   <g id="FillBetweenPolyCollection_3">
    <path d="M 124.236647 66.708218 
L 124.236647 66.708218 
L 124.308281 68.647011 
L 124.720835 77.134843 
L 124.797683 78.191746 
L 124.797683 78.191746 
L 124.797683 78.191746 
L 124.720835 77.134843 
L 124.308281 68.647011 
L 124.236647 66.708218 
z
" clip-path="url(#p3026340121)" style="fill: #ffd700; fill-opacity: 0.2; stroke: #ffd700; stroke-opacity: 0.2"/>
    <path d="M 135.785979 123.852519 
L 135.785979 123.852519 
L 135.785979 123.852519 
L 135.785979 123.852519 
z
" clip-path="url(#p3026340121)" style="fill: #ffd700; fill-opacity: 0.2; stroke: #ffd700; stroke-opacity: 0.2"/>
   </g>
   <g id="FillBetweenPolyCollection_4">
    <path d="M 135.427241 92.156905 
L 135.427241 92.156905 
L 137.360499 98.648925 
L 137.937795 100.269858 
L 137.937795 100.269858 
L 137.937795 100.269858 
L 137.360499 98.648925 
L 135.427241 92.156905 
z
" clip-path="url(#p3026340121)" style="fill: #008080; fill-opacity: 0.2; stroke: #008080; stroke-opacity: 0.2"/>
    <path d="M 144.694099 113.563993 
L 144.694099 113.563993 
L 147.752827 117.674432 
L 148.341926 118.286061 
L 148.341926 118.286061 
L 148.341926 118.286061 
L 147.752827 117.674432 
L 144.694099 113.563993 
z
" clip-path="url(#p3026340121)" style="fill: #008080; fill-opacity: 0.2; stroke: #008080; stroke-opacity: 0.2"/>
   </g>
   <g id="PathCollection_1">
    <defs>
     <path id="m2cc0a4fe79" d="M 0 2.236068 
C 0.593012 2.236068 1.161816 2.000462 1.581139 1.581139 
C 2.000462 1.161816 2.236068 0.593012 2.236068 0 
C 2.236068 -0.593012 2.000462 -1.161816 1.581139 -1.581139 
C 1.161816 -2.000462 0.593012 -2.236068 0 -2.236068 
C -0.593012 -2.236068 -1.161816 -2.000462 -1.581139 -1.581139 
C -2.000462 -1.161816 -2.236068 -0.593012 -2.236068 0 
C -2.236068 0.593012 -2.000462 1.161816 -1.581139 1.581139 
C -1.161816 2.000462 -0.593012 2.236068 0 2.236068 
z
" style="stroke: #000000"/>
    </defs>
    <g clip-path="url(#p3026340121)">
     <use xlink:href="#m2cc0a4fe79" x="174.96484" y="19.139369" style="stroke: #000000"/>
    </g>
   </g>
   <g id="matplotlib.axis_1">
    <g id="xtick_1">
     <g id="line2d_1">
      <defs>
       <path id="m4e5bc82193" d="M 0 0 
L 0 6 
" style="stroke: #000000; stroke-width: 1.5"/>
      </defs>
      <g>
       <use xlink:href="#m4e5bc82193" x="38.076591" y="192.336874" style="stroke: #000000; stroke-width: 1.5"/>
      </g>
     </g>
     <g id="text_1">
      <!-- 0.10 -->
      <g transform="translate(31.265263 206.847343) scale(0.07 -0.07)">
       <defs>
        <path id="ArialMT-30" d="M 266 2259 
Q 266 3072 433 3567 
Q 600 4063 929 4331 
Q 1259 4600 1759 4600 
Q 2128 4600 2406 4451 
Q 2684 4303 2865 4023 
Q 3047 3744 3150 3342 
Q 3253 2941 3253 2259 
Q 3253 1453 3087 958 
Q 2922 463 2592 192 
Q 2263 -78 1759 -78 
Q 1097 -78 719 397 
Q 266 969 266 2259 
z
M 844 2259 
Q 844 1131 1108 757 
Q 1372 384 1759 384 
Q 2147 384 2411 759 
Q 2675 1134 2675 2259 
Q 2675 3391 2411 3762 
Q 2147 4134 1753 4134 
Q 1366 4134 1134 3806 
Q 844 3388 844 2259 
z
" transform="scale(0.015625)"/>
        <path id="ArialMT-2e" d="M 581 0 
L 581 641 
L 1222 641 
L 1222 0 
L 581 0 
z
" transform="scale(0.015625)"/>
        <path id="ArialMT-31" d="M 2384 0 
L 1822 0 
L 1822 3584 
Q 1619 3391 1289 3197 
Q 959 3003 697 2906 
L 697 3450 
Q 1169 3672 1522 3987 
Q 1875 4303 2022 4600 
L 2384 4600 
L 2384 0 
z
" transform="scale(0.015625)"/>
       </defs>
       <use xlink:href="#ArialMT-30"/>
       <use xlink:href="#ArialMT-2e" transform="translate(55.615234 0)"/>
       <use xlink:href="#ArialMT-31" transform="translate(83.398438 0)"/>
       <use xlink:href="#ArialMT-30" transform="translate(139.013672 0)"/>
      </g>
     </g>
    </g>
    <g id="xtick_2">
     <g id="line2d_2">
      <g>
       <use xlink:href="#m4e5bc82193" x="72.383915" y="192.336874" style="stroke: #000000; stroke-width: 1.5"/>
      </g>
     </g>
     <g id="text_2">
      <!-- 0.15 -->
      <g transform="translate(65.572586 206.847343) scale(0.07 -0.07)">
       <defs>
        <path id="ArialMT-35" d="M 266 1200 
L 856 1250 
Q 922 819 1161 601 
Q 1400 384 1738 384 
Q 2144 384 2425 690 
Q 2706 997 2706 1503 
Q 2706 1984 2436 2262 
Q 2166 2541 1728 2541 
Q 1456 2541 1237 2417 
Q 1019 2294 894 2097 
L 366 2166 
L 809 4519 
L 3088 4519 
L 3088 3981 
L 1259 3981 
L 1013 2750 
Q 1425 3038 1878 3038 
Q 2478 3038 2890 2622 
Q 3303 2206 3303 1553 
Q 3303 931 2941 478 
Q 2500 -78 1738 -78 
Q 1113 -78 717 272 
Q 322 622 266 1200 
z
" transform="scale(0.015625)"/>
       </defs>
       <use xlink:href="#ArialMT-30"/>
       <use xlink:href="#ArialMT-2e" transform="translate(55.615234 0)"/>
       <use xlink:href="#ArialMT-31" transform="translate(83.398438 0)"/>
       <use xlink:href="#ArialMT-35" transform="translate(139.013672 0)"/>
      </g>
     </g>
    </g>
    <g id="xtick_3">
     <g id="line2d_3">
      <g>
       <use xlink:href="#m4e5bc82193" x="106.691238" y="192.336874" style="stroke: #000000; stroke-width: 1.5"/>
      </g>
     </g>
     <g id="text_3">
      <!-- 0.20 -->
      <g transform="translate(99.87991 206.847343) scale(0.07 -0.07)">
       <defs>
        <path id="ArialMT-32" d="M 3222 541 
L 3222 0 
L 194 0 
Q 188 203 259 391 
Q 375 700 629 1000 
Q 884 1300 1366 1694 
Q 2113 2306 2375 2664 
Q 2638 3022 2638 3341 
Q 2638 3675 2398 3904 
Q 2159 4134 1775 4134 
Q 1369 4134 1125 3890 
Q 881 3647 878 3216 
L 300 3275 
Q 359 3922 746 4261 
Q 1134 4600 1788 4600 
Q 2447 4600 2831 4234 
Q 3216 3869 3216 3328 
Q 3216 3053 3103 2787 
Q 2991 2522 2730 2228 
Q 2469 1934 1863 1422 
Q 1356 997 1212 845 
Q 1069 694 975 541 
L 3222 541 
z
" transform="scale(0.015625)"/>
       </defs>
       <use xlink:href="#ArialMT-30"/>
       <use xlink:href="#ArialMT-2e" transform="translate(55.615234 0)"/>
       <use xlink:href="#ArialMT-32" transform="translate(83.398438 0)"/>
       <use xlink:href="#ArialMT-30" transform="translate(139.013672 0)"/>
      </g>
     </g>
    </g>
    <g id="xtick_4">
     <g id="line2d_4">
      <g>
       <use xlink:href="#m4e5bc82193" x="140.998561" y="192.336874" style="stroke: #000000; stroke-width: 1.5"/>
      </g>
     </g>
     <g id="text_4">
      <!-- 0.25 -->
      <g transform="translate(134.187233 206.847343) scale(0.07 -0.07)">
       <use xlink:href="#ArialMT-30"/>
       <use xlink:href="#ArialMT-2e" transform="translate(55.615234 0)"/>
       <use xlink:href="#ArialMT-32" transform="translate(83.398438 0)"/>
       <use xlink:href="#ArialMT-35" transform="translate(139.013672 0)"/>
      </g>
     </g>
    </g>
    <g id="xtick_5">
     <g id="line2d_5">
      <g>
       <use xlink:href="#m4e5bc82193" x="175.305885" y="192.336874" style="stroke: #000000; stroke-width: 1.5"/>
      </g>
     </g>
     <g id="text_5">
      <!-- 0.30 -->
      <g transform="translate(168.494557 206.847343) scale(0.07 -0.07)">
       <defs>
        <path id="ArialMT-33" d="M 269 1209 
L 831 1284 
Q 928 806 1161 595 
Q 1394 384 1728 384 
Q 2125 384 2398 659 
Q 2672 934 2672 1341 
Q 2672 1728 2419 1979 
Q 2166 2231 1775 2231 
Q 1616 2231 1378 2169 
L 1441 2663 
Q 1497 2656 1531 2656 
Q 1891 2656 2178 2843 
Q 2466 3031 2466 3422 
Q 2466 3731 2256 3934 
Q 2047 4138 1716 4138 
Q 1388 4138 1169 3931 
Q 950 3725 888 3313 
L 325 3413 
Q 428 3978 793 4289 
Q 1159 4600 1703 4600 
Q 2078 4600 2393 4439 
Q 2709 4278 2876 4000 
Q 3044 3722 3044 3409 
Q 3044 3113 2884 2869 
Q 2725 2625 2413 2481 
Q 2819 2388 3044 2092 
Q 3269 1797 3269 1353 
Q 3269 753 2831 336 
Q 2394 -81 1725 -81 
Q 1122 -81 723 278 
Q 325 638 269 1209 
z
" transform="scale(0.015625)"/>
       </defs>
       <use xlink:href="#ArialMT-30"/>
       <use xlink:href="#ArialMT-2e" transform="translate(55.615234 0)"/>
       <use xlink:href="#ArialMT-33" transform="translate(83.398438 0)"/>
       <use xlink:href="#ArialMT-30" transform="translate(139.013672 0)"/>
      </g>
     </g>
    </g>
    <g id="xtick_6">
     <g id="line2d_6">
      <g>
       <use xlink:href="#m4e5bc82193" x="209.613208" y="192.336874" style="stroke: #000000; stroke-width: 1.5"/>
      </g>
     </g>
     <g id="text_6">
      <!-- 0.35 -->
      <g transform="translate(202.80188 206.847343) scale(0.07 -0.07)">
       <use xlink:href="#ArialMT-30"/>
       <use xlink:href="#ArialMT-2e" transform="translate(55.615234 0)"/>
       <use xlink:href="#ArialMT-33" transform="translate(83.398438 0)"/>
       <use xlink:href="#ArialMT-35" transform="translate(139.013672 0)"/>
      </g>
     </g>
    </g>
    <g id="xtick_7">
     <g id="line2d_7">
      <g>
       <use xlink:href="#m4e5bc82193" x="243.920532" y="192.336874" style="stroke: #000000; stroke-width: 1.5"/>
      </g>
     </g>
     <g id="text_7">
      <!-- 0.40 -->
      <g transform="translate(237.109204 206.847343) scale(0.07 -0.07)">
       <defs>
        <path id="ArialMT-34" d="M 2069 0 
L 2069 1097 
L 81 1097 
L 81 1613 
L 2172 4581 
L 2631 4581 
L 2631 1613 
L 3250 1613 
L 3250 1097 
L 2631 1097 
L 2631 0 
L 2069 0 
z
M 2069 1613 
L 2069 3678 
L 634 1613 
L 2069 1613 
z
" transform="scale(0.015625)"/>
       </defs>
       <use xlink:href="#ArialMT-30"/>
       <use xlink:href="#ArialMT-2e" transform="translate(55.615234 0)"/>
       <use xlink:href="#ArialMT-34" transform="translate(83.398438 0)"/>
       <use xlink:href="#ArialMT-30" transform="translate(139.013672 0)"/>
      </g>
     </g>
    </g>
    <g id="text_8">
     <!-- Emissions (tons CO$_2$) -->
     <g transform="translate(107.188561 217.348593) scale(0.07 -0.07)">
      <defs>
       <path id="ArialMT-45" d="M 506 0 
L 506 4581 
L 3819 4581 
L 3819 4041 
L 1113 4041 
L 1113 2638 
L 3647 2638 
L 3647 2100 
L 1113 2100 
L 1113 541 
L 3925 541 
L 3925 0 
L 506 0 
z
" transform="scale(0.015625)"/>
       <path id="ArialMT-6d" d="M 422 0 
L 422 3319 
L 925 3319 
L 925 2853 
Q 1081 3097 1340 3245 
Q 1600 3394 1931 3394 
Q 2300 3394 2536 3241 
Q 2772 3088 2869 2813 
Q 3263 3394 3894 3394 
Q 4388 3394 4653 3120 
Q 4919 2847 4919 2278 
L 4919 0 
L 4359 0 
L 4359 2091 
Q 4359 2428 4304 2576 
Q 4250 2725 4106 2815 
Q 3963 2906 3769 2906 
Q 3419 2906 3187 2673 
Q 2956 2441 2956 1928 
L 2956 0 
L 2394 0 
L 2394 2156 
Q 2394 2531 2256 2718 
Q 2119 2906 1806 2906 
Q 1569 2906 1367 2781 
Q 1166 2656 1075 2415 
Q 984 2175 984 1722 
L 984 0 
L 422 0 
z
" transform="scale(0.015625)"/>
       <path id="ArialMT-69" d="M 425 3934 
L 425 4581 
L 988 4581 
L 988 3934 
L 425 3934 
z
M 425 0 
L 425 3319 
L 988 3319 
L 988 0 
L 425 0 
z
" transform="scale(0.015625)"/>
       <path id="ArialMT-73" d="M 197 991 
L 753 1078 
Q 800 744 1014 566 
Q 1228 388 1613 388 
Q 2000 388 2187 545 
Q 2375 703 2375 916 
Q 2375 1106 2209 1216 
Q 2094 1291 1634 1406 
Q 1016 1563 777 1677 
Q 538 1791 414 1992 
Q 291 2194 291 2438 
Q 291 2659 392 2848 
Q 494 3038 669 3163 
Q 800 3259 1026 3326 
Q 1253 3394 1513 3394 
Q 1903 3394 2198 3281 
Q 2494 3169 2634 2976 
Q 2775 2784 2828 2463 
L 2278 2388 
Q 2241 2644 2061 2787 
Q 1881 2931 1553 2931 
Q 1166 2931 1000 2803 
Q 834 2675 834 2503 
Q 834 2394 903 2306 
Q 972 2216 1119 2156 
Q 1203 2125 1616 2013 
Q 2213 1853 2448 1751 
Q 2684 1650 2818 1456 
Q 2953 1263 2953 975 
Q 2953 694 2789 445 
Q 2625 197 2315 61 
Q 2006 -75 1616 -75 
Q 969 -75 630 194 
Q 291 463 197 991 
z
" transform="scale(0.015625)"/>
       <path id="ArialMT-6f" d="M 213 1659 
Q 213 2581 725 3025 
Q 1153 3394 1769 3394 
Q 2453 3394 2887 2945 
Q 3322 2497 3322 1706 
Q 3322 1066 3130 698 
Q 2938 331 2570 128 
Q 2203 -75 1769 -75 
Q 1072 -75 642 372 
Q 213 819 213 1659 
z
M 791 1659 
Q 791 1022 1069 705 
Q 1347 388 1769 388 
Q 2188 388 2466 706 
Q 2744 1025 2744 1678 
Q 2744 2294 2464 2611 
Q 2184 2928 1769 2928 
Q 1347 2928 1069 2612 
Q 791 2297 791 1659 
z
" transform="scale(0.015625)"/>
       <path id="ArialMT-6e" d="M 422 0 
L 422 3319 
L 928 3319 
L 928 2847 
Q 1294 3394 1984 3394 
Q 2284 3394 2536 3286 
Q 2788 3178 2913 3003 
Q 3038 2828 3088 2588 
Q 3119 2431 3119 2041 
L 3119 0 
L 2556 0 
L 2556 2019 
Q 2556 2363 2490 2533 
Q 2425 2703 2258 2804 
Q 2091 2906 1866 2906 
Q 1506 2906 1245 2678 
Q 984 2450 984 1813 
L 984 0 
L 422 0 
z
" transform="scale(0.015625)"/>
       <path id="ArialMT-20" transform="scale(0.015625)"/>
       <path id="ArialMT-28" d="M 1497 -1347 
Q 1031 -759 709 28 
Q 388 816 388 1659 
Q 388 2403 628 3084 
Q 909 3875 1497 4659 
L 1900 4659 
Q 1522 4009 1400 3731 
Q 1209 3300 1100 2831 
Q 966 2247 966 1656 
Q 966 153 1900 -1347 
L 1497 -1347 
z
" transform="scale(0.015625)"/>
       <path id="ArialMT-74" d="M 1650 503 
L 1731 6 
Q 1494 -44 1306 -44 
Q 1000 -44 831 53 
Q 663 150 594 308 
Q 525 466 525 972 
L 525 2881 
L 113 2881 
L 113 3319 
L 525 3319 
L 525 4141 
L 1084 4478 
L 1084 3319 
L 1650 3319 
L 1650 2881 
L 1084 2881 
L 1084 941 
Q 1084 700 1114 631 
Q 1144 563 1211 522 
Q 1278 481 1403 481 
Q 1497 481 1650 503 
z
" transform="scale(0.015625)"/>
       <path id="ArialMT-43" d="M 3763 1606 
L 4369 1453 
Q 4178 706 3683 314 
Q 3188 -78 2472 -78 
Q 1731 -78 1267 223 
Q 803 525 561 1097 
Q 319 1669 319 2325 
Q 319 3041 592 3573 
Q 866 4106 1370 4382 
Q 1875 4659 2481 4659 
Q 3169 4659 3637 4309 
Q 4106 3959 4291 3325 
L 3694 3184 
Q 3534 3684 3231 3912 
Q 2928 4141 2469 4141 
Q 1941 4141 1586 3887 
Q 1231 3634 1087 3207 
Q 944 2781 944 2328 
Q 944 1744 1114 1308 
Q 1284 872 1643 656 
Q 2003 441 2422 441 
Q 2931 441 3284 734 
Q 3638 1028 3763 1606 
z
" transform="scale(0.015625)"/>
       <path id="ArialMT-4f" d="M 309 2231 
Q 309 3372 921 4017 
Q 1534 4663 2503 4663 
Q 3138 4663 3647 4359 
Q 4156 4056 4423 3514 
Q 4691 2972 4691 2284 
Q 4691 1588 4409 1038 
Q 4128 488 3612 205 
Q 3097 -78 2500 -78 
Q 1853 -78 1343 234 
Q 834 547 571 1087 
Q 309 1628 309 2231 
z
M 934 2222 
Q 934 1394 1379 917 
Q 1825 441 2497 441 
Q 3181 441 3623 922 
Q 4066 1403 4066 2288 
Q 4066 2847 3877 3264 
Q 3688 3681 3323 3911 
Q 2959 4141 2506 4141 
Q 1863 4141 1398 3698 
Q 934 3256 934 2222 
z
" transform="scale(0.015625)"/>
       <path id="DejaVuSans-32" d="M 1228 531 
L 3431 531 
L 3431 0 
L 469 0 
L 469 531 
Q 828 903 1448 1529 
Q 2069 2156 2228 2338 
Q 2531 2678 2651 2914 
Q 2772 3150 2772 3378 
Q 2772 3750 2511 3984 
Q 2250 4219 1831 4219 
Q 1534 4219 1204 4116 
Q 875 4013 500 3803 
L 500 4441 
Q 881 4594 1212 4672 
Q 1544 4750 1819 4750 
Q 2544 4750 2975 4387 
Q 3406 4025 3406 3419 
Q 3406 3131 3298 2873 
Q 3191 2616 2906 2266 
Q 2828 2175 2409 1742 
Q 1991 1309 1228 531 
z
" transform="scale(0.015625)"/>
       <path id="ArialMT-29" d="M 791 -1347 
L 388 -1347 
Q 1322 153 1322 1656 
Q 1322 2244 1188 2822 
Q 1081 3291 891 3722 
Q 769 4003 388 4659 
L 791 4659 
Q 1378 3875 1659 3084 
Q 1900 2403 1900 1659 
Q 1900 816 1576 28 
Q 1253 -759 791 -1347 
z
" transform="scale(0.015625)"/>
      </defs>
      <use xlink:href="#ArialMT-45" transform="translate(0 0.140625)"/>
      <use xlink:href="#ArialMT-6d" transform="translate(66.699219 0.140625)"/>
      <use xlink:href="#ArialMT-69" transform="translate(150 0.140625)"/>
      <use xlink:href="#ArialMT-73" transform="translate(172.216797 0.140625)"/>
      <use xlink:href="#ArialMT-73" transform="translate(222.216797 0.140625)"/>
      <use xlink:href="#ArialMT-69" transform="translate(272.216797 0.140625)"/>
      <use xlink:href="#ArialMT-6f" transform="translate(294.433594 0.140625)"/>
      <use xlink:href="#ArialMT-6e" transform="translate(350.048828 0.140625)"/>
      <use xlink:href="#ArialMT-73" transform="translate(405.664062 0.140625)"/>
      <use xlink:href="#ArialMT-20" transform="translate(455.664062 0.140625)"/>
      <use xlink:href="#ArialMT-28" transform="translate(483.447266 0.140625)"/>
      <use xlink:href="#ArialMT-74" transform="translate(516.748047 0.140625)"/>
      <use xlink:href="#ArialMT-6f" transform="translate(544.53125 0.140625)"/>
      <use xlink:href="#ArialMT-6e" transform="translate(600.146484 0.140625)"/>
      <use xlink:href="#ArialMT-73" transform="translate(655.761719 0.140625)"/>
      <use xlink:href="#ArialMT-20" transform="translate(705.761719 0.140625)"/>
      <use xlink:href="#ArialMT-43" transform="translate(733.544922 0.140625)"/>
      <use xlink:href="#ArialMT-4f" transform="translate(805.761719 0.140625)"/>
      <use xlink:href="#DejaVuSans-32" transform="translate(884.501953 -16.265625) scale(0.7)"/>
      <use xlink:href="#ArialMT-29" transform="translate(931.772461 0.140625)"/>
     </g>
    </g>
   </g>
   <g id="matplotlib.axis_2">
    <g id="ytick_1">
     <g id="line2d_8">
      <defs>
       <path id="mee74ccaee2" d="M 0 0 
L -6 0 
" style="stroke: #000000; stroke-width: 1.5"/>
      </defs>
      <g>
       <use xlink:href="#mee74ccaee2" x="38.076591" y="192.336874" style="stroke: #000000; stroke-width: 1.5"/>
      </g>
     </g>
     <g id="text_9">
      <!-- −20 -->
      <g transform="translate(16.702841 194.842108) scale(0.07 -0.07)">
       <defs>
        <path id="ArialMT-2212" d="M 3381 1997 
L 356 1997 
L 356 2522 
L 3381 2522 
L 3381 1997 
z
" transform="scale(0.015625)"/>
       </defs>
       <use xlink:href="#ArialMT-2212"/>
       <use xlink:href="#ArialMT-32" transform="translate(58.398438 0)"/>
       <use xlink:href="#ArialMT-30" transform="translate(114.013672 0)"/>
      </g>
     </g>
    </g>
    <g id="ytick_2">
     <g id="line2d_9">
      <g>
       <use xlink:href="#mee74ccaee2" x="38.076591" y="162.379451" style="stroke: #000000; stroke-width: 1.5"/>
      </g>
     </g>
     <g id="text_10">
      <!-- −10 -->
      <g transform="translate(16.702841 164.884685) scale(0.07 -0.07)">
       <use xlink:href="#ArialMT-2212"/>
       <use xlink:href="#ArialMT-31" transform="translate(58.398438 0)"/>
       <use xlink:href="#ArialMT-30" transform="translate(114.013672 0)"/>
      </g>
     </g>
    </g>
    <g id="ytick_3">
     <g id="line2d_10">
      <g>
       <use xlink:href="#mee74ccaee2" x="38.076591" y="132.422028" style="stroke: #000000; stroke-width: 1.5"/>
      </g>
     </g>
     <g id="text_11">
      <!-- 0 -->
      <g transform="translate(24.683935 134.927262) scale(0.07 -0.07)">
       <use xlink:href="#ArialMT-30"/>
      </g>
     </g>
    </g>
    <g id="ytick_4">
     <g id="line2d_11">
      <g>
       <use xlink:href="#mee74ccaee2" x="38.076591" y="102.464605" style="stroke: #000000; stroke-width: 1.5"/>
      </g>
     </g>
     <g id="text_12">
      <!-- 10 -->
      <g transform="translate(20.791279 104.969839) scale(0.07 -0.07)">
       <use xlink:href="#ArialMT-31"/>
       <use xlink:href="#ArialMT-30" transform="translate(55.615234 0)"/>
      </g>
     </g>
    </g>
    <g id="ytick_5">
     <g id="line2d_12">
      <g>
       <use xlink:href="#mee74ccaee2" x="38.076591" y="72.507182" style="stroke: #000000; stroke-width: 1.5"/>
      </g>
     </g>
     <g id="text_13">
      <!-- 20 -->
      <g transform="translate(20.791279 75.012416) scale(0.07 -0.07)">
       <use xlink:href="#ArialMT-32"/>
       <use xlink:href="#ArialMT-30" transform="translate(55.615234 0)"/>
      </g>
     </g>
    </g>
    <g id="ytick_6">
     <g id="line2d_13">
      <g>
       <use xlink:href="#mee74ccaee2" x="38.076591" y="42.549759" style="stroke: #000000; stroke-width: 1.5"/>
      </g>
     </g>
     <g id="text_14">
      <!-- 30 -->
      <g transform="translate(20.791279 45.054994) scale(0.07 -0.07)">
       <use xlink:href="#ArialMT-33"/>
       <use xlink:href="#ArialMT-30" transform="translate(55.615234 0)"/>
      </g>
     </g>
    </g>
    <g id="ytick_7">
     <g id="line2d_14">
      <g>
       <use xlink:href="#mee74ccaee2" x="38.076591" y="12.592336" style="stroke: #000000; stroke-width: 1.5"/>
      </g>
     </g>
     <g id="text_15">
      <!-- 40 -->
      <g transform="translate(20.791279 15.097571) scale(0.07 -0.07)">
       <use xlink:href="#ArialMT-34"/>
       <use xlink:href="#ArialMT-30" transform="translate(55.615234 0)"/>
      </g>
     </g>
    </g>
    <g id="text_16">
     <!-- Electricity Cost ($) -->
     <g transform="translate(14.22956 130.856714) rotate(-90) scale(0.07 -0.07)">
      <defs>
       <path id="ArialMT-6c" d="M 409 0 
L 409 4581 
L 972 4581 
L 972 0 
L 409 0 
z
" transform="scale(0.015625)"/>
       <path id="ArialMT-65" d="M 2694 1069 
L 3275 997 
Q 3138 488 2766 206 
Q 2394 -75 1816 -75 
Q 1088 -75 661 373 
Q 234 822 234 1631 
Q 234 2469 665 2931 
Q 1097 3394 1784 3394 
Q 2450 3394 2872 2941 
Q 3294 2488 3294 1666 
Q 3294 1616 3291 1516 
L 816 1516 
Q 847 969 1125 678 
Q 1403 388 1819 388 
Q 2128 388 2347 550 
Q 2566 713 2694 1069 
z
M 847 1978 
L 2700 1978 
Q 2663 2397 2488 2606 
Q 2219 2931 1791 2931 
Q 1403 2931 1139 2672 
Q 875 2413 847 1978 
z
" transform="scale(0.015625)"/>
       <path id="ArialMT-63" d="M 2588 1216 
L 3141 1144 
Q 3050 572 2676 248 
Q 2303 -75 1759 -75 
Q 1078 -75 664 370 
Q 250 816 250 1647 
Q 250 2184 428 2587 
Q 606 2991 970 3192 
Q 1334 3394 1763 3394 
Q 2303 3394 2647 3120 
Q 2991 2847 3088 2344 
L 2541 2259 
Q 2463 2594 2264 2762 
Q 2066 2931 1784 2931 
Q 1359 2931 1093 2626 
Q 828 2322 828 1663 
Q 828 994 1084 691 
Q 1341 388 1753 388 
Q 2084 388 2306 591 
Q 2528 794 2588 1216 
z
" transform="scale(0.015625)"/>
       <path id="ArialMT-72" d="M 416 0 
L 416 3319 
L 922 3319 
L 922 2816 
Q 1116 3169 1280 3281 
Q 1444 3394 1641 3394 
Q 1925 3394 2219 3213 
L 2025 2691 
Q 1819 2813 1613 2813 
Q 1428 2813 1281 2702 
Q 1134 2591 1072 2394 
Q 978 2094 978 1738 
L 978 0 
L 416 0 
z
" transform="scale(0.015625)"/>
       <path id="ArialMT-79" d="M 397 -1278 
L 334 -750 
Q 519 -800 656 -800 
Q 844 -800 956 -737 
Q 1069 -675 1141 -563 
Q 1194 -478 1313 -144 
Q 1328 -97 1363 -6 
L 103 3319 
L 709 3319 
L 1400 1397 
Q 1534 1031 1641 628 
Q 1738 1016 1872 1384 
L 2581 3319 
L 3144 3319 
L 1881 -56 
Q 1678 -603 1566 -809 
Q 1416 -1088 1222 -1217 
Q 1028 -1347 759 -1347 
Q 597 -1347 397 -1278 
z
" transform="scale(0.015625)"/>
       <path id="ArialMT-24" d="M 1594 -659 
L 1594 -97 
Q 1172 -44 908 92 
Q 644 228 451 531 
Q 259 834 228 1272 
L 794 1378 
Q 859 925 1025 713 
Q 1263 413 1594 378 
L 1594 2169 
Q 1247 2234 884 2438 
Q 616 2588 470 2853 
Q 325 3119 325 3456 
Q 325 4056 750 4428 
Q 1034 4678 1594 4734 
L 1594 5003 
L 1925 5003 
L 1925 4734 
Q 2416 4688 2703 4447 
Q 3072 4141 3147 3606 
L 2566 3519 
Q 2516 3850 2358 4026 
Q 2200 4203 1925 4259 
L 1925 2638 
Q 2350 2531 2488 2472 
Q 2750 2356 2915 2190 
Q 3081 2025 3170 1797 
Q 3259 1569 3259 1303 
Q 3259 719 2887 328 
Q 2516 -63 1925 -91 
L 1925 -659 
L 1594 -659 
z
M 1594 4266 
Q 1266 4216 1077 4003 
Q 888 3791 888 3500 
Q 888 3213 1048 3019 
Q 1209 2825 1594 2709 
L 1594 4266 
z
M 1925 378 
Q 2253 419 2467 662 
Q 2681 906 2681 1266 
Q 2681 1572 2529 1758 
Q 2378 1944 1925 2091 
L 1925 378 
z
" transform="scale(0.015625)"/>
      </defs>
      <use xlink:href="#ArialMT-45"/>
      <use xlink:href="#ArialMT-6c" transform="translate(66.699219 0)"/>
      <use xlink:href="#ArialMT-65" transform="translate(88.916016 0)"/>
      <use xlink:href="#ArialMT-63" transform="translate(144.53125 0)"/>
      <use xlink:href="#ArialMT-74" transform="translate(194.53125 0)"/>
      <use xlink:href="#ArialMT-72" transform="translate(222.314453 0)"/>
      <use xlink:href="#ArialMT-69" transform="translate(255.615234 0)"/>
      <use xlink:href="#ArialMT-63" transform="translate(277.832031 0)"/>
      <use xlink:href="#ArialMT-69" transform="translate(327.832031 0)"/>
      <use xlink:href="#ArialMT-74" transform="translate(350.048828 0)"/>
      <use xlink:href="#ArialMT-79" transform="translate(377.832031 0)"/>
      <use xlink:href="#ArialMT-20" transform="translate(427.832031 0)"/>
      <use xlink:href="#ArialMT-43" transform="translate(455.615234 0)"/>
      <use xlink:href="#ArialMT-6f" transform="translate(527.832031 0)"/>
      <use xlink:href="#ArialMT-73" transform="translate(583.447266 0)"/>
      <use xlink:href="#ArialMT-74" transform="translate(633.447266 0)"/>
      <use xlink:href="#ArialMT-20" transform="translate(661.230469 0)"/>
      <use xlink:href="#ArialMT-28" transform="translate(689.013672 0)"/>
      <use xlink:href="#ArialMT-24" transform="translate(722.314453 0)"/>
      <use xlink:href="#ArialMT-29" transform="translate(777.929688 0)"/>
     </g>
    </g>
   </g>
   <g id="line2d_15">
    <path d="M 107.048702 58.607573 
L 134.854005 157.538497 
L 160.835479 159.556837 
" clip-path="url(#p3026340121)" style="fill: none; stroke: #ff6347; stroke-width: 2.5; stroke-linecap: square"/>
   </g>
   <g id="line2d_16">
    <path d="M 120.226879 45.124013 
L 120.590414 57.990742 
L 122.954977 79.288893 
L 125.087342 91.566386 
L 128.649987 108.855668 
L 132.974893 125.339501 
L 136.134931 133.470149 
L 145.099394 150.295027 
L 153.586605 154.546493 
" clip-path="url(#p3026340121)" style="fill: none; stroke: #a9a9a9; stroke-width: 2.5; stroke-linecap: square"/>
   </g>
   <g id="line2d_17">
    <path d="M 124.210357 65.643162 
L 124.236647 66.708218 
L 124.308281 68.647011 
L 124.720835 77.134843 
L 124.797683 78.191746 
L 125.874806 84.580598 
L 126.357642 87.123082 
L 128.278046 97.042909 
L 128.81199 99.377296 
L 130.808685 107.439658 
L 131.435464 109.671879 
L 134.752762 120.944325 
L 135.785979 123.852519 
L 142.520312 136.696336 
L 145.12237 140.14536 
L 149.436715 144.680724 
L 150.315928 145.437642 
L 155.914729 146.62673 
" clip-path="url(#p3026340121)" style="fill: none; stroke: #ffd700; stroke-width: 2.5; stroke-linecap: square"/>
   </g>
   <g id="line2d_18">
    <path d="M 135.212339 86.340525 
L 135.427241 92.156905 
L 137.360499 98.648925 
L 137.937795 100.269858 
L 141.825916 108.122534 
L 144.694099 113.563993 
L 147.752827 117.674432 
L 148.341926 118.286061 
L 151.581824 119.166953 
L 154.210898 119.387582 
" clip-path="url(#p3026340121)" style="fill: none; stroke: #008080; stroke-width: 2.5; stroke-linecap: square"/>
   </g>
   <g id="patch_3">
    <path d="M 38.076591 192.336874 
L 38.076591 12.592336 
" style="fill: none; stroke: #000000; stroke-linejoin: miter; stroke-linecap: square"/>
   </g>
   <g id="patch_4">
    <path d="M 243.920532 192.336874 
L 243.920532 12.592336 
" style="fill: none; stroke: #000000; stroke-linejoin: miter; stroke-linecap: square"/>
   </g>
   <g id="patch_5">
    <path d="M 38.076591 192.336874 
L 243.920532 192.336874 
" style="fill: none; stroke: #000000; stroke-linejoin: miter; stroke-linecap: square"/>
   </g>
   <g id="patch_6">
    <path d="M 38.076591 12.592336 
L 243.920532 12.592336 
" style="fill: none; stroke: #000000; stroke-linejoin: miter; stroke-linecap: square"/>
   </g>
   <g id="text_17">
    <!-- a. -->
    <g transform="translate(7.2 12.210469) scale(0.07 -0.07)">
     <defs>
      <path id="Arial-BoldMT-61" d="M 1116 2306 
L 319 2450 
Q 453 2931 781 3162 
Q 1109 3394 1756 3394 
Q 2344 3394 2631 3255 
Q 2919 3116 3036 2902 
Q 3153 2688 3153 2116 
L 3144 1091 
Q 3144 653 3186 445 
Q 3228 238 3344 0 
L 2475 0 
Q 2441 88 2391 259 
Q 2369 338 2359 363 
Q 2134 144 1878 34 
Q 1622 -75 1331 -75 
Q 819 -75 523 203 
Q 228 481 228 906 
Q 228 1188 362 1408 
Q 497 1628 739 1745 
Q 981 1863 1438 1950 
Q 2053 2066 2291 2166 
L 2291 2253 
Q 2291 2506 2166 2614 
Q 2041 2722 1694 2722 
Q 1459 2722 1328 2630 
Q 1197 2538 1116 2306 
z
M 2291 1594 
Q 2122 1538 1756 1459 
Q 1391 1381 1278 1306 
Q 1106 1184 1106 997 
Q 1106 813 1243 678 
Q 1381 544 1594 544 
Q 1831 544 2047 700 
Q 2206 819 2256 991 
Q 2291 1103 2291 1419 
L 2291 1594 
z
" transform="scale(0.015625)"/>
      <path id="Arial-BoldMT-2e" d="M 459 0 
L 459 878 
L 1338 878 
L 1338 0 
L 459 0 
z
" transform="scale(0.015625)"/>
     </defs>
     <use xlink:href="#Arial-BoldMT-61"/>
     <use xlink:href="#Arial-BoldMT-2e" transform="translate(55.615234 0)"/>
    </g>
   </g>
  </g>
  <g id="axes_2">
   <g id="patch_7">
    <path d="M 289.414701 192.336874 
L 495.258642 192.336874 
L 495.258642 12.592336 
L 289.414701 12.592336 
z
" style="fill: #ffffff"/>
   </g>
   <g id="FillBetweenPolyCollection_5">
    <path d="M 363.659597 112.193098 
L 363.659597 112.193098 
L 363.863761 119.134198 
L 364.495217 135.684462 
L 364.600144 138.36431 
L 364.741855 140.668039 
L 364.891093 142.669639 
L 365.451924 149.8049 
L 365.451924 149.8049 
L 365.790321 152.729087 
L 366.325951 154.780571 
L 366.325951 154.780571 
L 367.36116 156.622353 
L 369.81506 158.470846 
L 378.771927 162.163518 
L 381.208979 163.149668 
L 383.403315 164.01255 
L 385.385287 164.773916 
L 385.385287 164.773916 
L 389.042153 166.056217 
L 389.042153 166.056217 
L 390.321867 166.413326 
L 391.638792 166.736424 
L 393.028003 167.03015 
L 393.028003 167.03015 
L 393.028003 167.03015 
L 391.638792 166.736424 
L 390.321867 166.413326 
L 389.042153 166.056217 
L 389.042153 166.056217 
L 385.385287 164.773916 
L 385.385287 164.773916 
L 383.403315 164.01255 
L 381.208979 163.149668 
L 378.771927 162.163518 
L 369.81506 158.470846 
L 367.36116 156.622353 
L 366.325951 154.780571 
L 366.325951 154.780571 
L 365.790321 152.729087 
L 365.451924 149.8049 
L 365.451924 149.8049 
L 364.891093 142.669639 
L 364.741855 140.668039 
L 364.600144 138.36431 
L 364.495217 135.684462 
L 363.863761 119.134198 
L 363.659597 112.193098 
z
" clip-path="url(#p4612d09093)" style="fill: #ff6347; fill-opacity: 0.2; stroke: #ff6347; stroke-opacity: 0.2"/>
    <path d="M 400.8904 168.544649 
L 400.8904 168.544649 
L 400.8904 168.544649 
L 400.8904 168.544649 
z
" clip-path="url(#p4612d09093)" style="fill: #ff6347; fill-opacity: 0.2; stroke: #ff6347; stroke-opacity: 0.2"/>
   </g>
   <g id="FillBetweenPolyCollection_6">
    <path d="M 366.999639 152.417529 
L 366.999639 152.417529 
L 366.999639 152.417529 
L 366.999639 152.417529 
z
" clip-path="url(#p4612d09093)" style="fill: #a9a9a9; fill-opacity: 0.2; stroke: #a9a9a9; stroke-opacity: 0.2"/>
    <path d="M 366.999639 152.417529 
L 366.999639 152.417529 
L 366.999639 152.417529 
L 366.999639 152.417529 
z
" clip-path="url(#p4612d09093)" style="fill: #a9a9a9; fill-opacity: 0.2; stroke: #a9a9a9; stroke-opacity: 0.2"/>
    <path d="M 366.999639 152.417529 
L 366.999639 152.417529 
L 366.999639 152.417529 
L 366.999639 152.417529 
L 366.999639 152.417529 
L 366.999639 152.417529 
z
" clip-path="url(#p4612d09093)" style="fill: #a9a9a9; fill-opacity: 0.2; stroke: #a9a9a9; stroke-opacity: 0.2"/>
    <path d="M 366.999639 152.417529 
L 366.999639 152.417529 
L 366.999639 152.417529 
L 366.999639 152.417529 
L 366.999639 152.417529 
L 366.999639 152.417529 
z
" clip-path="url(#p4612d09093)" style="fill: #a9a9a9; fill-opacity: 0.2; stroke: #a9a9a9; stroke-opacity: 0.2"/>
    <path d="M 367.269286 152.506683 
L 367.269286 152.506683 
L 367.269286 152.506683 
L 367.269286 152.506683 
z
" clip-path="url(#p4612d09093)" style="fill: #a9a9a9; fill-opacity: 0.2; stroke: #a9a9a9; stroke-opacity: 0.2"/>
    <path d="M 372.072819 153.489526 
L 372.072819 153.489526 
L 372.072819 153.489526 
L 372.072819 153.489526 
z
" clip-path="url(#p4612d09093)" style="fill: #a9a9a9; fill-opacity: 0.2; stroke: #a9a9a9; stroke-opacity: 0.2"/>
   </g>
   <g id="FillBetweenPolyCollection_7">
    <defs>
     <path id="me6cf9bca95" d="M 367.541951 -71.617242 
L 367.541951 -71.617242 
L 367.943674 -70.078629 
L 367.943674 -70.078629 
L 368.72008 -68.697292 
L 370.560505 -67.310923 
L 370.560505 -67.310923 
L 370.560505 -67.310923 
L 368.72008 -68.697292 
L 367.943674 -70.078629 
L 367.943674 -70.078629 
L 367.541951 -71.617242 
z
" style="stroke: #ffd700; stroke-opacity: 0.2"/>
    </defs>
    <g clip-path="url(#p4612d09093)">
     <use xlink:href="#me6cf9bca95" x="0" y="226.088593" style="fill: #ffd700; fill-opacity: 0.2; stroke: #ffd700; stroke-opacity: 0.2"/>
    </g>
   </g>
   <g id="FillBetweenPolyCollection_8">
    <path d="M 390.713829 166.428205 
L 390.713829 166.428205 
L 390.713829 166.428205 
L 390.713829 166.428205 
z
" clip-path="url(#p4612d09093)" style="fill: #008080; fill-opacity: 0.2; stroke: #008080; stroke-opacity: 0.2"/>
    <path d="M 392.661308 166.938361 
L 392.661308 166.938361 
L 392.661308 166.938361 
L 392.661308 166.938361 
z
" clip-path="url(#p4612d09093)" style="fill: #008080; fill-opacity: 0.2; stroke: #008080; stroke-opacity: 0.2"/>
    <path d="M 399.600014 168.29453 
L 399.600014 168.29453 
L 399.600014 168.29453 
L 399.600014 168.29453 
z
" clip-path="url(#p4612d09093)" style="fill: #008080; fill-opacity: 0.2; stroke: #008080; stroke-opacity: 0.2"/>
   </g>
   <g id="PathCollection_2">
    <g clip-path="url(#p4612d09093)">
     <use xlink:href="#m2cc0a4fe79" x="420.197377" y="44.202873" style="stroke: #000000"/>
    </g>
   </g>
   <g id="matplotlib.axis_3">
    <g id="xtick_8">
     <g id="line2d_19">
      <g>
       <use xlink:href="#m4e5bc82193" x="289.414701" y="192.336874" style="stroke: #000000; stroke-width: 1.5"/>
      </g>
     </g>
     <g id="text_18">
      <!-- 0.00 -->
      <g transform="translate(282.603373 206.847343) scale(0.07 -0.07)">
       <use xlink:href="#ArialMT-30"/>
       <use xlink:href="#ArialMT-2e" transform="translate(55.615234 0)"/>
       <use xlink:href="#ArialMT-30" transform="translate(83.398438 0)"/>
       <use xlink:href="#ArialMT-30" transform="translate(139.013672 0)"/>
      </g>
     </g>
    </g>
    <g id="xtick_9">
     <g id="line2d_20">
      <g>
       <use xlink:href="#m4e5bc82193" x="323.722025" y="192.336874" style="stroke: #000000; stroke-width: 1.5"/>
      </g>
     </g>
     <g id="text_19">
      <!-- 0.05 -->
      <g transform="translate(316.910697 206.847343) scale(0.07 -0.07)">
       <use xlink:href="#ArialMT-30"/>
       <use xlink:href="#ArialMT-2e" transform="translate(55.615234 0)"/>
       <use xlink:href="#ArialMT-30" transform="translate(83.398438 0)"/>
       <use xlink:href="#ArialMT-35" transform="translate(139.013672 0)"/>
      </g>
     </g>
    </g>
    <g id="xtick_10">
     <g id="line2d_21">
      <g>
       <use xlink:href="#m4e5bc82193" x="358.029348" y="192.336874" style="stroke: #000000; stroke-width: 1.5"/>
      </g>
     </g>
     <g id="text_20">
      <!-- 0.10 -->
      <g transform="translate(351.21802 206.847343) scale(0.07 -0.07)">
       <use xlink:href="#ArialMT-30"/>
       <use xlink:href="#ArialMT-2e" transform="translate(55.615234 0)"/>
       <use xlink:href="#ArialMT-31" transform="translate(83.398438 0)"/>
       <use xlink:href="#ArialMT-30" transform="translate(139.013672 0)"/>
      </g>
     </g>
    </g>
    <g id="xtick_11">
     <g id="line2d_22">
      <g>
       <use xlink:href="#m4e5bc82193" x="392.336672" y="192.336874" style="stroke: #000000; stroke-width: 1.5"/>
      </g>
     </g>
     <g id="text_21">
      <!-- 0.15 -->
      <g transform="translate(385.525343 206.847343) scale(0.07 -0.07)">
       <use xlink:href="#ArialMT-30"/>
       <use xlink:href="#ArialMT-2e" transform="translate(55.615234 0)"/>
       <use xlink:href="#ArialMT-31" transform="translate(83.398438 0)"/>
       <use xlink:href="#ArialMT-35" transform="translate(139.013672 0)"/>
      </g>
     </g>
    </g>
    <g id="xtick_12">
     <g id="line2d_23">
      <g>
       <use xlink:href="#m4e5bc82193" x="426.643995" y="192.336874" style="stroke: #000000; stroke-width: 1.5"/>
      </g>
     </g>
     <g id="text_22">
      <!-- 0.20 -->
      <g transform="translate(419.832667 206.847343) scale(0.07 -0.07)">
       <use xlink:href="#ArialMT-30"/>
       <use xlink:href="#ArialMT-2e" transform="translate(55.615234 0)"/>
       <use xlink:href="#ArialMT-32" transform="translate(83.398438 0)"/>
       <use xlink:href="#ArialMT-30" transform="translate(139.013672 0)"/>
      </g>
     </g>
    </g>
    <g id="xtick_13">
     <g id="line2d_24">
      <g>
       <use xlink:href="#m4e5bc82193" x="460.951318" y="192.336874" style="stroke: #000000; stroke-width: 1.5"/>
      </g>
     </g>
     <g id="text_23">
      <!-- 0.25 -->
      <g transform="translate(454.13999 206.847343) scale(0.07 -0.07)">
       <use xlink:href="#ArialMT-30"/>
       <use xlink:href="#ArialMT-2e" transform="translate(55.615234 0)"/>
       <use xlink:href="#ArialMT-32" transform="translate(83.398438 0)"/>
       <use xlink:href="#ArialMT-35" transform="translate(139.013672 0)"/>
      </g>
     </g>
    </g>
    <g id="xtick_14">
     <g id="line2d_25">
      <g>
       <use xlink:href="#m4e5bc82193" x="495.258642" y="192.336874" style="stroke: #000000; stroke-width: 1.5"/>
      </g>
     </g>
     <g id="text_24">
      <!-- 0.30 -->
      <g transform="translate(488.447314 206.847343) scale(0.07 -0.07)">
       <use xlink:href="#ArialMT-30"/>
       <use xlink:href="#ArialMT-2e" transform="translate(55.615234 0)"/>
       <use xlink:href="#ArialMT-33" transform="translate(83.398438 0)"/>
       <use xlink:href="#ArialMT-30" transform="translate(139.013672 0)"/>
      </g>
     </g>
    </g>
    <g id="text_25">
     <!-- Emissions (tons CO$_2$) -->
     <g transform="translate(358.526672 217.348593) scale(0.07 -0.07)">
      <use xlink:href="#ArialMT-45" transform="translate(0 0.140625)"/>
      <use xlink:href="#ArialMT-6d" transform="translate(66.699219 0.140625)"/>
      <use xlink:href="#ArialMT-69" transform="translate(150 0.140625)"/>
      <use xlink:href="#ArialMT-73" transform="translate(172.216797 0.140625)"/>
      <use xlink:href="#ArialMT-73" transform="translate(222.216797 0.140625)"/>
      <use xlink:href="#ArialMT-69" transform="translate(272.216797 0.140625)"/>
      <use xlink:href="#ArialMT-6f" transform="translate(294.433594 0.140625)"/>
      <use xlink:href="#ArialMT-6e" transform="translate(350.048828 0.140625)"/>
      <use xlink:href="#ArialMT-73" transform="translate(405.664062 0.140625)"/>
      <use xlink:href="#ArialMT-20" transform="translate(455.664062 0.140625)"/>
      <use xlink:href="#ArialMT-28" transform="translate(483.447266 0.140625)"/>
      <use xlink:href="#ArialMT-74" transform="translate(516.748047 0.140625)"/>
      <use xlink:href="#ArialMT-6f" transform="translate(544.53125 0.140625)"/>
      <use xlink:href="#ArialMT-6e" transform="translate(600.146484 0.140625)"/>
      <use xlink:href="#ArialMT-73" transform="translate(655.761719 0.140625)"/>
      <use xlink:href="#ArialMT-20" transform="translate(705.761719 0.140625)"/>
      <use xlink:href="#ArialMT-43" transform="translate(733.544922 0.140625)"/>
      <use xlink:href="#ArialMT-4f" transform="translate(805.761719 0.140625)"/>
      <use xlink:href="#DejaVuSans-32" transform="translate(884.501953 -16.265625) scale(0.7)"/>
      <use xlink:href="#ArialMT-29" transform="translate(931.772461 0.140625)"/>
     </g>
    </g>
   </g>
   <g id="matplotlib.axis_4">
    <g id="ytick_8">
     <g id="line2d_26">
      <g>
       <use xlink:href="#mee74ccaee2" x="289.414701" y="192.336874" style="stroke: #000000; stroke-width: 1.5"/>
      </g>
     </g>
     <g id="text_26">
      <!-- 0 -->
      <g transform="translate(276.022045 194.842108) scale(0.07 -0.07)">
       <use xlink:href="#ArialMT-30"/>
      </g>
     </g>
    </g>
    <g id="ytick_9">
     <g id="line2d_27">
      <g>
       <use xlink:href="#mee74ccaee2" x="289.414701" y="162.379451" style="stroke: #000000; stroke-width: 1.5"/>
      </g>
     </g>
     <g id="text_27">
      <!-- 100 -->
      <g transform="translate(268.236733 164.884685) scale(0.07 -0.07)">
       <use xlink:href="#ArialMT-31"/>
       <use xlink:href="#ArialMT-30" transform="translate(55.615234 0)"/>
       <use xlink:href="#ArialMT-30" transform="translate(111.230469 0)"/>
      </g>
     </g>
    </g>
    <g id="ytick_10">
     <g id="line2d_28">
      <g>
       <use xlink:href="#mee74ccaee2" x="289.414701" y="132.422028" style="stroke: #000000; stroke-width: 1.5"/>
      </g>
     </g>
     <g id="text_28">
      <!-- 200 -->
      <g transform="translate(268.236733 134.927262) scale(0.07 -0.07)">
       <use xlink:href="#ArialMT-32"/>
       <use xlink:href="#ArialMT-30" transform="translate(55.615234 0)"/>
       <use xlink:href="#ArialMT-30" transform="translate(111.230469 0)"/>
      </g>
     </g>
    </g>
    <g id="ytick_11">
     <g id="line2d_29">
      <g>
       <use xlink:href="#mee74ccaee2" x="289.414701" y="102.464605" style="stroke: #000000; stroke-width: 1.5"/>
      </g>
     </g>
     <g id="text_29">
      <!-- 300 -->
      <g transform="translate(268.236733 104.969839) scale(0.07 -0.07)">
       <use xlink:href="#ArialMT-33"/>
       <use xlink:href="#ArialMT-30" transform="translate(55.615234 0)"/>
       <use xlink:href="#ArialMT-30" transform="translate(111.230469 0)"/>
      </g>
     </g>
    </g>
    <g id="ytick_12">
     <g id="line2d_30">
      <g>
       <use xlink:href="#mee74ccaee2" x="289.414701" y="72.507182" style="stroke: #000000; stroke-width: 1.5"/>
      </g>
     </g>
     <g id="text_30">
      <!-- 400 -->
      <g transform="translate(268.236733 75.012416) scale(0.07 -0.07)">
       <use xlink:href="#ArialMT-34"/>
       <use xlink:href="#ArialMT-30" transform="translate(55.615234 0)"/>
       <use xlink:href="#ArialMT-30" transform="translate(111.230469 0)"/>
      </g>
     </g>
    </g>
    <g id="ytick_13">
     <g id="line2d_31">
      <g>
       <use xlink:href="#mee74ccaee2" x="289.414701" y="42.549759" style="stroke: #000000; stroke-width: 1.5"/>
      </g>
     </g>
     <g id="text_31">
      <!-- 500 -->
      <g transform="translate(268.236733 45.054994) scale(0.07 -0.07)">
       <use xlink:href="#ArialMT-35"/>
       <use xlink:href="#ArialMT-30" transform="translate(55.615234 0)"/>
       <use xlink:href="#ArialMT-30" transform="translate(111.230469 0)"/>
      </g>
     </g>
    </g>
    <g id="ytick_14">
     <g id="line2d_32">
      <g>
       <use xlink:href="#mee74ccaee2" x="289.414701" y="12.592336" style="stroke: #000000; stroke-width: 1.5"/>
      </g>
     </g>
     <g id="text_32">
      <!-- 600 -->
      <g transform="translate(268.236733 15.097571) scale(0.07 -0.07)">
       <defs>
        <path id="ArialMT-36" d="M 3184 3459 
L 2625 3416 
Q 2550 3747 2413 3897 
Q 2184 4138 1850 4138 
Q 1581 4138 1378 3988 
Q 1113 3794 959 3422 
Q 806 3050 800 2363 
Q 1003 2672 1297 2822 
Q 1591 2972 1913 2972 
Q 2475 2972 2870 2558 
Q 3266 2144 3266 1488 
Q 3266 1056 3080 686 
Q 2894 316 2569 119 
Q 2244 -78 1831 -78 
Q 1128 -78 684 439 
Q 241 956 241 2144 
Q 241 3472 731 4075 
Q 1159 4600 1884 4600 
Q 2425 4600 2770 4297 
Q 3116 3994 3184 3459 
z
M 888 1484 
Q 888 1194 1011 928 
Q 1134 663 1356 523 
Q 1578 384 1822 384 
Q 2178 384 2434 671 
Q 2691 959 2691 1453 
Q 2691 1928 2437 2201 
Q 2184 2475 1800 2475 
Q 1419 2475 1153 2201 
Q 888 1928 888 1484 
z
" transform="scale(0.015625)"/>
       </defs>
       <use xlink:href="#ArialMT-36"/>
       <use xlink:href="#ArialMT-30" transform="translate(55.615234 0)"/>
       <use xlink:href="#ArialMT-30" transform="translate(111.230469 0)"/>
      </g>
     </g>
    </g>
    <g id="text_33">
     <!-- Electricity Cost ($) -->
     <g transform="translate(265.763451 130.856714) rotate(-90) scale(0.07 -0.07)">
      <use xlink:href="#ArialMT-45"/>
      <use xlink:href="#ArialMT-6c" transform="translate(66.699219 0)"/>
      <use xlink:href="#ArialMT-65" transform="translate(88.916016 0)"/>
      <use xlink:href="#ArialMT-63" transform="translate(144.53125 0)"/>
      <use xlink:href="#ArialMT-74" transform="translate(194.53125 0)"/>
      <use xlink:href="#ArialMT-72" transform="translate(222.314453 0)"/>
      <use xlink:href="#ArialMT-69" transform="translate(255.615234 0)"/>
      <use xlink:href="#ArialMT-63" transform="translate(277.832031 0)"/>
      <use xlink:href="#ArialMT-69" transform="translate(327.832031 0)"/>
      <use xlink:href="#ArialMT-74" transform="translate(350.048828 0)"/>
      <use xlink:href="#ArialMT-79" transform="translate(377.832031 0)"/>
      <use xlink:href="#ArialMT-20" transform="translate(427.832031 0)"/>
      <use xlink:href="#ArialMT-43" transform="translate(455.615234 0)"/>
      <use xlink:href="#ArialMT-6f" transform="translate(527.832031 0)"/>
      <use xlink:href="#ArialMT-73" transform="translate(583.447266 0)"/>
      <use xlink:href="#ArialMT-74" transform="translate(633.447266 0)"/>
      <use xlink:href="#ArialMT-20" transform="translate(661.230469 0)"/>
      <use xlink:href="#ArialMT-28" transform="translate(689.013672 0)"/>
      <use xlink:href="#ArialMT-24" transform="translate(722.314453 0)"/>
      <use xlink:href="#ArialMT-29" transform="translate(777.929688 0)"/>
     </g>
    </g>
   </g>
   <g id="line2d_33">
    <path d="M 362.683983 51.187802 
L 363.659597 112.193098 
L 363.863761 119.134198 
L 364.495217 135.684462 
L 364.600144 138.36431 
L 364.741855 140.668039 
L 364.891093 142.669639 
L 365.451924 149.8049 
L 365.451924 149.8049 
L 365.790321 152.729087 
L 366.325951 154.780571 
L 366.325951 154.780571 
L 367.36116 156.622353 
L 369.81506 158.470846 
L 378.771927 162.163518 
L 381.208979 163.149668 
L 383.403315 164.01255 
L 385.385287 164.773916 
L 385.385287 164.773916 
L 389.042153 166.056217 
L 389.042153 166.056217 
L 390.321867 166.413326 
L 391.638792 166.736424 
L 393.028003 167.03015 
L 398.212454 168.036968 
L 400.8904 168.544649 
" clip-path="url(#p4612d09093)" style="fill: none; stroke: #ff6347; stroke-width: 2.5; stroke-linecap: square"/>
   </g>
   <g id="line2d_34">
    <path d="M 365.190955 146.240309 
L 366.999639 152.417529 
L 366.999639 152.417529 
L 366.999639 152.417529 
L 366.999639 152.417529 
L 366.999639 152.417529 
L 366.999639 152.417529 
L 366.999639 152.417529 
L 366.999639 152.417529 
L 366.999639 152.417529 
L 366.999639 152.417529 
L 366.999639 152.417529 
L 366.999639 152.417529 
L 366.999639 152.417529 
L 366.999639 152.417529 
L 366.999639 152.417529 
L 366.999639 152.417529 
L 366.999639 152.417529 
L 366.999639 152.417529 
L 366.999639 152.417529 
L 366.999639 152.417529 
L 366.999639 152.417529 
L 366.999639 152.417529 
L 366.999639 152.417529 
L 367.269286 152.506683 
L 371.091681 153.311219 
L 372.072819 153.489526 
L 372.325726 153.489526 
L 372.344125 153.489526 
L 378.448719 154.094882 
L 411.99308 156.599801 
L 412.056971 156.620676 
L 412.103729 156.599801 
L 414.316708 156.620676 
" clip-path="url(#p4612d09093)" style="fill: none; stroke: #a9a9a9; stroke-width: 2.5; stroke-linecap: square"/>
   </g>
   <g id="line2d_35">
    <path d="M 367.344553 152.765575 
L 367.541951 154.47135 
L 367.943674 156.009964 
L 367.943674 156.009964 
L 368.72008 157.391301 
L 370.560505 158.77767 
L 373.551546 160.011257 
L 374.642706 160.044689 
L 388.34167 164.561406 
L 388.405561 164.58228 
L 388.405561 164.58228 
L 388.405561 164.58228 
L 388.405561 164.58228 
L 395.096906 165.264399 
L 397.904131 165.535765 
L 407.865289 165.535765 
" clip-path="url(#p4612d09093)" style="fill: none; stroke: #ffd700; stroke-width: 2.5; stroke-linecap: square"/>
   </g>
   <g id="line2d_36">
    <path d="M 378.529846 161.659649 
L 379.090606 161.894485 
L 386.4847 164.895455 
L 387.971179 165.46648 
L 390.713829 166.428205 
L 391.673614 166.696037 
L 392.661308 166.938361 
L 393.703216 167.158655 
L 399.600014 168.29453 
L 399.600014 168.29453 
" clip-path="url(#p4612d09093)" style="fill: none; stroke: #008080; stroke-width: 2.5; stroke-linecap: square"/>
   </g>
   <g id="line2d_37"/>
   <g id="line2d_38"/>
   <g id="line2d_39"/>
   <g id="line2d_40"/>
   <g id="patch_8">
    <path d="M 289.414701 192.336874 
L 289.414701 12.592336 
" style="fill: none; stroke: #000000; stroke-linejoin: miter; stroke-linecap: square"/>
   </g>
   <g id="patch_9">
    <path d="M 495.258642 192.336874 
L 495.258642 12.592336 
" style="fill: none; stroke: #000000; stroke-linejoin: miter; stroke-linecap: square"/>
   </g>
   <g id="patch_10">
    <path d="M 289.414701 192.336874 
L 495.258642 192.336874 
" style="fill: none; stroke: #000000; stroke-linejoin: miter; stroke-linecap: square"/>
   </g>
   <g id="patch_11">
    <path d="M 289.414701 12.592336 
L 495.258642 12.592336 
" style="fill: none; stroke: #000000; stroke-linejoin: miter; stroke-linecap: square"/>
   </g>
   <g id="text_34">
    <!-- b. -->
    <g transform="translate(258.53811 12.210469) scale(0.07 -0.07)">
     <defs>
      <path id="Arial-BoldMT-62" d="M 422 0 
L 422 4581 
L 1300 4581 
L 1300 2931 
Q 1706 3394 2263 3394 
Q 2869 3394 3266 2955 
Q 3663 2516 3663 1694 
Q 3663 844 3258 384 
Q 2853 -75 2275 -75 
Q 1991 -75 1714 67 
Q 1438 209 1238 488 
L 1238 0 
L 422 0 
z
M 1294 1731 
Q 1294 1216 1456 969 
Q 1684 619 2063 619 
Q 2353 619 2558 867 
Q 2763 1116 2763 1650 
Q 2763 2219 2556 2470 
Q 2350 2722 2028 2722 
Q 1713 2722 1503 2476 
Q 1294 2231 1294 1731 
z
" transform="scale(0.015625)"/>
     </defs>
     <use xlink:href="#Arial-BoldMT-62"/>
     <use xlink:href="#Arial-BoldMT-2e" transform="translate(61.083984 0)"/>
    </g>
   </g>
  </g>
 </g>
 <defs>
  <clipPath id="p3026340121">
   <rect x="38.076591" y="12.592336" width="205.843941" height="179.744538"/>
  </clipPath>
  <clipPath id="p4612d09093">
   <rect x="289.414701" y="12.592336" width="205.843941" height="179.744538"/>
  </clipPath>
 </defs>
</svg>
