<?xml version="1.0" encoding="utf-8" standalone="no"?>
<!DOCTYPE svg PUBLIC "-//W3C//DTD SVG 1.1//EN"
  "http://www.w3.org/Graphics/SVG/1.1/DTD/svg11.dtd">
<svg xmlns:xlink="http://www.w3.org/1999/xlink" width="825.7425pt" height="547.478125pt" viewBox="0 0 825.7425 547.478125" xmlns="http://www.w3.org/2000/svg" version="1.1">
 <metadata>
  <rdf:RDF xmlns:dc="http://purl.org/dc/elements/1.1/" xmlns:cc="http://creativecommons.org/ns#" xmlns:rdf="http://www.w3.org/1999/02/22-rdf-syntax-ns#">
   <cc:Work>
    <dc:type rdf:resource="http://purl.org/dc/dcmitype/StillImage"/>
    <dc:date>2025-07-10T12:39:23.205843</dc:date>
    <dc:format>image/svg+xml</dc:format>
    <dc:creator>
     <cc:Agent>
      <dc:title>Matplotlib v3.10.3, https://matplotlib.org/</dc:title>
     </cc:Agent>
    </dc:creator>
   </cc:Work>
  </rdf:RDF>
 </metadata>
 <defs>
  <style type="text/css">*{stroke-linejoin: round; stroke-linecap: butt}</style>
 </defs>
 <g id="figure_1">
  <g id="patch_1">
   <path d="M 0 547.478125 
L 825.7425 547.478125 
L 825.7425 -0 
L 0 -0 
z
" style="fill: #ffffff"/>
  </g>
  <g id="axes_1">
   <g id="patch_2">
    <path d="M 94.57875 324.154125 
L 382.84875 324.154125 
L 382.84875 16.318125 
L 94.57875 16.318125 
z
" style="fill: #ffffff"/>
   </g>
   <g id="FillBetweenPolyCollection_1">
    <defs>
     <path id="m68130f69b1" d="M 318.727117 -284.308354 
L 318.727117 -284.308354 
L 353.938632 -280.963189 
L 353.938632 -280.963189 
L 353.938632 -280.963189 
L 318.727117 -284.308354 
z
" style="stroke: #ff6347; stroke-opacity: 0.2"/>
    </defs>
    <g clip-path="url(#p8668258d46)">
     <use xlink:href="#m68130f69b1" x="0" y="547.478125" style="fill: #ff6347; fill-opacity: 0.2; stroke: #ff6347; stroke-opacity: 0.2"/>
    </g>
   </g>
   <g id="FillBetweenPolyCollection_2">
    <defs>
     <path id="m0fd9f5ee69" d="M 299.396319 -449.297258 
L 299.396319 -449.297258 
L 302.600904 -413.998033 
L 305.490801 -393.649506 
L 310.319093 -364.994519 
L 316.180442 -337.67447 
L 320.463098 -324.19886 
L 332.612229 -296.31357 
L 344.114562 -289.267255 
L 344.114562 -289.267255 
L 344.114562 -289.267255 
L 332.612229 -296.31357 
L 320.463098 -324.19886 
L 316.180442 -337.67447 
L 310.319093 -364.994519 
L 305.490801 -393.649506 
L 302.600904 -413.998033 
L 299.396319 -449.297258 
z
" style="stroke: #a9a9a9; stroke-opacity: 0.2"/>
    </defs>
    <g clip-path="url(#p8668258d46)">
     <use xlink:href="#m0fd9f5ee69" x="0" y="547.478125" style="fill: #a9a9a9; fill-opacity: 0.2; stroke: #a9a9a9; stroke-opacity: 0.2"/>
    </g>
   </g>
   <g id="FillBetweenPolyCollection_3">
    <path d="M 304.337893 112.629076 
L 304.337893 112.629076 
L 304.434976 115.842402 
L 304.994091 129.910003 
L 305.098241 131.661697 
L 305.098241 131.661697 
L 305.098241 131.661697 
L 304.994091 129.910003 
L 304.434976 115.842402 
L 304.337893 112.629076 
z
" clip-path="url(#p8668258d46)" style="fill: #ffd700; fill-opacity: 0.2; stroke: #ffd700; stroke-opacity: 0.2"/>
    <path d="M 319.99018 207.339153 
L 319.99018 207.339153 
L 319.99018 207.339153 
L 319.99018 207.339153 
z
" clip-path="url(#p8668258d46)" style="fill: #ffd700; fill-opacity: 0.2; stroke: #ffd700; stroke-opacity: 0.2"/>
   </g>
   <g id="FillBetweenPolyCollection_4">
    <path d="M 319.503999 154.807334 
L 319.503999 154.807334 
L 322.124055 165.567108 
L 322.906438 168.253617 
L 322.906438 168.253617 
L 322.906438 168.253617 
L 322.124055 165.567108 
L 319.503999 154.807334 
z
" clip-path="url(#p8668258d46)" style="fill: #008080; fill-opacity: 0.2; stroke: #008080; stroke-opacity: 0.2"/>
    <path d="M 332.062951 190.287111 
L 332.062951 190.287111 
L 336.208307 197.099689 
L 337.006686 198.113393 
L 337.006686 198.113393 
L 337.006686 198.113393 
L 336.208307 197.099689 
L 332.062951 190.287111 
z
" clip-path="url(#p8668258d46)" style="fill: #008080; fill-opacity: 0.2; stroke: #008080; stroke-opacity: 0.2"/>
   </g>
   <g id="PathCollection_1">
    <defs>
     <path id="m89caa1e65c" d="M 0 5 
C 1.326016 5 2.597899 4.473168 3.535534 3.535534 
C 4.473168 2.597899 5 1.326016 5 0 
C 5 -1.326016 4.473168 -2.597899 3.535534 -3.535534 
C 2.597899 -4.473168 1.326016 -5 0 -5 
C -1.326016 -5 -2.597899 -4.473168 -3.535534 -3.535534 
C -4.473168 -2.597899 -5 -1.326016 -5 0 
C -5 1.326016 -4.473168 2.597899 -3.535534 3.535534 
C -2.597899 4.473168 -1.326016 5 0 5 
z
" style="stroke: #000000"/>
    </defs>
    <g clip-path="url(#p8668258d46)">
     <use xlink:href="#m89caa1e65c" x="339.972628" y="149.217653" style="stroke: #000000"/>
    </g>
   </g>
   <g id="matplotlib.axis_1">
    <g id="xtick_1">
     <g id="line2d_1">
      <defs>
       <path id="m1c1a1b1ffc" d="M 0 0 
L 0 6 
" style="stroke: #000000; stroke-width: 1.5"/>
      </defs>
      <g>
       <use xlink:href="#m1c1a1b1ffc" x="94.57875" y="324.154125" style="stroke: #000000; stroke-width: 1.5"/>
      </g>
     </g>
     <g id="text_1">
      <!-- 0.0 -->
      <g transform="translate(75.495 351.890375) scale(0.24 -0.24)">
       <defs>
        <path id="DejaVuSans-30" d="M 2034 4250 
Q 1547 4250 1301 3770 
Q 1056 3291 1056 2328 
Q 1056 1369 1301 889 
Q 1547 409 2034 409 
Q 2525 409 2770 889 
Q 3016 1369 3016 2328 
Q 3016 3291 2770 3770 
Q 2525 4250 2034 4250 
z
M 2034 4750 
Q 2819 4750 3233 4129 
Q 3647 3509 3647 2328 
Q 3647 1150 3233 529 
Q 2819 -91 2034 -91 
Q 1250 -91 836 529 
Q 422 1150 422 2328 
Q 422 3509 836 4129 
Q 1250 4750 2034 4750 
z
" transform="scale(0.015625)"/>
        <path id="DejaVuSans-2e" d="M 684 794 
L 1344 794 
L 1344 0 
L 684 0 
L 684 794 
z
" transform="scale(0.015625)"/>
       </defs>
       <use xlink:href="#DejaVuSans-30"/>
       <use xlink:href="#DejaVuSans-2e" transform="translate(63.623047 0)"/>
       <use xlink:href="#DejaVuSans-30" transform="translate(95.410156 0)"/>
      </g>
     </g>
    </g>
    <g id="xtick_2">
     <g id="line2d_2">
      <g>
       <use xlink:href="#m1c1a1b1ffc" x="190.66875" y="324.154125" style="stroke: #000000; stroke-width: 1.5"/>
      </g>
     </g>
     <g id="text_2">
      <!-- 0.1 -->
      <g transform="translate(171.585 351.890375) scale(0.24 -0.24)">
       <defs>
        <path id="DejaVuSans-31" d="M 794 531 
L 1825 531 
L 1825 4091 
L 703 3866 
L 703 4441 
L 1819 4666 
L 2450 4666 
L 2450 531 
L 3481 531 
L 3481 0 
L 794 0 
L 794 531 
z
" transform="scale(0.015625)"/>
       </defs>
       <use xlink:href="#DejaVuSans-30"/>
       <use xlink:href="#DejaVuSans-2e" transform="translate(63.623047 0)"/>
       <use xlink:href="#DejaVuSans-31" transform="translate(95.410156 0)"/>
      </g>
     </g>
    </g>
    <g id="xtick_3">
     <g id="line2d_3">
      <g>
       <use xlink:href="#m1c1a1b1ffc" x="286.75875" y="324.154125" style="stroke: #000000; stroke-width: 1.5"/>
      </g>
     </g>
     <g id="text_3">
      <!-- 0.2 -->
      <g transform="translate(267.675 351.890375) scale(0.24 -0.24)">
       <defs>
        <path id="DejaVuSans-32" d="M 1228 531 
L 3431 531 
L 3431 0 
L 469 0 
L 469 531 
Q 828 903 1448 1529 
Q 2069 2156 2228 2338 
Q 2531 2678 2651 2914 
Q 2772 3150 2772 3378 
Q 2772 3750 2511 3984 
Q 2250 4219 1831 4219 
Q 1534 4219 1204 4116 
Q 875 4013 500 3803 
L 500 4441 
Q 881 4594 1212 4672 
Q 1544 4750 1819 4750 
Q 2544 4750 2975 4387 
Q 3406 4025 3406 3419 
Q 3406 3131 3298 2873 
Q 3191 2616 2906 2266 
Q 2828 2175 2409 1742 
Q 1991 1309 1228 531 
z
" transform="scale(0.015625)"/>
       </defs>
       <use xlink:href="#DejaVuSans-30"/>
       <use xlink:href="#DejaVuSans-2e" transform="translate(63.623047 0)"/>
       <use xlink:href="#DejaVuSans-32" transform="translate(95.410156 0)"/>
      </g>
     </g>
    </g>
    <g id="xtick_4">
     <g id="line2d_4">
      <g>
       <use xlink:href="#m1c1a1b1ffc" x="382.84875" y="324.154125" style="stroke: #000000; stroke-width: 1.5"/>
      </g>
     </g>
     <g id="text_4">
      <!-- 0.3 -->
      <g transform="translate(363.765 351.890375) scale(0.24 -0.24)">
       <defs>
        <path id="DejaVuSans-33" d="M 2597 2516 
Q 3050 2419 3304 2112 
Q 3559 1806 3559 1356 
Q 3559 666 3084 287 
Q 2609 -91 1734 -91 
Q 1441 -91 1130 -33 
Q 819 25 488 141 
L 488 750 
Q 750 597 1062 519 
Q 1375 441 1716 441 
Q 2309 441 2620 675 
Q 2931 909 2931 1356 
Q 2931 1769 2642 2001 
Q 2353 2234 1838 2234 
L 1294 2234 
L 1294 2753 
L 1863 2753 
Q 2328 2753 2575 2939 
Q 2822 3125 2822 3475 
Q 2822 3834 2567 4026 
Q 2313 4219 1838 4219 
Q 1578 4219 1281 4162 
Q 984 4106 628 3988 
L 628 4550 
Q 988 4650 1302 4700 
Q 1616 4750 1894 4750 
Q 2613 4750 3031 4423 
Q 3450 4097 3450 3541 
Q 3450 3153 3228 2886 
Q 3006 2619 2597 2516 
z
" transform="scale(0.015625)"/>
       </defs>
       <use xlink:href="#DejaVuSans-30"/>
       <use xlink:href="#DejaVuSans-2e" transform="translate(63.623047 0)"/>
       <use xlink:href="#DejaVuSans-33" transform="translate(95.410156 0)"/>
      </g>
     </g>
    </g>
    <g id="text_5">
     <!-- Emissions (tons CO$_2$) -->
     <g transform="translate(112.47375 379.117875) scale(0.24 -0.24)">
      <defs>
       <path id="DejaVuSans-45" d="M 628 4666 
L 3578 4666 
L 3578 4134 
L 1259 4134 
L 1259 2753 
L 3481 2753 
L 3481 2222 
L 1259 2222 
L 1259 531 
L 3634 531 
L 3634 0 
L 628 0 
L 628 4666 
z
" transform="scale(0.015625)"/>
       <path id="DejaVuSans-6d" d="M 3328 2828 
Q 3544 3216 3844 3400 
Q 4144 3584 4550 3584 
Q 5097 3584 5394 3201 
Q 5691 2819 5691 2113 
L 5691 0 
L 5113 0 
L 5113 2094 
Q 5113 2597 4934 2840 
Q 4756 3084 4391 3084 
Q 3944 3084 3684 2787 
Q 3425 2491 3425 1978 
L 3425 0 
L 2847 0 
L 2847 2094 
Q 2847 2600 2669 2842 
Q 2491 3084 2119 3084 
Q 1678 3084 1418 2786 
Q 1159 2488 1159 1978 
L 1159 0 
L 581 0 
L 581 3500 
L 1159 3500 
L 1159 2956 
Q 1356 3278 1631 3431 
Q 1906 3584 2284 3584 
Q 2666 3584 2933 3390 
Q 3200 3197 3328 2828 
z
" transform="scale(0.015625)"/>
       <path id="DejaVuSans-69" d="M 603 3500 
L 1178 3500 
L 1178 0 
L 603 0 
L 603 3500 
z
M 603 4863 
L 1178 4863 
L 1178 4134 
L 603 4134 
L 603 4863 
z
" transform="scale(0.015625)"/>
       <path id="DejaVuSans-73" d="M 2834 3397 
L 2834 2853 
Q 2591 2978 2328 3040 
Q 2066 3103 1784 3103 
Q 1356 3103 1142 2972 
Q 928 2841 928 2578 
Q 928 2378 1081 2264 
Q 1234 2150 1697 2047 
L 1894 2003 
Q 2506 1872 2764 1633 
Q 3022 1394 3022 966 
Q 3022 478 2636 193 
Q 2250 -91 1575 -91 
Q 1294 -91 989 -36 
Q 684 19 347 128 
L 347 722 
Q 666 556 975 473 
Q 1284 391 1588 391 
Q 1994 391 2212 530 
Q 2431 669 2431 922 
Q 2431 1156 2273 1281 
Q 2116 1406 1581 1522 
L 1381 1569 
Q 847 1681 609 1914 
Q 372 2147 372 2553 
Q 372 3047 722 3315 
Q 1072 3584 1716 3584 
Q 2034 3584 2315 3537 
Q 2597 3491 2834 3397 
z
" transform="scale(0.015625)"/>
       <path id="DejaVuSans-6f" d="M 1959 3097 
Q 1497 3097 1228 2736 
Q 959 2375 959 1747 
Q 959 1119 1226 758 
Q 1494 397 1959 397 
Q 2419 397 2687 759 
Q 2956 1122 2956 1747 
Q 2956 2369 2687 2733 
Q 2419 3097 1959 3097 
z
M 1959 3584 
Q 2709 3584 3137 3096 
Q 3566 2609 3566 1747 
Q 3566 888 3137 398 
Q 2709 -91 1959 -91 
Q 1206 -91 779 398 
Q 353 888 353 1747 
Q 353 2609 779 3096 
Q 1206 3584 1959 3584 
z
" transform="scale(0.015625)"/>
       <path id="DejaVuSans-6e" d="M 3513 2113 
L 3513 0 
L 2938 0 
L 2938 2094 
Q 2938 2591 2744 2837 
Q 2550 3084 2163 3084 
Q 1697 3084 1428 2787 
Q 1159 2491 1159 1978 
L 1159 0 
L 581 0 
L 581 3500 
L 1159 3500 
L 1159 2956 
Q 1366 3272 1645 3428 
Q 1925 3584 2291 3584 
Q 2894 3584 3203 3211 
Q 3513 2838 3513 2113 
z
" transform="scale(0.015625)"/>
       <path id="DejaVuSans-20" transform="scale(0.015625)"/>
       <path id="DejaVuSans-28" d="M 1984 4856 
Q 1566 4138 1362 3434 
Q 1159 2731 1159 2009 
Q 1159 1288 1364 580 
Q 1569 -128 1984 -844 
L 1484 -844 
Q 1016 -109 783 600 
Q 550 1309 550 2009 
Q 550 2706 781 3412 
Q 1013 4119 1484 4856 
L 1984 4856 
z
" transform="scale(0.015625)"/>
       <path id="DejaVuSans-74" d="M 1172 4494 
L 1172 3500 
L 2356 3500 
L 2356 3053 
L 1172 3053 
L 1172 1153 
Q 1172 725 1289 603 
Q 1406 481 1766 481 
L 2356 481 
L 2356 0 
L 1766 0 
Q 1100 0 847 248 
Q 594 497 594 1153 
L 594 3053 
L 172 3053 
L 172 3500 
L 594 3500 
L 594 4494 
L 1172 4494 
z
" transform="scale(0.015625)"/>
       <path id="DejaVuSans-43" d="M 4122 4306 
L 4122 3641 
Q 3803 3938 3442 4084 
Q 3081 4231 2675 4231 
Q 1875 4231 1450 3742 
Q 1025 3253 1025 2328 
Q 1025 1406 1450 917 
Q 1875 428 2675 428 
Q 3081 428 3442 575 
Q 3803 722 4122 1019 
L 4122 359 
Q 3791 134 3420 21 
Q 3050 -91 2638 -91 
Q 1578 -91 968 557 
Q 359 1206 359 2328 
Q 359 3453 968 4101 
Q 1578 4750 2638 4750 
Q 3056 4750 3426 4639 
Q 3797 4528 4122 4306 
z
" transform="scale(0.015625)"/>
       <path id="DejaVuSans-4f" d="M 2522 4238 
Q 1834 4238 1429 3725 
Q 1025 3213 1025 2328 
Q 1025 1447 1429 934 
Q 1834 422 2522 422 
Q 3209 422 3611 934 
Q 4013 1447 4013 2328 
Q 4013 3213 3611 3725 
Q 3209 4238 2522 4238 
z
M 2522 4750 
Q 3503 4750 4090 4092 
Q 4678 3434 4678 2328 
Q 4678 1225 4090 567 
Q 3503 -91 2522 -91 
Q 1538 -91 948 565 
Q 359 1222 359 2328 
Q 359 3434 948 4092 
Q 1538 4750 2522 4750 
z
" transform="scale(0.015625)"/>
       <path id="DejaVuSans-29" d="M 513 4856 
L 1013 4856 
Q 1481 4119 1714 3412 
Q 1947 2706 1947 2009 
Q 1947 1309 1714 600 
Q 1481 -109 1013 -844 
L 513 -844 
Q 928 -128 1133 580 
Q 1338 1288 1338 2009 
Q 1338 2731 1133 3434 
Q 928 4138 513 4856 
z
" transform="scale(0.015625)"/>
      </defs>
      <use xlink:href="#DejaVuSans-45" transform="translate(0 0.015625)"/>
      <use xlink:href="#DejaVuSans-6d" transform="translate(63.183594 0.015625)"/>
      <use xlink:href="#DejaVuSans-69" transform="translate(160.595703 0.015625)"/>
      <use xlink:href="#DejaVuSans-73" transform="translate(188.378906 0.015625)"/>
      <use xlink:href="#DejaVuSans-73" transform="translate(240.478516 0.015625)"/>
      <use xlink:href="#DejaVuSans-69" transform="translate(292.578125 0.015625)"/>
      <use xlink:href="#DejaVuSans-6f" transform="translate(320.361328 0.015625)"/>
      <use xlink:href="#DejaVuSans-6e" transform="translate(381.542969 0.015625)"/>
      <use xlink:href="#DejaVuSans-73" transform="translate(444.921875 0.015625)"/>
      <use xlink:href="#DejaVuSans-20" transform="translate(497.021484 0.015625)"/>
      <use xlink:href="#DejaVuSans-28" transform="translate(528.808594 0.015625)"/>
      <use xlink:href="#DejaVuSans-74" transform="translate(567.822266 0.015625)"/>
      <use xlink:href="#DejaVuSans-6f" transform="translate(607.03125 0.015625)"/>
      <use xlink:href="#DejaVuSans-6e" transform="translate(668.212891 0.015625)"/>
      <use xlink:href="#DejaVuSans-73" transform="translate(731.591797 0.015625)"/>
      <use xlink:href="#DejaVuSans-20" transform="translate(783.691406 0.015625)"/>
      <use xlink:href="#DejaVuSans-43" transform="translate(815.478516 0.015625)"/>
      <use xlink:href="#DejaVuSans-4f" transform="translate(885.302734 0.015625)"/>
      <use xlink:href="#DejaVuSans-32" transform="translate(964.970703 -16.390625) scale(0.7)"/>
      <use xlink:href="#DejaVuSans-29" transform="translate(1012.241211 0.015625)"/>
     </g>
    </g>
   </g>
   <g id="matplotlib.axis_2">
    <g id="ytick_1">
     <g id="line2d_5">
      <defs>
       <path id="m4e107148fe" d="M 0 0 
L -6 0 
" style="stroke: #000000; stroke-width: 1.5"/>
      </defs>
      <g>
       <use xlink:href="#m4e107148fe" x="94.57875" y="324.154125" style="stroke: #000000; stroke-width: 1.5"/>
      </g>
     </g>
     <g id="text_6">
      <!-- −20 -->
      <g transform="translate(34.4275 333.27225) scale(0.24 -0.24)">
       <defs>
        <path id="DejaVuSans-2212" d="M 678 2272 
L 4684 2272 
L 4684 1741 
L 678 1741 
L 678 2272 
z
" transform="scale(0.015625)"/>
       </defs>
       <use xlink:href="#DejaVuSans-2212"/>
       <use xlink:href="#DejaVuSans-32" transform="translate(83.789062 0)"/>
       <use xlink:href="#DejaVuSans-30" transform="translate(147.412109 0)"/>
      </g>
     </g>
    </g>
    <g id="ytick_2">
     <g id="line2d_6">
      <g>
       <use xlink:href="#m4e107148fe" x="94.57875" y="272.848125" style="stroke: #000000; stroke-width: 1.5"/>
      </g>
     </g>
     <g id="text_7">
      <!-- −10 -->
      <g transform="translate(34.4275 281.96625) scale(0.24 -0.24)">
       <use xlink:href="#DejaVuSans-2212"/>
       <use xlink:href="#DejaVuSans-31" transform="translate(83.789062 0)"/>
       <use xlink:href="#DejaVuSans-30" transform="translate(147.412109 0)"/>
      </g>
     </g>
    </g>
    <g id="ytick_3">
     <g id="line2d_7">
      <g>
       <use xlink:href="#m4e107148fe" x="94.57875" y="221.542125" style="stroke: #000000; stroke-width: 1.5"/>
      </g>
     </g>
     <g id="text_8">
      <!-- 0 -->
      <g transform="translate(69.80875 230.66025) scale(0.24 -0.24)">
       <use xlink:href="#DejaVuSans-30"/>
      </g>
     </g>
    </g>
    <g id="ytick_4">
     <g id="line2d_8">
      <g>
       <use xlink:href="#m4e107148fe" x="94.57875" y="170.236125" style="stroke: #000000; stroke-width: 1.5"/>
      </g>
     </g>
     <g id="text_9">
      <!-- 10 -->
      <g transform="translate(54.53875 179.35425) scale(0.24 -0.24)">
       <use xlink:href="#DejaVuSans-31"/>
       <use xlink:href="#DejaVuSans-30" transform="translate(63.623047 0)"/>
      </g>
     </g>
    </g>
    <g id="ytick_5">
     <g id="line2d_9">
      <g>
       <use xlink:href="#m4e107148fe" x="94.57875" y="118.930125" style="stroke: #000000; stroke-width: 1.5"/>
      </g>
     </g>
     <g id="text_10">
      <!-- 20 -->
      <g transform="translate(54.53875 128.04825) scale(0.24 -0.24)">
       <use xlink:href="#DejaVuSans-32"/>
       <use xlink:href="#DejaVuSans-30" transform="translate(63.623047 0)"/>
      </g>
     </g>
    </g>
    <g id="ytick_6">
     <g id="line2d_10">
      <g>
       <use xlink:href="#m4e107148fe" x="94.57875" y="67.624125" style="stroke: #000000; stroke-width: 1.5"/>
      </g>
     </g>
     <g id="text_11">
      <!-- 30 -->
      <g transform="translate(54.53875 76.74225) scale(0.24 -0.24)">
       <use xlink:href="#DejaVuSans-33"/>
       <use xlink:href="#DejaVuSans-30" transform="translate(63.623047 0)"/>
      </g>
     </g>
    </g>
    <g id="ytick_7">
     <g id="line2d_11">
      <g>
       <use xlink:href="#m4e107148fe" x="94.57875" y="16.318125" style="stroke: #000000; stroke-width: 1.5"/>
      </g>
     </g>
     <g id="text_12">
      <!-- 40 -->
      <g transform="translate(54.53875 25.43625) scale(0.24 -0.24)">
       <defs>
        <path id="DejaVuSans-34" d="M 2419 4116 
L 825 1625 
L 2419 1625 
L 2419 4116 
z
M 2253 4666 
L 3047 4666 
L 3047 1625 
L 3713 1625 
L 3713 1100 
L 3047 1100 
L 3047 0 
L 2419 0 
L 2419 1100 
L 313 1100 
L 313 1709 
L 2253 4666 
z
" transform="scale(0.015625)"/>
       </defs>
       <use xlink:href="#DejaVuSans-34"/>
       <use xlink:href="#DejaVuSans-30" transform="translate(63.623047 0)"/>
      </g>
     </g>
    </g>
    <g id="text_13">
     <!-- Electricity Cost ($) -->
     <g transform="translate(25.43625 281.148) rotate(-90) scale(0.24 -0.24)">
      <defs>
       <path id="DejaVuSans-6c" d="M 603 4863 
L 1178 4863 
L 1178 0 
L 603 0 
L 603 4863 
z
" transform="scale(0.015625)"/>
       <path id="DejaVuSans-65" d="M 3597 1894 
L 3597 1613 
L 953 1613 
Q 991 1019 1311 708 
Q 1631 397 2203 397 
Q 2534 397 2845 478 
Q 3156 559 3463 722 
L 3463 178 
Q 3153 47 2828 -22 
Q 2503 -91 2169 -91 
Q 1331 -91 842 396 
Q 353 884 353 1716 
Q 353 2575 817 3079 
Q 1281 3584 2069 3584 
Q 2775 3584 3186 3129 
Q 3597 2675 3597 1894 
z
M 3022 2063 
Q 3016 2534 2758 2815 
Q 2500 3097 2075 3097 
Q 1594 3097 1305 2825 
Q 1016 2553 972 2059 
L 3022 2063 
z
" transform="scale(0.015625)"/>
       <path id="DejaVuSans-63" d="M 3122 3366 
L 3122 2828 
Q 2878 2963 2633 3030 
Q 2388 3097 2138 3097 
Q 1578 3097 1268 2742 
Q 959 2388 959 1747 
Q 959 1106 1268 751 
Q 1578 397 2138 397 
Q 2388 397 2633 464 
Q 2878 531 3122 666 
L 3122 134 
Q 2881 22 2623 -34 
Q 2366 -91 2075 -91 
Q 1284 -91 818 406 
Q 353 903 353 1747 
Q 353 2603 823 3093 
Q 1294 3584 2113 3584 
Q 2378 3584 2631 3529 
Q 2884 3475 3122 3366 
z
" transform="scale(0.015625)"/>
       <path id="DejaVuSans-72" d="M 2631 2963 
Q 2534 3019 2420 3045 
Q 2306 3072 2169 3072 
Q 1681 3072 1420 2755 
Q 1159 2438 1159 1844 
L 1159 0 
L 581 0 
L 581 3500 
L 1159 3500 
L 1159 2956 
Q 1341 3275 1631 3429 
Q 1922 3584 2338 3584 
Q 2397 3584 2469 3576 
Q 2541 3569 2628 3553 
L 2631 2963 
z
" transform="scale(0.015625)"/>
       <path id="DejaVuSans-79" d="M 2059 -325 
Q 1816 -950 1584 -1140 
Q 1353 -1331 966 -1331 
L 506 -1331 
L 506 -850 
L 844 -850 
Q 1081 -850 1212 -737 
Q 1344 -625 1503 -206 
L 1606 56 
L 191 3500 
L 800 3500 
L 1894 763 
L 2988 3500 
L 3597 3500 
L 2059 -325 
z
" transform="scale(0.015625)"/>
       <path id="DejaVuSans-24" d="M 2163 -941 
L 1850 -941 
L 1847 0 
Q 1519 6 1191 76 
Q 863 147 531 288 
L 531 850 
Q 850 650 1176 548 
Q 1503 447 1850 444 
L 1850 1869 
Q 1159 1981 845 2250 
Q 531 2519 531 2988 
Q 531 3497 872 3790 
Q 1213 4084 1850 4128 
L 1850 4863 
L 2163 4863 
L 2163 4138 
Q 2453 4125 2725 4076 
Q 2997 4028 3256 3944 
L 3256 3397 
Q 2997 3528 2723 3600 
Q 2450 3672 2163 3684 
L 2163 2350 
Q 2872 2241 3206 1959 
Q 3541 1678 3541 1191 
Q 3541 663 3186 358 
Q 2831 53 2163 6 
L 2163 -941 
z
M 1850 2406 
L 1850 3688 
Q 1488 3647 1297 3481 
Q 1106 3316 1106 3041 
Q 1106 2772 1282 2622 
Q 1459 2472 1850 2406 
z
M 2163 1806 
L 2163 453 
Q 2559 506 2761 678 
Q 2963 850 2963 1131 
Q 2963 1406 2770 1568 
Q 2578 1731 2163 1806 
z
" transform="scale(0.015625)"/>
      </defs>
      <use xlink:href="#DejaVuSans-45"/>
      <use xlink:href="#DejaVuSans-6c" transform="translate(63.183594 0)"/>
      <use xlink:href="#DejaVuSans-65" transform="translate(90.966797 0)"/>
      <use xlink:href="#DejaVuSans-63" transform="translate(152.490234 0)"/>
      <use xlink:href="#DejaVuSans-74" transform="translate(207.470703 0)"/>
      <use xlink:href="#DejaVuSans-72" transform="translate(246.679688 0)"/>
      <use xlink:href="#DejaVuSans-69" transform="translate(287.792969 0)"/>
      <use xlink:href="#DejaVuSans-63" transform="translate(315.576172 0)"/>
      <use xlink:href="#DejaVuSans-69" transform="translate(370.556641 0)"/>
      <use xlink:href="#DejaVuSans-74" transform="translate(398.339844 0)"/>
      <use xlink:href="#DejaVuSans-79" transform="translate(437.548828 0)"/>
      <use xlink:href="#DejaVuSans-20" transform="translate(496.728516 0)"/>
      <use xlink:href="#DejaVuSans-43" transform="translate(528.515625 0)"/>
      <use xlink:href="#DejaVuSans-6f" transform="translate(598.339844 0)"/>
      <use xlink:href="#DejaVuSans-73" transform="translate(659.521484 0)"/>
      <use xlink:href="#DejaVuSans-74" transform="translate(711.621094 0)"/>
      <use xlink:href="#DejaVuSans-20" transform="translate(750.830078 0)"/>
      <use xlink:href="#DejaVuSans-28" transform="translate(782.617188 0)"/>
      <use xlink:href="#DejaVuSans-24" transform="translate(821.630859 0)"/>
      <use xlink:href="#DejaVuSans-29" transform="translate(885.253906 0)"/>
     </g>
    </g>
   </g>
   <g id="line2d_12">
    <path d="M 281.043851 99.203194 
L 318.727117 263.169771 
L 353.938632 266.514936 
" clip-path="url(#p8668258d46)" style="fill: none; stroke: #ff6347; stroke-width: 3; stroke-linecap: square"/>
   </g>
   <g id="line2d_13">
    <path d="M 298.903637 76.85575 
L 299.396319 98.180867 
L 302.600904 133.480092 
L 305.490801 153.828619 
L 310.319093 182.483606 
L 316.180442 209.803655 
L 320.463098 223.279265 
L 332.612229 251.164555 
L 344.114562 258.21087 
" clip-path="url(#p8668258d46)" style="fill: none; stroke: #a9a9a9; stroke-width: 3; stroke-linecap: square"/>
   </g>
   <g id="line2d_14">
    <path d="M 304.302264 110.863869 
L 304.337893 112.629076 
L 304.434976 115.842402 
L 304.994091 129.910003 
L 305.098241 131.661697 
L 306.558016 142.250482 
L 307.212381 146.464355 
L 309.815018 162.905322 
L 310.538648 166.774298 
L 313.244678 180.136732 
L 314.094124 183.836381 
L 318.589907 202.519158 
L 319.99018 207.339153 
L 329.116916 228.626297 
L 332.643368 234.342655 
L 338.490404 241.859498 
L 339.681961 243.114001 
L 347.269762 245.084778 
" clip-path="url(#p8668258d46)" style="fill: none; stroke: #ffd700; stroke-width: 3; stroke-linecap: square"/>
   </g>
   <g id="line2d_15">
    <path d="M 319.212751 145.167357 
L 319.503999 154.807334 
L 322.124055 165.567108 
L 322.906438 168.253617 
L 328.175832 181.26852 
L 332.062951 190.287111 
L 336.208307 197.099689 
L 337.006686 198.113393 
L 341.397573 199.57337 
L 344.960638 199.939036 
" clip-path="url(#p8668258d46)" style="fill: none; stroke: #008080; stroke-width: 3; stroke-linecap: square"/>
   </g>
   <g id="patch_3">
    <path d="M 94.57875 324.154125 
L 94.57875 16.318125 
" style="fill: none; stroke: #000000; stroke-width: 2; stroke-linejoin: miter; stroke-linecap: square"/>
   </g>
   <g id="patch_4">
    <path d="M 382.84875 324.154125 
L 382.84875 16.318125 
" style="fill: none; stroke: #000000; stroke-width: 2; stroke-linejoin: miter; stroke-linecap: square"/>
   </g>
   <g id="patch_5">
    <path d="M 94.57875 324.154125 
L 382.84875 324.154125 
" style="fill: none; stroke: #000000; stroke-width: 2; stroke-linejoin: miter; stroke-linecap: square"/>
   </g>
   <g id="patch_6">
    <path d="M 94.57875 16.318125 
L 382.84875 16.318125 
" style="fill: none; stroke: #000000; stroke-width: 2; stroke-linejoin: miter; stroke-linecap: square"/>
   </g>
  </g>
  <g id="axes_2">
   <g id="patch_7">
    <path d="M 511.18875 324.154125 
L 799.45875 324.154125 
L 799.45875 16.318125 
L 511.18875 16.318125 
z
" style="fill: #ffffff"/>
   </g>
   <g id="FillBetweenPolyCollection_5">
    <path d="M 615.163518 186.897441 
L 615.163518 186.897441 
L 615.449436 198.784981 
L 616.333746 227.12947 
L 616.480688 231.719059 
L 616.679145 235.664496 
L 616.888143 239.092498 
L 617.673547 251.312563 
L 617.673547 251.312563 
L 618.147448 256.320615 
L 618.89756 259.83405 
L 618.89756 259.83405 
L 620.347297 262.988343 
L 623.783812 266.154129 
L 636.327277 272.478311 
L 639.740196 274.167223 
L 642.813211 275.64502 
L 645.588823 276.948959 
L 645.588823 276.948959 
L 650.710008 279.145067 
L 650.710008 279.145067 
L 652.502157 279.756663 
L 654.346419 280.310011 
L 656.291911 280.813055 
L 656.291911 280.813055 
L 656.291911 280.813055 
L 654.346419 280.310011 
L 652.502157 279.756663 
L 650.710008 279.145067 
L 650.710008 279.145067 
L 645.588823 276.948959 
L 645.588823 276.948959 
L 642.813211 275.64502 
L 639.740196 274.167223 
L 636.327277 272.478311 
L 623.783812 266.154129 
L 620.347297 262.988343 
L 618.89756 259.83405 
L 618.89756 259.83405 
L 618.147448 256.320615 
L 617.673547 251.312563 
L 617.673547 251.312563 
L 616.888143 239.092498 
L 616.679145 235.664496 
L 616.480688 231.719059 
L 616.333746 227.12947 
L 615.449436 198.784981 
L 615.163518 186.897441 
z
" clip-path="url(#p21b52bdb2a)" style="fill: #ff6347; fill-opacity: 0.2; stroke: #ff6347; stroke-opacity: 0.2"/>
    <path d="M 667.302647 283.406833 
L 667.302647 283.406833 
L 667.302647 283.406833 
L 667.302647 283.406833 
z
" clip-path="url(#p21b52bdb2a)" style="fill: #ff6347; fill-opacity: 0.2; stroke: #ff6347; stroke-opacity: 0.2"/>
   </g>
   <g id="FillBetweenPolyCollection_6">
    <path d="M 619.841014 255.787033 
L 619.841014 255.787033 
L 619.841014 255.787033 
L 619.841014 255.787033 
z
" clip-path="url(#p21b52bdb2a)" style="fill: #a9a9a9; fill-opacity: 0.2; stroke: #a9a9a9; stroke-opacity: 0.2"/>
    <path d="M 619.841014 255.787033 
L 619.841014 255.787033 
L 619.841014 255.787033 
L 619.841014 255.787033 
z
" clip-path="url(#p21b52bdb2a)" style="fill: #a9a9a9; fill-opacity: 0.2; stroke: #a9a9a9; stroke-opacity: 0.2"/>
    <path d="M 619.841014 255.787033 
L 619.841014 255.787033 
L 619.841014 255.787033 
L 619.841014 255.787033 
L 619.841014 255.787033 
L 619.841014 255.787033 
z
" clip-path="url(#p21b52bdb2a)" style="fill: #a9a9a9; fill-opacity: 0.2; stroke: #a9a9a9; stroke-opacity: 0.2"/>
    <path d="M 619.841014 255.787033 
L 619.841014 255.787033 
L 619.841014 255.787033 
L 619.841014 255.787033 
L 619.841014 255.787033 
L 619.841014 255.787033 
z
" clip-path="url(#p21b52bdb2a)" style="fill: #a9a9a9; fill-opacity: 0.2; stroke: #a9a9a9; stroke-opacity: 0.2"/>
    <path d="M 620.218635 255.93972 
L 620.218635 255.93972 
L 620.218635 255.93972 
L 620.218635 255.93972 
z
" clip-path="url(#p21b52bdb2a)" style="fill: #a9a9a9; fill-opacity: 0.2; stroke: #a9a9a9; stroke-opacity: 0.2"/>
    <path d="M 626.945645 257.622967 
L 626.945645 257.622967 
L 626.945645 257.622967 
L 626.945645 257.622967 
z
" clip-path="url(#p21b52bdb2a)" style="fill: #a9a9a9; fill-opacity: 0.2; stroke: #a9a9a9; stroke-opacity: 0.2"/>
   </g>
   <g id="FillBetweenPolyCollection_7">
    <defs>
     <path id="maeafbef0f6" d="M 620.600484 -288.173655 
L 620.600484 -288.173655 
L 621.163067 -285.538579 
L 621.163067 -285.538579 
L 622.25037 -283.172859 
L 624.827757 -280.79852 
L 624.827757 -280.79852 
L 624.827757 -280.79852 
L 622.25037 -283.172859 
L 621.163067 -285.538579 
L 621.163067 -285.538579 
L 620.600484 -288.173655 
z
" style="stroke: #ffd700; stroke-opacity: 0.2"/>
    </defs>
    <g clip-path="url(#p21b52bdb2a)">
     <use xlink:href="#maeafbef0f6" x="0" y="547.478125" style="fill: #ffd700; fill-opacity: 0.2; stroke: #ffd700; stroke-opacity: 0.2"/>
    </g>
   </g>
   <g id="FillBetweenPolyCollection_8">
    <path d="M 653.051073 279.782146 
L 653.051073 279.782146 
L 653.051073 279.782146 
L 653.051073 279.782146 
z
" clip-path="url(#p21b52bdb2a)" style="fill: #008080; fill-opacity: 0.2; stroke: #008080; stroke-opacity: 0.2"/>
    <path d="M 655.778381 280.655854 
L 655.778381 280.655854 
L 655.778381 280.655854 
L 655.778381 280.655854 
z
" clip-path="url(#p21b52bdb2a)" style="fill: #008080; fill-opacity: 0.2; stroke: #008080; stroke-opacity: 0.2"/>
    <path d="M 665.495552 282.97847 
L 665.495552 282.97847 
L 665.495552 282.97847 
L 665.495552 282.97847 
z
" clip-path="url(#p21b52bdb2a)" style="fill: #008080; fill-opacity: 0.2; stroke: #008080; stroke-opacity: 0.2"/>
   </g>
   <g id="PathCollection_2">
    <g clip-path="url(#p21b52bdb2a)">
     <use xlink:href="#m89caa1e65c" x="660.074267" y="82.669969" style="stroke: #000000"/>
    </g>
   </g>
   <g id="matplotlib.axis_3">
    <g id="xtick_5">
     <g id="line2d_16">
      <g>
       <use xlink:href="#m1c1a1b1ffc" x="511.18875" y="324.154125" style="stroke: #000000; stroke-width: 1.5"/>
      </g>
     </g>
     <g id="text_14">
      <!-- 0.0 -->
      <g transform="translate(492.105 351.890375) scale(0.24 -0.24)">
       <use xlink:href="#DejaVuSans-30"/>
       <use xlink:href="#DejaVuSans-2e" transform="translate(63.623047 0)"/>
       <use xlink:href="#DejaVuSans-30" transform="translate(95.410156 0)"/>
      </g>
     </g>
    </g>
    <g id="xtick_6">
     <g id="line2d_17">
      <g>
       <use xlink:href="#m1c1a1b1ffc" x="607.27875" y="324.154125" style="stroke: #000000; stroke-width: 1.5"/>
      </g>
     </g>
     <g id="text_15">
      <!-- 0.1 -->
      <g transform="translate(588.195 351.890375) scale(0.24 -0.24)">
       <use xlink:href="#DejaVuSans-30"/>
       <use xlink:href="#DejaVuSans-2e" transform="translate(63.623047 0)"/>
       <use xlink:href="#DejaVuSans-31" transform="translate(95.410156 0)"/>
      </g>
     </g>
    </g>
    <g id="xtick_7">
     <g id="line2d_18">
      <g>
       <use xlink:href="#m1c1a1b1ffc" x="703.36875" y="324.154125" style="stroke: #000000; stroke-width: 1.5"/>
      </g>
     </g>
     <g id="text_16">
      <!-- 0.2 -->
      <g transform="translate(684.285 351.890375) scale(0.24 -0.24)">
       <use xlink:href="#DejaVuSans-30"/>
       <use xlink:href="#DejaVuSans-2e" transform="translate(63.623047 0)"/>
       <use xlink:href="#DejaVuSans-32" transform="translate(95.410156 0)"/>
      </g>
     </g>
    </g>
    <g id="xtick_8">
     <g id="line2d_19">
      <g>
       <use xlink:href="#m1c1a1b1ffc" x="799.45875" y="324.154125" style="stroke: #000000; stroke-width: 1.5"/>
      </g>
     </g>
     <g id="text_17">
      <!-- 0.3 -->
      <g transform="translate(780.375 351.890375) scale(0.24 -0.24)">
       <use xlink:href="#DejaVuSans-30"/>
       <use xlink:href="#DejaVuSans-2e" transform="translate(63.623047 0)"/>
       <use xlink:href="#DejaVuSans-33" transform="translate(95.410156 0)"/>
      </g>
     </g>
    </g>
    <g id="text_18">
     <!-- Emissions (tons CO$_2$) -->
     <g transform="translate(529.08375 379.117875) scale(0.24 -0.24)">
      <use xlink:href="#DejaVuSans-45" transform="translate(0 0.015625)"/>
      <use xlink:href="#DejaVuSans-6d" transform="translate(63.183594 0.015625)"/>
      <use xlink:href="#DejaVuSans-69" transform="translate(160.595703 0.015625)"/>
      <use xlink:href="#DejaVuSans-73" transform="translate(188.378906 0.015625)"/>
      <use xlink:href="#DejaVuSans-73" transform="translate(240.478516 0.015625)"/>
      <use xlink:href="#DejaVuSans-69" transform="translate(292.578125 0.015625)"/>
      <use xlink:href="#DejaVuSans-6f" transform="translate(320.361328 0.015625)"/>
      <use xlink:href="#DejaVuSans-6e" transform="translate(381.542969 0.015625)"/>
      <use xlink:href="#DejaVuSans-73" transform="translate(444.921875 0.015625)"/>
      <use xlink:href="#DejaVuSans-20" transform="translate(497.021484 0.015625)"/>
      <use xlink:href="#DejaVuSans-28" transform="translate(528.808594 0.015625)"/>
      <use xlink:href="#DejaVuSans-74" transform="translate(567.822266 0.015625)"/>
      <use xlink:href="#DejaVuSans-6f" transform="translate(607.03125 0.015625)"/>
      <use xlink:href="#DejaVuSans-6e" transform="translate(668.212891 0.015625)"/>
      <use xlink:href="#DejaVuSans-73" transform="translate(731.591797 0.015625)"/>
      <use xlink:href="#DejaVuSans-20" transform="translate(783.691406 0.015625)"/>
      <use xlink:href="#DejaVuSans-43" transform="translate(815.478516 0.015625)"/>
      <use xlink:href="#DejaVuSans-4f" transform="translate(885.302734 0.015625)"/>
      <use xlink:href="#DejaVuSans-32" transform="translate(964.970703 -16.390625) scale(0.7)"/>
      <use xlink:href="#DejaVuSans-29" transform="translate(1012.241211 0.015625)"/>
     </g>
    </g>
   </g>
   <g id="matplotlib.axis_4">
    <g id="ytick_8">
     <g id="line2d_20">
      <g>
       <use xlink:href="#m4e107148fe" x="511.18875" y="324.154125" style="stroke: #000000; stroke-width: 1.5"/>
      </g>
     </g>
     <g id="text_19">
      <!-- 0 -->
      <g transform="translate(486.41875 333.27225) scale(0.24 -0.24)">
       <use xlink:href="#DejaVuSans-30"/>
      </g>
     </g>
    </g>
    <g id="ytick_9">
     <g id="line2d_21">
      <g>
       <use xlink:href="#m4e107148fe" x="511.18875" y="272.848125" style="stroke: #000000; stroke-width: 1.5"/>
      </g>
     </g>
     <g id="text_20">
      <!-- 100 -->
      <g transform="translate(455.87875 281.96625) scale(0.24 -0.24)">
       <use xlink:href="#DejaVuSans-31"/>
       <use xlink:href="#DejaVuSans-30" transform="translate(63.623047 0)"/>
       <use xlink:href="#DejaVuSans-30" transform="translate(127.246094 0)"/>
      </g>
     </g>
    </g>
    <g id="ytick_10">
     <g id="line2d_22">
      <g>
       <use xlink:href="#m4e107148fe" x="511.18875" y="221.542125" style="stroke: #000000; stroke-width: 1.5"/>
      </g>
     </g>
     <g id="text_21">
      <!-- 200 -->
      <g transform="translate(455.87875 230.66025) scale(0.24 -0.24)">
       <use xlink:href="#DejaVuSans-32"/>
       <use xlink:href="#DejaVuSans-30" transform="translate(63.623047 0)"/>
       <use xlink:href="#DejaVuSans-30" transform="translate(127.246094 0)"/>
      </g>
     </g>
    </g>
    <g id="ytick_11">
     <g id="line2d_23">
      <g>
       <use xlink:href="#m4e107148fe" x="511.18875" y="170.236125" style="stroke: #000000; stroke-width: 1.5"/>
      </g>
     </g>
     <g id="text_22">
      <!-- 300 -->
      <g transform="translate(455.87875 179.35425) scale(0.24 -0.24)">
       <use xlink:href="#DejaVuSans-33"/>
       <use xlink:href="#DejaVuSans-30" transform="translate(63.623047 0)"/>
       <use xlink:href="#DejaVuSans-30" transform="translate(127.246094 0)"/>
      </g>
     </g>
    </g>
    <g id="ytick_12">
     <g id="line2d_24">
      <g>
       <use xlink:href="#m4e107148fe" x="511.18875" y="118.930125" style="stroke: #000000; stroke-width: 1.5"/>
      </g>
     </g>
     <g id="text_23">
      <!-- 400 -->
      <g transform="translate(455.87875 128.04825) scale(0.24 -0.24)">
       <use xlink:href="#DejaVuSans-34"/>
       <use xlink:href="#DejaVuSans-30" transform="translate(63.623047 0)"/>
       <use xlink:href="#DejaVuSans-30" transform="translate(127.246094 0)"/>
      </g>
     </g>
    </g>
    <g id="ytick_13">
     <g id="line2d_25">
      <g>
       <use xlink:href="#m4e107148fe" x="511.18875" y="67.624125" style="stroke: #000000; stroke-width: 1.5"/>
      </g>
     </g>
     <g id="text_24">
      <!-- 500 -->
      <g transform="translate(455.87875 76.74225) scale(0.24 -0.24)">
       <defs>
        <path id="DejaVuSans-35" d="M 691 4666 
L 3169 4666 
L 3169 4134 
L 1269 4134 
L 1269 2991 
Q 1406 3038 1543 3061 
Q 1681 3084 1819 3084 
Q 2600 3084 3056 2656 
Q 3513 2228 3513 1497 
Q 3513 744 3044 326 
Q 2575 -91 1722 -91 
Q 1428 -91 1123 -41 
Q 819 9 494 109 
L 494 744 
Q 775 591 1075 516 
Q 1375 441 1709 441 
Q 2250 441 2565 725 
Q 2881 1009 2881 1497 
Q 2881 1984 2565 2268 
Q 2250 2553 1709 2553 
Q 1456 2553 1204 2497 
Q 953 2441 691 2322 
L 691 4666 
z
" transform="scale(0.015625)"/>
       </defs>
       <use xlink:href="#DejaVuSans-35"/>
       <use xlink:href="#DejaVuSans-30" transform="translate(63.623047 0)"/>
       <use xlink:href="#DejaVuSans-30" transform="translate(127.246094 0)"/>
      </g>
     </g>
    </g>
    <g id="ytick_14">
     <g id="line2d_26">
      <g>
       <use xlink:href="#m4e107148fe" x="511.18875" y="16.318125" style="stroke: #000000; stroke-width: 1.5"/>
      </g>
     </g>
     <g id="text_25">
      <!-- 600 -->
      <g transform="translate(455.87875 25.43625) scale(0.24 -0.24)">
       <defs>
        <path id="DejaVuSans-36" d="M 2113 2584 
Q 1688 2584 1439 2293 
Q 1191 2003 1191 1497 
Q 1191 994 1439 701 
Q 1688 409 2113 409 
Q 2538 409 2786 701 
Q 3034 994 3034 1497 
Q 3034 2003 2786 2293 
Q 2538 2584 2113 2584 
z
M 3366 4563 
L 3366 3988 
Q 3128 4100 2886 4159 
Q 2644 4219 2406 4219 
Q 1781 4219 1451 3797 
Q 1122 3375 1075 2522 
Q 1259 2794 1537 2939 
Q 1816 3084 2150 3084 
Q 2853 3084 3261 2657 
Q 3669 2231 3669 1497 
Q 3669 778 3244 343 
Q 2819 -91 2113 -91 
Q 1303 -91 875 529 
Q 447 1150 447 2328 
Q 447 3434 972 4092 
Q 1497 4750 2381 4750 
Q 2619 4750 2861 4703 
Q 3103 4656 3366 4563 
z
" transform="scale(0.015625)"/>
       </defs>
       <use xlink:href="#DejaVuSans-36"/>
       <use xlink:href="#DejaVuSans-30" transform="translate(63.623047 0)"/>
       <use xlink:href="#DejaVuSans-30" transform="translate(127.246094 0)"/>
      </g>
     </g>
    </g>
    <g id="text_26">
     <!-- Electricity Cost ($) -->
     <g transform="translate(446.8875 281.148) rotate(-90) scale(0.24 -0.24)">
      <use xlink:href="#DejaVuSans-45"/>
      <use xlink:href="#DejaVuSans-6c" transform="translate(63.183594 0)"/>
      <use xlink:href="#DejaVuSans-65" transform="translate(90.966797 0)"/>
      <use xlink:href="#DejaVuSans-63" transform="translate(152.490234 0)"/>
      <use xlink:href="#DejaVuSans-74" transform="translate(207.470703 0)"/>
      <use xlink:href="#DejaVuSans-72" transform="translate(246.679688 0)"/>
      <use xlink:href="#DejaVuSans-69" transform="translate(287.792969 0)"/>
      <use xlink:href="#DejaVuSans-63" transform="translate(315.576172 0)"/>
      <use xlink:href="#DejaVuSans-69" transform="translate(370.556641 0)"/>
      <use xlink:href="#DejaVuSans-74" transform="translate(398.339844 0)"/>
      <use xlink:href="#DejaVuSans-79" transform="translate(437.548828 0)"/>
      <use xlink:href="#DejaVuSans-20" transform="translate(496.728516 0)"/>
      <use xlink:href="#DejaVuSans-43" transform="translate(528.515625 0)"/>
      <use xlink:href="#DejaVuSans-6f" transform="translate(598.339844 0)"/>
      <use xlink:href="#DejaVuSans-73" transform="translate(659.521484 0)"/>
      <use xlink:href="#DejaVuSans-74" transform="translate(711.621094 0)"/>
      <use xlink:href="#DejaVuSans-20" transform="translate(750.830078 0)"/>
      <use xlink:href="#DejaVuSans-28" transform="translate(782.617188 0)"/>
      <use xlink:href="#DejaVuSans-24" transform="translate(821.630859 0)"/>
      <use xlink:href="#DejaVuSans-29" transform="translate(885.253906 0)"/>
     </g>
    </g>
   </g>
   <g id="line2d_27">
    <path d="M 613.797239 82.417902 
L 615.163518 186.897441 
L 615.449436 198.784981 
L 616.333746 227.12947 
L 616.480688 231.719059 
L 616.679145 235.664496 
L 616.888143 239.092498 
L 617.673547 251.312563 
L 617.673547 251.312563 
L 618.147448 256.320615 
L 618.89756 259.83405 
L 618.89756 259.83405 
L 620.347297 262.988343 
L 623.783812 266.154129 
L 636.327277 272.478311 
L 639.740196 274.167223 
L 642.813211 275.64502 
L 645.588823 276.948959 
L 645.588823 276.948959 
L 650.710008 279.145067 
L 650.710008 279.145067 
L 652.502157 279.756663 
L 654.346419 280.310011 
L 656.291911 280.813055 
L 663.552371 282.537362 
L 667.302647 283.406833 
" clip-path="url(#p21b52bdb2a)" style="fill: none; stroke: #ff6347; stroke-width: 3; stroke-linecap: square"/>
   </g>
   <g id="line2d_28">
    <path d="M 617.308078 245.207736 
L 619.841014 255.787033 
L 619.841014 255.787033 
L 619.841014 255.787033 
L 619.841014 255.787033 
L 619.841014 255.787033 
L 619.841014 255.787033 
L 619.841014 255.787033 
L 619.841014 255.787033 
L 619.841014 255.787033 
L 619.841014 255.787033 
L 619.841014 255.787033 
L 619.841014 255.787033 
L 619.841014 255.787033 
L 619.841014 255.787033 
L 619.841014 255.787033 
L 619.841014 255.787033 
L 619.841014 255.787033 
L 619.841014 255.787033 
L 619.841014 255.787033 
L 619.841014 255.787033 
L 619.841014 255.787033 
L 619.841014 255.787033 
L 619.841014 255.787033 
L 620.218635 255.93972 
L 625.571631 257.317594 
L 626.945645 257.622967 
L 627.299825 257.622967 
L 627.325591 257.622967 
L 635.874646 258.659717 
L 682.851172 262.94972 
L 682.940647 262.98547 
L 683.006128 262.94972 
L 686.105249 262.98547 
" clip-path="url(#p21b52bdb2a)" style="fill: none; stroke: #a9a9a9; stroke-width: 3; stroke-linecap: square"/>
   </g>
   <g id="line2d_29">
    <path d="M 620.324041 256.383106 
L 620.600484 259.30447 
L 621.163067 261.939546 
L 621.163067 261.939546 
L 622.25037 264.305266 
L 624.827757 266.679605 
L 629.016499 268.792283 
L 630.544592 268.849541 
L 649.729031 276.585008 
L 649.818506 276.620758 
L 649.818506 276.620758 
L 649.818506 276.620758 
L 649.818506 276.620758 
L 659.189264 277.788975 
L 663.120586 278.253725 
L 677.070489 278.253725 
" clip-path="url(#p21b52bdb2a)" style="fill: none; stroke: #ffd700; stroke-width: 3; stroke-linecap: square"/>
   </g>
   <g id="line2d_30">
    <path d="M 635.988259 271.61537 
L 636.773565 272.017558 
L 647.128475 277.157111 
L 649.210184 278.135065 
L 653.051073 279.782146 
L 654.395185 280.240842 
L 655.778381 280.655854 
L 657.2375 281.033137 
L 665.495552 282.97847 
L 665.495552 282.97847 
" clip-path="url(#p21b52bdb2a)" style="fill: none; stroke: #008080; stroke-width: 3; stroke-linecap: square"/>
   </g>
   <g id="line2d_31"/>
   <g id="line2d_32"/>
   <g id="line2d_33"/>
   <g id="line2d_34"/>
   <g id="patch_8">
    <path d="M 511.18875 324.154125 
L 511.18875 16.318125 
" style="fill: none; stroke: #000000; stroke-width: 2; stroke-linejoin: miter; stroke-linecap: square"/>
   </g>
   <g id="patch_9">
    <path d="M 799.45875 324.154125 
L 799.45875 16.318125 
" style="fill: none; stroke: #000000; stroke-width: 2; stroke-linejoin: miter; stroke-linecap: square"/>
   </g>
   <g id="patch_10">
    <path d="M 511.18875 324.154125 
L 799.45875 324.154125 
" style="fill: none; stroke: #000000; stroke-width: 2; stroke-linejoin: miter; stroke-linecap: square"/>
   </g>
   <g id="patch_11">
    <path d="M 511.18875 16.318125 
L 799.45875 16.318125 
" style="fill: none; stroke: #000000; stroke-width: 2; stroke-linejoin: miter; stroke-linecap: square"/>
   </g>
  </g>
  <g id="legend_1">
   <g id="line2d_35">
    <path d="M 190.42875 422.327187 
L 212.42875 422.327187 
L 234.42875 422.327187 
" style="fill: none; stroke: #ff6347; stroke-width: 3; stroke-linecap: square"/>
   </g>
   <g id="text_27">
    <!-- Maximum Savings -->
    <g transform="translate(252.02875 430.027187) scale(0.22 -0.22)">
     <defs>
      <path id="DejaVuSans-4d" d="M 628 4666 
L 1569 4666 
L 2759 1491 
L 3956 4666 
L 4897 4666 
L 4897 0 
L 4281 0 
L 4281 4097 
L 3078 897 
L 2444 897 
L 1241 4097 
L 1241 0 
L 628 0 
L 628 4666 
z
" transform="scale(0.015625)"/>
      <path id="DejaVuSans-61" d="M 2194 1759 
Q 1497 1759 1228 1600 
Q 959 1441 959 1056 
Q 959 750 1161 570 
Q 1363 391 1709 391 
Q 2188 391 2477 730 
Q 2766 1069 2766 1631 
L 2766 1759 
L 2194 1759 
z
M 3341 1997 
L 3341 0 
L 2766 0 
L 2766 531 
Q 2569 213 2275 61 
Q 1981 -91 1556 -91 
Q 1019 -91 701 211 
Q 384 513 384 1019 
Q 384 1609 779 1909 
Q 1175 2209 1959 2209 
L 2766 2209 
L 2766 2266 
Q 2766 2663 2505 2880 
Q 2244 3097 1772 3097 
Q 1472 3097 1187 3025 
Q 903 2953 641 2809 
L 641 3341 
Q 956 3463 1253 3523 
Q 1550 3584 1831 3584 
Q 2591 3584 2966 3190 
Q 3341 2797 3341 1997 
z
" transform="scale(0.015625)"/>
      <path id="DejaVuSans-78" d="M 3513 3500 
L 2247 1797 
L 3578 0 
L 2900 0 
L 1881 1375 
L 863 0 
L 184 0 
L 1544 1831 
L 300 3500 
L 978 3500 
L 1906 2253 
L 2834 3500 
L 3513 3500 
z
" transform="scale(0.015625)"/>
      <path id="DejaVuSans-75" d="M 544 1381 
L 544 3500 
L 1119 3500 
L 1119 1403 
Q 1119 906 1312 657 
Q 1506 409 1894 409 
Q 2359 409 2629 706 
Q 2900 1003 2900 1516 
L 2900 3500 
L 3475 3500 
L 3475 0 
L 2900 0 
L 2900 538 
Q 2691 219 2414 64 
Q 2138 -91 1772 -91 
Q 1169 -91 856 284 
Q 544 659 544 1381 
z
M 1991 3584 
L 1991 3584 
z
" transform="scale(0.015625)"/>
      <path id="DejaVuSans-53" d="M 3425 4513 
L 3425 3897 
Q 3066 4069 2747 4153 
Q 2428 4238 2131 4238 
Q 1616 4238 1336 4038 
Q 1056 3838 1056 3469 
Q 1056 3159 1242 3001 
Q 1428 2844 1947 2747 
L 2328 2669 
Q 3034 2534 3370 2195 
Q 3706 1856 3706 1288 
Q 3706 609 3251 259 
Q 2797 -91 1919 -91 
Q 1588 -91 1214 -16 
Q 841 59 441 206 
L 441 856 
Q 825 641 1194 531 
Q 1563 422 1919 422 
Q 2459 422 2753 634 
Q 3047 847 3047 1241 
Q 3047 1584 2836 1778 
Q 2625 1972 2144 2069 
L 1759 2144 
Q 1053 2284 737 2584 
Q 422 2884 422 3419 
Q 422 4038 858 4394 
Q 1294 4750 2059 4750 
Q 2388 4750 2728 4690 
Q 3069 4631 3425 4513 
z
" transform="scale(0.015625)"/>
      <path id="DejaVuSans-76" d="M 191 3500 
L 800 3500 
L 1894 563 
L 2988 3500 
L 3597 3500 
L 2284 0 
L 1503 0 
L 191 3500 
z
" transform="scale(0.015625)"/>
      <path id="DejaVuSans-67" d="M 2906 1791 
Q 2906 2416 2648 2759 
Q 2391 3103 1925 3103 
Q 1463 3103 1205 2759 
Q 947 2416 947 1791 
Q 947 1169 1205 825 
Q 1463 481 1925 481 
Q 2391 481 2648 825 
Q 2906 1169 2906 1791 
z
M 3481 434 
Q 3481 -459 3084 -895 
Q 2688 -1331 1869 -1331 
Q 1566 -1331 1297 -1286 
Q 1028 -1241 775 -1147 
L 775 -588 
Q 1028 -725 1275 -790 
Q 1522 -856 1778 -856 
Q 2344 -856 2625 -561 
Q 2906 -266 2906 331 
L 2906 616 
Q 2728 306 2450 153 
Q 2172 0 1784 0 
Q 1141 0 747 490 
Q 353 981 353 1791 
Q 353 2603 747 3093 
Q 1141 3584 1784 3584 
Q 2172 3584 2450 3431 
Q 2728 3278 2906 2969 
L 2906 3500 
L 3481 3500 
L 3481 434 
z
" transform="scale(0.015625)"/>
     </defs>
     <use xlink:href="#DejaVuSans-4d"/>
     <use xlink:href="#DejaVuSans-61" transform="translate(86.279297 0)"/>
     <use xlink:href="#DejaVuSans-78" transform="translate(147.558594 0)"/>
     <use xlink:href="#DejaVuSans-69" transform="translate(206.738281 0)"/>
     <use xlink:href="#DejaVuSans-6d" transform="translate(234.521484 0)"/>
     <use xlink:href="#DejaVuSans-75" transform="translate(331.933594 0)"/>
     <use xlink:href="#DejaVuSans-6d" transform="translate(395.3125 0)"/>
     <use xlink:href="#DejaVuSans-20" transform="translate(492.724609 0)"/>
     <use xlink:href="#DejaVuSans-53" transform="translate(524.511719 0)"/>
     <use xlink:href="#DejaVuSans-61" transform="translate(587.988281 0)"/>
     <use xlink:href="#DejaVuSans-76" transform="translate(649.267578 0)"/>
     <use xlink:href="#DejaVuSans-69" transform="translate(708.447266 0)"/>
     <use xlink:href="#DejaVuSans-6e" transform="translate(736.230469 0)"/>
     <use xlink:href="#DejaVuSans-67" transform="translate(799.609375 0)"/>
     <use xlink:href="#DejaVuSans-73" transform="translate(863.085938 0)"/>
    </g>
   </g>
   <g id="line2d_36">
    <path d="M 190.42875 454.619062 
L 212.42875 454.619062 
L 234.42875 454.619062 
" style="fill: none; stroke: #a9a9a9; stroke-width: 3; stroke-linecap: square"/>
   </g>
   <g id="text_28">
    <!-- 25% Uptime, 0% Power Capacity -->
    <g transform="translate(252.02875 462.319062) scale(0.22 -0.22)">
     <defs>
      <path id="DejaVuSans-25" d="M 4653 2053 
Q 4381 2053 4226 1822 
Q 4072 1591 4072 1178 
Q 4072 772 4226 539 
Q 4381 306 4653 306 
Q 4919 306 5073 539 
Q 5228 772 5228 1178 
Q 5228 1588 5073 1820 
Q 4919 2053 4653 2053 
z
M 4653 2450 
Q 5147 2450 5437 2106 
Q 5728 1763 5728 1178 
Q 5728 594 5436 251 
Q 5144 -91 4653 -91 
Q 4153 -91 3862 251 
Q 3572 594 3572 1178 
Q 3572 1766 3864 2108 
Q 4156 2450 4653 2450 
z
M 1428 4353 
Q 1159 4353 1004 4120 
Q 850 3888 850 3481 
Q 850 3069 1003 2837 
Q 1156 2606 1428 2606 
Q 1700 2606 1854 2837 
Q 2009 3069 2009 3481 
Q 2009 3884 1853 4118 
Q 1697 4353 1428 4353 
z
M 4250 4750 
L 4750 4750 
L 1831 -91 
L 1331 -91 
L 4250 4750 
z
M 1428 4750 
Q 1922 4750 2215 4408 
Q 2509 4066 2509 3481 
Q 2509 2891 2217 2550 
Q 1925 2209 1428 2209 
Q 931 2209 642 2551 
Q 353 2894 353 3481 
Q 353 4063 643 4406 
Q 934 4750 1428 4750 
z
" transform="scale(0.015625)"/>
      <path id="DejaVuSans-55" d="M 556 4666 
L 1191 4666 
L 1191 1831 
Q 1191 1081 1462 751 
Q 1734 422 2344 422 
Q 2950 422 3222 751 
Q 3494 1081 3494 1831 
L 3494 4666 
L 4128 4666 
L 4128 1753 
Q 4128 841 3676 375 
Q 3225 -91 2344 -91 
Q 1459 -91 1007 375 
Q 556 841 556 1753 
L 556 4666 
z
" transform="scale(0.015625)"/>
      <path id="DejaVuSans-70" d="M 1159 525 
L 1159 -1331 
L 581 -1331 
L 581 3500 
L 1159 3500 
L 1159 2969 
Q 1341 3281 1617 3432 
Q 1894 3584 2278 3584 
Q 2916 3584 3314 3078 
Q 3713 2572 3713 1747 
Q 3713 922 3314 415 
Q 2916 -91 2278 -91 
Q 1894 -91 1617 61 
Q 1341 213 1159 525 
z
M 3116 1747 
Q 3116 2381 2855 2742 
Q 2594 3103 2138 3103 
Q 1681 3103 1420 2742 
Q 1159 2381 1159 1747 
Q 1159 1113 1420 752 
Q 1681 391 2138 391 
Q 2594 391 2855 752 
Q 3116 1113 3116 1747 
z
" transform="scale(0.015625)"/>
      <path id="DejaVuSans-2c" d="M 750 794 
L 1409 794 
L 1409 256 
L 897 -744 
L 494 -744 
L 750 256 
L 750 794 
z
" transform="scale(0.015625)"/>
      <path id="DejaVuSans-50" d="M 1259 4147 
L 1259 2394 
L 2053 2394 
Q 2494 2394 2734 2622 
Q 2975 2850 2975 3272 
Q 2975 3691 2734 3919 
Q 2494 4147 2053 4147 
L 1259 4147 
z
M 628 4666 
L 2053 4666 
Q 2838 4666 3239 4311 
Q 3641 3956 3641 3272 
Q 3641 2581 3239 2228 
Q 2838 1875 2053 1875 
L 1259 1875 
L 1259 0 
L 628 0 
L 628 4666 
z
" transform="scale(0.015625)"/>
      <path id="DejaVuSans-77" d="M 269 3500 
L 844 3500 
L 1563 769 
L 2278 3500 
L 2956 3500 
L 3675 769 
L 4391 3500 
L 4966 3500 
L 4050 0 
L 3372 0 
L 2619 2869 
L 1863 0 
L 1184 0 
L 269 3500 
z
" transform="scale(0.015625)"/>
     </defs>
     <use xlink:href="#DejaVuSans-32"/>
     <use xlink:href="#DejaVuSans-35" transform="translate(63.623047 0)"/>
     <use xlink:href="#DejaVuSans-25" transform="translate(127.246094 0)"/>
     <use xlink:href="#DejaVuSans-20" transform="translate(222.265625 0)"/>
     <use xlink:href="#DejaVuSans-55" transform="translate(254.052734 0)"/>
     <use xlink:href="#DejaVuSans-70" transform="translate(327.246094 0)"/>
     <use xlink:href="#DejaVuSans-74" transform="translate(390.722656 0)"/>
     <use xlink:href="#DejaVuSans-69" transform="translate(429.931641 0)"/>
     <use xlink:href="#DejaVuSans-6d" transform="translate(457.714844 0)"/>
     <use xlink:href="#DejaVuSans-65" transform="translate(555.126953 0)"/>
     <use xlink:href="#DejaVuSans-2c" transform="translate(616.650391 0)"/>
     <use xlink:href="#DejaVuSans-20" transform="translate(648.4375 0)"/>
     <use xlink:href="#DejaVuSans-30" transform="translate(680.224609 0)"/>
     <use xlink:href="#DejaVuSans-25" transform="translate(743.847656 0)"/>
     <use xlink:href="#DejaVuSans-20" transform="translate(838.867188 0)"/>
     <use xlink:href="#DejaVuSans-50" transform="translate(870.654297 0)"/>
     <use xlink:href="#DejaVuSans-6f" transform="translate(927.332031 0)"/>
     <use xlink:href="#DejaVuSans-77" transform="translate(988.513672 0)"/>
     <use xlink:href="#DejaVuSans-65" transform="translate(1070.300781 0)"/>
     <use xlink:href="#DejaVuSans-72" transform="translate(1131.824219 0)"/>
     <use xlink:href="#DejaVuSans-20" transform="translate(1172.9375 0)"/>
     <use xlink:href="#DejaVuSans-43" transform="translate(1204.724609 0)"/>
     <use xlink:href="#DejaVuSans-61" transform="translate(1274.548828 0)"/>
     <use xlink:href="#DejaVuSans-70" transform="translate(1335.828125 0)"/>
     <use xlink:href="#DejaVuSans-61" transform="translate(1399.304688 0)"/>
     <use xlink:href="#DejaVuSans-63" transform="translate(1460.583984 0)"/>
     <use xlink:href="#DejaVuSans-69" transform="translate(1515.564453 0)"/>
     <use xlink:href="#DejaVuSans-74" transform="translate(1543.347656 0)"/>
     <use xlink:href="#DejaVuSans-79" transform="translate(1582.556641 0)"/>
    </g>
   </g>
   <g id="line2d_37">
    <path d="M 190.42875 486.910937 
L 212.42875 486.910937 
L 234.42875 486.910937 
" style="fill: none; stroke: #ffd700; stroke-width: 3; stroke-linecap: square"/>
   </g>
   <g id="text_29">
    <!-- 50% Uptime, 50% Power Capacity -->
    <g transform="translate(252.02875 494.610937) scale(0.22 -0.22)">
     <use xlink:href="#DejaVuSans-35"/>
     <use xlink:href="#DejaVuSans-30" transform="translate(63.623047 0)"/>
     <use xlink:href="#DejaVuSans-25" transform="translate(127.246094 0)"/>
     <use xlink:href="#DejaVuSans-20" transform="translate(222.265625 0)"/>
     <use xlink:href="#DejaVuSans-55" transform="translate(254.052734 0)"/>
     <use xlink:href="#DejaVuSans-70" transform="translate(327.246094 0)"/>
     <use xlink:href="#DejaVuSans-74" transform="translate(390.722656 0)"/>
     <use xlink:href="#DejaVuSans-69" transform="translate(429.931641 0)"/>
     <use xlink:href="#DejaVuSans-6d" transform="translate(457.714844 0)"/>
     <use xlink:href="#DejaVuSans-65" transform="translate(555.126953 0)"/>
     <use xlink:href="#DejaVuSans-2c" transform="translate(616.650391 0)"/>
     <use xlink:href="#DejaVuSans-20" transform="translate(648.4375 0)"/>
     <use xlink:href="#DejaVuSans-35" transform="translate(680.224609 0)"/>
     <use xlink:href="#DejaVuSans-30" transform="translate(743.847656 0)"/>
     <use xlink:href="#DejaVuSans-25" transform="translate(807.470703 0)"/>
     <use xlink:href="#DejaVuSans-20" transform="translate(902.490234 0)"/>
     <use xlink:href="#DejaVuSans-50" transform="translate(934.277344 0)"/>
     <use xlink:href="#DejaVuSans-6f" transform="translate(990.955078 0)"/>
     <use xlink:href="#DejaVuSans-77" transform="translate(1052.136719 0)"/>
     <use xlink:href="#DejaVuSans-65" transform="translate(1133.923828 0)"/>
     <use xlink:href="#DejaVuSans-72" transform="translate(1195.447266 0)"/>
     <use xlink:href="#DejaVuSans-20" transform="translate(1236.560547 0)"/>
     <use xlink:href="#DejaVuSans-43" transform="translate(1268.347656 0)"/>
     <use xlink:href="#DejaVuSans-61" transform="translate(1338.171875 0)"/>
     <use xlink:href="#DejaVuSans-70" transform="translate(1399.451172 0)"/>
     <use xlink:href="#DejaVuSans-61" transform="translate(1462.927734 0)"/>
     <use xlink:href="#DejaVuSans-63" transform="translate(1524.207031 0)"/>
     <use xlink:href="#DejaVuSans-69" transform="translate(1579.1875 0)"/>
     <use xlink:href="#DejaVuSans-74" transform="translate(1606.970703 0)"/>
     <use xlink:href="#DejaVuSans-79" transform="translate(1646.179688 0)"/>
    </g>
   </g>
   <g id="line2d_38">
    <path d="M 190.42875 519.202812 
L 212.42875 519.202812 
L 234.42875 519.202812 
" style="fill: none; stroke: #008080; stroke-width: 3; stroke-linecap: square"/>
   </g>
   <g id="text_30">
    <!-- 100% Uptime, 25% Power Capacity -->
    <g transform="translate(252.02875 526.902812) scale(0.22 -0.22)">
     <use xlink:href="#DejaVuSans-31"/>
     <use xlink:href="#DejaVuSans-30" transform="translate(63.623047 0)"/>
     <use xlink:href="#DejaVuSans-30" transform="translate(127.246094 0)"/>
     <use xlink:href="#DejaVuSans-25" transform="translate(190.869141 0)"/>
     <use xlink:href="#DejaVuSans-20" transform="translate(285.888672 0)"/>
     <use xlink:href="#DejaVuSans-55" transform="translate(317.675781 0)"/>
     <use xlink:href="#DejaVuSans-70" transform="translate(390.869141 0)"/>
     <use xlink:href="#DejaVuSans-74" transform="translate(454.345703 0)"/>
     <use xlink:href="#DejaVuSans-69" transform="translate(493.554688 0)"/>
     <use xlink:href="#DejaVuSans-6d" transform="translate(521.337891 0)"/>
     <use xlink:href="#DejaVuSans-65" transform="translate(618.75 0)"/>
     <use xlink:href="#DejaVuSans-2c" transform="translate(680.273438 0)"/>
     <use xlink:href="#DejaVuSans-20" transform="translate(712.060547 0)"/>
     <use xlink:href="#DejaVuSans-32" transform="translate(743.847656 0)"/>
     <use xlink:href="#DejaVuSans-35" transform="translate(807.470703 0)"/>
     <use xlink:href="#DejaVuSans-25" transform="translate(871.09375 0)"/>
     <use xlink:href="#DejaVuSans-20" transform="translate(966.113281 0)"/>
     <use xlink:href="#DejaVuSans-50" transform="translate(997.900391 0)"/>
     <use xlink:href="#DejaVuSans-6f" transform="translate(1054.578125 0)"/>
     <use xlink:href="#DejaVuSans-77" transform="translate(1115.759766 0)"/>
     <use xlink:href="#DejaVuSans-65" transform="translate(1197.546875 0)"/>
     <use xlink:href="#DejaVuSans-72" transform="translate(1259.070312 0)"/>
     <use xlink:href="#DejaVuSans-20" transform="translate(1300.183594 0)"/>
     <use xlink:href="#DejaVuSans-43" transform="translate(1331.970703 0)"/>
     <use xlink:href="#DejaVuSans-61" transform="translate(1401.794922 0)"/>
     <use xlink:href="#DejaVuSans-70" transform="translate(1463.074219 0)"/>
     <use xlink:href="#DejaVuSans-61" transform="translate(1526.550781 0)"/>
     <use xlink:href="#DejaVuSans-63" transform="translate(1587.830078 0)"/>
     <use xlink:href="#DejaVuSans-69" transform="translate(1642.810547 0)"/>
     <use xlink:href="#DejaVuSans-74" transform="translate(1670.59375 0)"/>
     <use xlink:href="#DejaVuSans-79" transform="translate(1709.802734 0)"/>
    </g>
   </g>
  </g>
 </g>
 <defs>
  <clipPath id="p8668258d46">
   <rect x="94.57875" y="16.318125" width="288.27" height="307.836"/>
  </clipPath>
  <clipPath id="p21b52bdb2a">
   <rect x="511.18875" y="16.318125" width="288.27" height="307.836"/>
  </clipPath>
 </defs>
</svg>
