<?xml version="1.0" encoding="utf-8" standalone="no"?>
<!DOCTYPE svg PUBLIC "-//W3C//DTD SVG 1.1//EN"
  "http://www.w3.org/Graphics/SVG/1.1/DTD/svg11.dtd">
<svg xmlns:xlink="http://www.w3.org/1999/xlink" width="823.656pt" height="547.478125pt" viewBox="0 0 823.656 547.478125" xmlns="http://www.w3.org/2000/svg" version="1.1">
 <metadata>
  <rdf:RDF xmlns:dc="http://purl.org/dc/elements/1.1/" xmlns:cc="http://creativecommons.org/ns#" xmlns:rdf="http://www.w3.org/1999/02/22-rdf-syntax-ns#">
   <cc:Work>
    <dc:type rdf:resource="http://purl.org/dc/dcmitype/StillImage"/>
    <dc:date>2025-07-09T15:27:52.741178</dc:date>
    <dc:format>image/svg+xml</dc:format>
    <dc:creator>
     <cc:Agent>
      <dc:title>Matplotlib v3.10.3, https://matplotlib.org/</dc:title>
     </cc:Agent>
    </dc:creator>
   </cc:Work>
  </rdf:RDF>
 </metadata>
 <defs>
  <style type="text/css">*{stroke-linejoin: round; stroke-linecap: butt}</style>
 </defs>
 <g id="figure_1">
  <g id="patch_1">
   <path d="M 0 547.478125 
L 823.656 547.478125 
L 823.656 -0 
L 0 -0 
z
" style="fill: #ffffff"/>
  </g>
  <g id="axes_1">
   <g id="patch_2">
    <path d="M 97.365 326.098125 
L 378.381 326.098125 
L 378.381 16.318125 
L 97.365 16.318125 
z
" style="fill: #ffffff"/>
   </g>
   <g id="FillBetweenPolyCollection_1">
    <defs>
     <path id="m8df503338e" d="M 149.982414 -499.914041 
L 149.982414 -499.914041 
L 153.036134 -386.397304 
L 153.036134 -386.397304 
L 153.036134 -386.397304 
L 149.982414 -499.914041 
z
" style="stroke: #ff6347; stroke-opacity: 0.2"/>
    </defs>
    <g clip-path="url(#pc348bb5eb7)">
     <use xlink:href="#m8df503338e" x="0" y="547.478125" style="fill: #ff6347; fill-opacity: 0.2; stroke: #ff6347; stroke-opacity: 0.2"/>
    </g>
   </g>
   <g id="FillBetweenPolyCollection_2">
    <defs>
     <path id="m166d951c22" d="M 157.562995 -468.242686 
L 157.562995 -468.242686 
L 163.995404 -431.160858 
L 189.451207 -391.993852 
L 201.752764 -378.1872 
L 226.692573 -359.291073 
L 252.851013 -343.725373 
L 271.426689 -334.408769 
L 303.650493 -324.077661 
L 303.650493 -324.077661 
L 303.650493 -324.077661 
L 271.426689 -334.408769 
L 252.851013 -343.725373 
L 226.692573 -359.291073 
L 201.752764 -378.1872 
L 189.451207 -391.993852 
L 163.995404 -431.160858 
L 157.562995 -468.242686 
z
" style="stroke: #a9a9a9; stroke-opacity: 0.2"/>
    </defs>
    <g clip-path="url(#pc348bb5eb7)">
     <use xlink:href="#m166d951c22" x="0" y="547.478125" style="fill: #a9a9a9; fill-opacity: 0.2; stroke: #a9a9a9; stroke-opacity: 0.2"/>
    </g>
   </g>
   <g id="FillBetweenPolyCollection_3">
    <path d="M 204.002547 157.008892 
L 204.002547 157.008892 
L 204.002547 157.008892 
L 204.002547 157.008892 
z
" clip-path="url(#pc348bb5eb7)" style="fill: #ffd700; fill-opacity: 0.2; stroke: #ffd700; stroke-opacity: 0.2"/>
    <path d="M 273.086658 205.01831 
L 273.086658 205.01831 
L 274.685736 205.354072 
L 287.527707 207.156577 
L 290.461075 207.469557 
L 290.461075 207.469557 
L 290.461075 207.469557 
L 287.527707 207.156577 
L 274.685736 205.354072 
L 273.086658 205.01831 
z
" clip-path="url(#pc348bb5eb7)" style="fill: #ffd700; fill-opacity: 0.2; stroke: #ffd700; stroke-opacity: 0.2"/>
   </g>
   <g id="FillBetweenPolyCollection_4">
    <path d="M 212.42452 102.150184 
L 212.42452 102.150184 
L 213.349906 104.72404 
L 219.568942 118.088057 
L 219.568942 118.088057 
L 219.568942 118.088057 
L 213.349906 104.72404 
L 212.42452 102.150184 
z
" clip-path="url(#pc348bb5eb7)" style="fill: #008080; fill-opacity: 0.2; stroke: #008080; stroke-opacity: 0.2"/>
    <path d="M 239.682784 147.607306 
L 239.682784 147.607306 
L 242.135232 150.129593 
L 251.957568 158.576268 
L 251.957568 158.576268 
L 251.957568 158.576268 
L 242.135232 150.129593 
L 239.682784 147.607306 
z
" clip-path="url(#pc348bb5eb7)" style="fill: #008080; fill-opacity: 0.2; stroke: #008080; stroke-opacity: 0.2"/>
   </g>
   <g id="matplotlib.axis_1">
    <g id="xtick_1">
     <g id="line2d_1">
      <defs>
       <path id="m6bb3464713" d="M 0 0 
L 0 6 
" style="stroke: #000000; stroke-width: 1.5"/>
      </defs>
      <g>
       <use xlink:href="#m6bb3464713" x="97.365" y="326.098125" style="stroke: #000000; stroke-width: 1.5"/>
      </g>
     </g>
     <g id="text_1">
      <!-- −20 -->
      <g transform="translate(72.039375 353.834375) scale(0.24 -0.24)">
       <defs>
        <path id="DejaVuSans-2212" d="M 678 2272 
L 4684 2272 
L 4684 1741 
L 678 1741 
L 678 2272 
z
" transform="scale(0.015625)"/>
        <path id="DejaVuSans-32" d="M 1228 531 
L 3431 531 
L 3431 0 
L 469 0 
L 469 531 
Q 828 903 1448 1529 
Q 2069 2156 2228 2338 
Q 2531 2678 2651 2914 
Q 2772 3150 2772 3378 
Q 2772 3750 2511 3984 
Q 2250 4219 1831 4219 
Q 1534 4219 1204 4116 
Q 875 4013 500 3803 
L 500 4441 
Q 881 4594 1212 4672 
Q 1544 4750 1819 4750 
Q 2544 4750 2975 4387 
Q 3406 4025 3406 3419 
Q 3406 3131 3298 2873 
Q 3191 2616 2906 2266 
Q 2828 2175 2409 1742 
Q 1991 1309 1228 531 
z
" transform="scale(0.015625)"/>
        <path id="DejaVuSans-30" d="M 2034 4250 
Q 1547 4250 1301 3770 
Q 1056 3291 1056 2328 
Q 1056 1369 1301 889 
Q 1547 409 2034 409 
Q 2525 409 2770 889 
Q 3016 1369 3016 2328 
Q 3016 3291 2770 3770 
Q 2525 4250 2034 4250 
z
M 2034 4750 
Q 2819 4750 3233 4129 
Q 3647 3509 3647 2328 
Q 3647 1150 3233 529 
Q 2819 -91 2034 -91 
Q 1250 -91 836 529 
Q 422 1150 422 2328 
Q 422 3509 836 4129 
Q 1250 4750 2034 4750 
z
" transform="scale(0.015625)"/>
       </defs>
       <use xlink:href="#DejaVuSans-2212"/>
       <use xlink:href="#DejaVuSans-32" transform="translate(83.789062 0)"/>
       <use xlink:href="#DejaVuSans-30" transform="translate(147.412109 0)"/>
      </g>
     </g>
    </g>
    <g id="xtick_2">
     <g id="line2d_2">
      <g>
       <use xlink:href="#m6bb3464713" x="191.037" y="326.098125" style="stroke: #000000; stroke-width: 1.5"/>
      </g>
     </g>
     <g id="text_2">
      <!-- 0 -->
      <g transform="translate(183.402 353.834375) scale(0.24 -0.24)">
       <use xlink:href="#DejaVuSans-30"/>
      </g>
     </g>
    </g>
    <g id="xtick_3">
     <g id="line2d_3">
      <g>
       <use xlink:href="#m6bb3464713" x="284.709" y="326.098125" style="stroke: #000000; stroke-width: 1.5"/>
      </g>
     </g>
     <g id="text_3">
      <!-- 20 -->
      <g transform="translate(269.439 353.834375) scale(0.24 -0.24)">
       <use xlink:href="#DejaVuSans-32"/>
       <use xlink:href="#DejaVuSans-30" transform="translate(63.623047 0)"/>
      </g>
     </g>
    </g>
    <g id="xtick_4">
     <g id="line2d_4">
      <g>
       <use xlink:href="#m6bb3464713" x="378.381" y="326.098125" style="stroke: #000000; stroke-width: 1.5"/>
      </g>
     </g>
     <g id="text_4">
      <!-- 40 -->
      <g transform="translate(363.111 353.834375) scale(0.24 -0.24)">
       <defs>
        <path id="DejaVuSans-34" d="M 2419 4116 
L 825 1625 
L 2419 1625 
L 2419 4116 
z
M 2253 4666 
L 3047 4666 
L 3047 1625 
L 3713 1625 
L 3713 1100 
L 3047 1100 
L 3047 0 
L 2419 0 
L 2419 1100 
L 313 1100 
L 313 1709 
L 2253 4666 
z
" transform="scale(0.015625)"/>
       </defs>
       <use xlink:href="#DejaVuSans-34"/>
       <use xlink:href="#DejaVuSans-30" transform="translate(63.623047 0)"/>
      </g>
     </g>
    </g>
    <g id="text_5">
     <!-- Electricity Cost ($) -->
     <g transform="translate(126.961125 381.061875) scale(0.24 -0.24)">
      <defs>
       <path id="DejaVuSans-45" d="M 628 4666 
L 3578 4666 
L 3578 4134 
L 1259 4134 
L 1259 2753 
L 3481 2753 
L 3481 2222 
L 1259 2222 
L 1259 531 
L 3634 531 
L 3634 0 
L 628 0 
L 628 4666 
z
" transform="scale(0.015625)"/>
       <path id="DejaVuSans-6c" d="M 603 4863 
L 1178 4863 
L 1178 0 
L 603 0 
L 603 4863 
z
" transform="scale(0.015625)"/>
       <path id="DejaVuSans-65" d="M 3597 1894 
L 3597 1613 
L 953 1613 
Q 991 1019 1311 708 
Q 1631 397 2203 397 
Q 2534 397 2845 478 
Q 3156 559 3463 722 
L 3463 178 
Q 3153 47 2828 -22 
Q 2503 -91 2169 -91 
Q 1331 -91 842 396 
Q 353 884 353 1716 
Q 353 2575 817 3079 
Q 1281 3584 2069 3584 
Q 2775 3584 3186 3129 
Q 3597 2675 3597 1894 
z
M 3022 2063 
Q 3016 2534 2758 2815 
Q 2500 3097 2075 3097 
Q 1594 3097 1305 2825 
Q 1016 2553 972 2059 
L 3022 2063 
z
" transform="scale(0.015625)"/>
       <path id="DejaVuSans-63" d="M 3122 3366 
L 3122 2828 
Q 2878 2963 2633 3030 
Q 2388 3097 2138 3097 
Q 1578 3097 1268 2742 
Q 959 2388 959 1747 
Q 959 1106 1268 751 
Q 1578 397 2138 397 
Q 2388 397 2633 464 
Q 2878 531 3122 666 
L 3122 134 
Q 2881 22 2623 -34 
Q 2366 -91 2075 -91 
Q 1284 -91 818 406 
Q 353 903 353 1747 
Q 353 2603 823 3093 
Q 1294 3584 2113 3584 
Q 2378 3584 2631 3529 
Q 2884 3475 3122 3366 
z
" transform="scale(0.015625)"/>
       <path id="DejaVuSans-74" d="M 1172 4494 
L 1172 3500 
L 2356 3500 
L 2356 3053 
L 1172 3053 
L 1172 1153 
Q 1172 725 1289 603 
Q 1406 481 1766 481 
L 2356 481 
L 2356 0 
L 1766 0 
Q 1100 0 847 248 
Q 594 497 594 1153 
L 594 3053 
L 172 3053 
L 172 3500 
L 594 3500 
L 594 4494 
L 1172 4494 
z
" transform="scale(0.015625)"/>
       <path id="DejaVuSans-72" d="M 2631 2963 
Q 2534 3019 2420 3045 
Q 2306 3072 2169 3072 
Q 1681 3072 1420 2755 
Q 1159 2438 1159 1844 
L 1159 0 
L 581 0 
L 581 3500 
L 1159 3500 
L 1159 2956 
Q 1341 3275 1631 3429 
Q 1922 3584 2338 3584 
Q 2397 3584 2469 3576 
Q 2541 3569 2628 3553 
L 2631 2963 
z
" transform="scale(0.015625)"/>
       <path id="DejaVuSans-69" d="M 603 3500 
L 1178 3500 
L 1178 0 
L 603 0 
L 603 3500 
z
M 603 4863 
L 1178 4863 
L 1178 4134 
L 603 4134 
L 603 4863 
z
" transform="scale(0.015625)"/>
       <path id="DejaVuSans-79" d="M 2059 -325 
Q 1816 -950 1584 -1140 
Q 1353 -1331 966 -1331 
L 506 -1331 
L 506 -850 
L 844 -850 
Q 1081 -850 1212 -737 
Q 1344 -625 1503 -206 
L 1606 56 
L 191 3500 
L 800 3500 
L 1894 763 
L 2988 3500 
L 3597 3500 
L 2059 -325 
z
" transform="scale(0.015625)"/>
       <path id="DejaVuSans-20" transform="scale(0.015625)"/>
       <path id="DejaVuSans-43" d="M 4122 4306 
L 4122 3641 
Q 3803 3938 3442 4084 
Q 3081 4231 2675 4231 
Q 1875 4231 1450 3742 
Q 1025 3253 1025 2328 
Q 1025 1406 1450 917 
Q 1875 428 2675 428 
Q 3081 428 3442 575 
Q 3803 722 4122 1019 
L 4122 359 
Q 3791 134 3420 21 
Q 3050 -91 2638 -91 
Q 1578 -91 968 557 
Q 359 1206 359 2328 
Q 359 3453 968 4101 
Q 1578 4750 2638 4750 
Q 3056 4750 3426 4639 
Q 3797 4528 4122 4306 
z
" transform="scale(0.015625)"/>
       <path id="DejaVuSans-6f" d="M 1959 3097 
Q 1497 3097 1228 2736 
Q 959 2375 959 1747 
Q 959 1119 1226 758 
Q 1494 397 1959 397 
Q 2419 397 2687 759 
Q 2956 1122 2956 1747 
Q 2956 2369 2687 2733 
Q 2419 3097 1959 3097 
z
M 1959 3584 
Q 2709 3584 3137 3096 
Q 3566 2609 3566 1747 
Q 3566 888 3137 398 
Q 2709 -91 1959 -91 
Q 1206 -91 779 398 
Q 353 888 353 1747 
Q 353 2609 779 3096 
Q 1206 3584 1959 3584 
z
" transform="scale(0.015625)"/>
       <path id="DejaVuSans-73" d="M 2834 3397 
L 2834 2853 
Q 2591 2978 2328 3040 
Q 2066 3103 1784 3103 
Q 1356 3103 1142 2972 
Q 928 2841 928 2578 
Q 928 2378 1081 2264 
Q 1234 2150 1697 2047 
L 1894 2003 
Q 2506 1872 2764 1633 
Q 3022 1394 3022 966 
Q 3022 478 2636 193 
Q 2250 -91 1575 -91 
Q 1294 -91 989 -36 
Q 684 19 347 128 
L 347 722 
Q 666 556 975 473 
Q 1284 391 1588 391 
Q 1994 391 2212 530 
Q 2431 669 2431 922 
Q 2431 1156 2273 1281 
Q 2116 1406 1581 1522 
L 1381 1569 
Q 847 1681 609 1914 
Q 372 2147 372 2553 
Q 372 3047 722 3315 
Q 1072 3584 1716 3584 
Q 2034 3584 2315 3537 
Q 2597 3491 2834 3397 
z
" transform="scale(0.015625)"/>
       <path id="DejaVuSans-28" d="M 1984 4856 
Q 1566 4138 1362 3434 
Q 1159 2731 1159 2009 
Q 1159 1288 1364 580 
Q 1569 -128 1984 -844 
L 1484 -844 
Q 1016 -109 783 600 
Q 550 1309 550 2009 
Q 550 2706 781 3412 
Q 1013 4119 1484 4856 
L 1984 4856 
z
" transform="scale(0.015625)"/>
       <path id="DejaVuSans-24" d="M 2163 -941 
L 1850 -941 
L 1847 0 
Q 1519 6 1191 76 
Q 863 147 531 288 
L 531 850 
Q 850 650 1176 548 
Q 1503 447 1850 444 
L 1850 1869 
Q 1159 1981 845 2250 
Q 531 2519 531 2988 
Q 531 3497 872 3790 
Q 1213 4084 1850 4128 
L 1850 4863 
L 2163 4863 
L 2163 4138 
Q 2453 4125 2725 4076 
Q 2997 4028 3256 3944 
L 3256 3397 
Q 2997 3528 2723 3600 
Q 2450 3672 2163 3684 
L 2163 2350 
Q 2872 2241 3206 1959 
Q 3541 1678 3541 1191 
Q 3541 663 3186 358 
Q 2831 53 2163 6 
L 2163 -941 
z
M 1850 2406 
L 1850 3688 
Q 1488 3647 1297 3481 
Q 1106 3316 1106 3041 
Q 1106 2772 1282 2622 
Q 1459 2472 1850 2406 
z
M 2163 1806 
L 2163 453 
Q 2559 506 2761 678 
Q 2963 850 2963 1131 
Q 2963 1406 2770 1568 
Q 2578 1731 2163 1806 
z
" transform="scale(0.015625)"/>
       <path id="DejaVuSans-29" d="M 513 4856 
L 1013 4856 
Q 1481 4119 1714 3412 
Q 1947 2706 1947 2009 
Q 1947 1309 1714 600 
Q 1481 -109 1013 -844 
L 513 -844 
Q 928 -128 1133 580 
Q 1338 1288 1338 2009 
Q 1338 2731 1133 3434 
Q 928 4138 513 4856 
z
" transform="scale(0.015625)"/>
      </defs>
      <use xlink:href="#DejaVuSans-45"/>
      <use xlink:href="#DejaVuSans-6c" transform="translate(63.183594 0)"/>
      <use xlink:href="#DejaVuSans-65" transform="translate(90.966797 0)"/>
      <use xlink:href="#DejaVuSans-63" transform="translate(152.490234 0)"/>
      <use xlink:href="#DejaVuSans-74" transform="translate(207.470703 0)"/>
      <use xlink:href="#DejaVuSans-72" transform="translate(246.679688 0)"/>
      <use xlink:href="#DejaVuSans-69" transform="translate(287.792969 0)"/>
      <use xlink:href="#DejaVuSans-63" transform="translate(315.576172 0)"/>
      <use xlink:href="#DejaVuSans-69" transform="translate(370.556641 0)"/>
      <use xlink:href="#DejaVuSans-74" transform="translate(398.339844 0)"/>
      <use xlink:href="#DejaVuSans-79" transform="translate(437.548828 0)"/>
      <use xlink:href="#DejaVuSans-20" transform="translate(496.728516 0)"/>
      <use xlink:href="#DejaVuSans-43" transform="translate(528.515625 0)"/>
      <use xlink:href="#DejaVuSans-6f" transform="translate(598.339844 0)"/>
      <use xlink:href="#DejaVuSans-73" transform="translate(659.521484 0)"/>
      <use xlink:href="#DejaVuSans-74" transform="translate(711.621094 0)"/>
      <use xlink:href="#DejaVuSans-20" transform="translate(750.830078 0)"/>
      <use xlink:href="#DejaVuSans-28" transform="translate(782.617188 0)"/>
      <use xlink:href="#DejaVuSans-24" transform="translate(821.630859 0)"/>
      <use xlink:href="#DejaVuSans-29" transform="translate(885.253906 0)"/>
     </g>
    </g>
   </g>
   <g id="matplotlib.axis_2">
    <g id="ytick_1">
     <g id="line2d_5">
      <defs>
       <path id="mced44a64f9" d="M 0 0 
L -6 0 
" style="stroke: #000000; stroke-width: 1.5"/>
      </defs>
      <g>
       <use xlink:href="#mced44a64f9" x="97.365" y="326.098125" style="stroke: #000000; stroke-width: 1.5"/>
      </g>
     </g>
     <g id="text_6">
      <!-- 0.18 -->
      <g transform="translate(34.4275 335.21625) scale(0.24 -0.24)">
       <defs>
        <path id="DejaVuSans-2e" d="M 684 794 
L 1344 794 
L 1344 0 
L 684 0 
L 684 794 
z
" transform="scale(0.015625)"/>
        <path id="DejaVuSans-31" d="M 794 531 
L 1825 531 
L 1825 4091 
L 703 3866 
L 703 4441 
L 1819 4666 
L 2450 4666 
L 2450 531 
L 3481 531 
L 3481 0 
L 794 0 
L 794 531 
z
" transform="scale(0.015625)"/>
        <path id="DejaVuSans-38" d="M 2034 2216 
Q 1584 2216 1326 1975 
Q 1069 1734 1069 1313 
Q 1069 891 1326 650 
Q 1584 409 2034 409 
Q 2484 409 2743 651 
Q 3003 894 3003 1313 
Q 3003 1734 2745 1975 
Q 2488 2216 2034 2216 
z
M 1403 2484 
Q 997 2584 770 2862 
Q 544 3141 544 3541 
Q 544 4100 942 4425 
Q 1341 4750 2034 4750 
Q 2731 4750 3128 4425 
Q 3525 4100 3525 3541 
Q 3525 3141 3298 2862 
Q 3072 2584 2669 2484 
Q 3125 2378 3379 2068 
Q 3634 1759 3634 1313 
Q 3634 634 3220 271 
Q 2806 -91 2034 -91 
Q 1263 -91 848 271 
Q 434 634 434 1313 
Q 434 1759 690 2068 
Q 947 2378 1403 2484 
z
M 1172 3481 
Q 1172 3119 1398 2916 
Q 1625 2713 2034 2713 
Q 2441 2713 2670 2916 
Q 2900 3119 2900 3481 
Q 2900 3844 2670 4047 
Q 2441 4250 2034 4250 
Q 1625 4250 1398 4047 
Q 1172 3844 1172 3481 
z
" transform="scale(0.015625)"/>
       </defs>
       <use xlink:href="#DejaVuSans-30"/>
       <use xlink:href="#DejaVuSans-2e" transform="translate(63.623047 0)"/>
       <use xlink:href="#DejaVuSans-31" transform="translate(95.410156 0)"/>
       <use xlink:href="#DejaVuSans-38" transform="translate(159.033203 0)"/>
      </g>
     </g>
    </g>
    <g id="ytick_2">
     <g id="line2d_6">
      <g>
       <use xlink:href="#mced44a64f9" x="97.365" y="264.142125" style="stroke: #000000; stroke-width: 1.5"/>
      </g>
     </g>
     <g id="text_7">
      <!-- 0.20 -->
      <g transform="translate(34.4275 273.26025) scale(0.24 -0.24)">
       <use xlink:href="#DejaVuSans-30"/>
       <use xlink:href="#DejaVuSans-2e" transform="translate(63.623047 0)"/>
       <use xlink:href="#DejaVuSans-32" transform="translate(95.410156 0)"/>
       <use xlink:href="#DejaVuSans-30" transform="translate(159.033203 0)"/>
      </g>
     </g>
    </g>
    <g id="ytick_3">
     <g id="line2d_7">
      <g>
       <use xlink:href="#mced44a64f9" x="97.365" y="202.186125" style="stroke: #000000; stroke-width: 1.5"/>
      </g>
     </g>
     <g id="text_8">
      <!-- 0.22 -->
      <g transform="translate(34.4275 211.30425) scale(0.24 -0.24)">
       <use xlink:href="#DejaVuSans-30"/>
       <use xlink:href="#DejaVuSans-2e" transform="translate(63.623047 0)"/>
       <use xlink:href="#DejaVuSans-32" transform="translate(95.410156 0)"/>
       <use xlink:href="#DejaVuSans-32" transform="translate(159.033203 0)"/>
      </g>
     </g>
    </g>
    <g id="ytick_4">
     <g id="line2d_8">
      <g>
       <use xlink:href="#mced44a64f9" x="97.365" y="140.230125" style="stroke: #000000; stroke-width: 1.5"/>
      </g>
     </g>
     <g id="text_9">
      <!-- 0.24 -->
      <g transform="translate(34.4275 149.34825) scale(0.24 -0.24)">
       <use xlink:href="#DejaVuSans-30"/>
       <use xlink:href="#DejaVuSans-2e" transform="translate(63.623047 0)"/>
       <use xlink:href="#DejaVuSans-32" transform="translate(95.410156 0)"/>
       <use xlink:href="#DejaVuSans-34" transform="translate(159.033203 0)"/>
      </g>
     </g>
    </g>
    <g id="ytick_5">
     <g id="line2d_9">
      <g>
       <use xlink:href="#mced44a64f9" x="97.365" y="78.274125" style="stroke: #000000; stroke-width: 1.5"/>
      </g>
     </g>
     <g id="text_10">
      <!-- 0.26 -->
      <g transform="translate(34.4275 87.39225) scale(0.24 -0.24)">
       <defs>
        <path id="DejaVuSans-36" d="M 2113 2584 
Q 1688 2584 1439 2293 
Q 1191 2003 1191 1497 
Q 1191 994 1439 701 
Q 1688 409 2113 409 
Q 2538 409 2786 701 
Q 3034 994 3034 1497 
Q 3034 2003 2786 2293 
Q 2538 2584 2113 2584 
z
M 3366 4563 
L 3366 3988 
Q 3128 4100 2886 4159 
Q 2644 4219 2406 4219 
Q 1781 4219 1451 3797 
Q 1122 3375 1075 2522 
Q 1259 2794 1537 2939 
Q 1816 3084 2150 3084 
Q 2853 3084 3261 2657 
Q 3669 2231 3669 1497 
Q 3669 778 3244 343 
Q 2819 -91 2113 -91 
Q 1303 -91 875 529 
Q 447 1150 447 2328 
Q 447 3434 972 4092 
Q 1497 4750 2381 4750 
Q 2619 4750 2861 4703 
Q 3103 4656 3366 4563 
z
" transform="scale(0.015625)"/>
       </defs>
       <use xlink:href="#DejaVuSans-30"/>
       <use xlink:href="#DejaVuSans-2e" transform="translate(63.623047 0)"/>
       <use xlink:href="#DejaVuSans-32" transform="translate(95.410156 0)"/>
       <use xlink:href="#DejaVuSans-36" transform="translate(159.033203 0)"/>
      </g>
     </g>
    </g>
    <g id="ytick_6">
     <g id="line2d_10">
      <g>
       <use xlink:href="#mced44a64f9" x="97.365" y="16.318125" style="stroke: #000000; stroke-width: 1.5"/>
      </g>
     </g>
     <g id="text_11">
      <!-- 0.28 -->
      <g transform="translate(34.4275 25.43625) scale(0.24 -0.24)">
       <use xlink:href="#DejaVuSans-30"/>
       <use xlink:href="#DejaVuSans-2e" transform="translate(63.623047 0)"/>
       <use xlink:href="#DejaVuSans-32" transform="translate(95.410156 0)"/>
       <use xlink:href="#DejaVuSans-38" transform="translate(159.033203 0)"/>
      </g>
     </g>
    </g>
    <g id="text_12">
     <!-- Emissions (tons $CO_2$) -->
     <g transform="translate(25.43625 297.328125) rotate(-90) scale(0.24 -0.24)">
      <defs>
       <path id="DejaVuSans-6d" d="M 3328 2828 
Q 3544 3216 3844 3400 
Q 4144 3584 4550 3584 
Q 5097 3584 5394 3201 
Q 5691 2819 5691 2113 
L 5691 0 
L 5113 0 
L 5113 2094 
Q 5113 2597 4934 2840 
Q 4756 3084 4391 3084 
Q 3944 3084 3684 2787 
Q 3425 2491 3425 1978 
L 3425 0 
L 2847 0 
L 2847 2094 
Q 2847 2600 2669 2842 
Q 2491 3084 2119 3084 
Q 1678 3084 1418 2786 
Q 1159 2488 1159 1978 
L 1159 0 
L 581 0 
L 581 3500 
L 1159 3500 
L 1159 2956 
Q 1356 3278 1631 3431 
Q 1906 3584 2284 3584 
Q 2666 3584 2933 3390 
Q 3200 3197 3328 2828 
z
" transform="scale(0.015625)"/>
       <path id="DejaVuSans-6e" d="M 3513 2113 
L 3513 0 
L 2938 0 
L 2938 2094 
Q 2938 2591 2744 2837 
Q 2550 3084 2163 3084 
Q 1697 3084 1428 2787 
Q 1159 2491 1159 1978 
L 1159 0 
L 581 0 
L 581 3500 
L 1159 3500 
L 1159 2956 
Q 1366 3272 1645 3428 
Q 1925 3584 2291 3584 
Q 2894 3584 3203 3211 
Q 3513 2838 3513 2113 
z
" transform="scale(0.015625)"/>
       <path id="DejaVuSans-Oblique-43" d="M 4447 4306 
L 4319 3641 
Q 4019 3944 3683 4091 
Q 3347 4238 2956 4238 
Q 2422 4238 2017 3981 
Q 1613 3725 1319 3200 
Q 1131 2863 1032 2486 
Q 934 2109 934 1728 
Q 934 1091 1264 756 
Q 1594 422 2222 422 
Q 2656 422 3056 561 
Q 3456 700 3834 978 
L 3688 231 
Q 3316 72 2936 -9 
Q 2556 -91 2175 -91 
Q 1278 -91 773 396 
Q 269 884 269 1753 
Q 269 2309 461 2846 
Q 653 3384 1013 3828 
Q 1394 4300 1883 4525 
Q 2372 4750 3022 4750 
Q 3422 4750 3780 4639 
Q 4138 4528 4447 4306 
z
" transform="scale(0.015625)"/>
       <path id="DejaVuSans-Oblique-4f" d="M 2919 4238 
Q 2400 4238 2003 3986 
Q 1606 3734 1313 3219 
Q 1125 2891 1026 2522 
Q 928 2153 928 1778 
Q 928 1128 1239 775 
Q 1550 422 2119 422 
Q 2631 422 3032 676 
Q 3434 931 3719 1434 
Q 3909 1772 4009 2142 
Q 4109 2513 4109 2881 
Q 4109 3528 3796 3883 
Q 3484 4238 2919 4238 
z
M 2100 -91 
Q 1241 -91 748 418 
Q 256 928 256 1813 
Q 256 2319 448 2847 
Q 641 3375 978 3788 
Q 1375 4272 1862 4511 
Q 2350 4750 2938 4750 
Q 3794 4750 4287 4245 
Q 4781 3741 4781 2869 
Q 4781 2331 4593 1812 
Q 4406 1294 4056 872 
Q 3656 384 3173 146 
Q 2691 -91 2100 -91 
z
" transform="scale(0.015625)"/>
      </defs>
      <use xlink:href="#DejaVuSans-45" transform="translate(0 0.015625)"/>
      <use xlink:href="#DejaVuSans-6d" transform="translate(63.183594 0.015625)"/>
      <use xlink:href="#DejaVuSans-69" transform="translate(160.595703 0.015625)"/>
      <use xlink:href="#DejaVuSans-73" transform="translate(188.378906 0.015625)"/>
      <use xlink:href="#DejaVuSans-73" transform="translate(240.478516 0.015625)"/>
      <use xlink:href="#DejaVuSans-69" transform="translate(292.578125 0.015625)"/>
      <use xlink:href="#DejaVuSans-6f" transform="translate(320.361328 0.015625)"/>
      <use xlink:href="#DejaVuSans-6e" transform="translate(381.542969 0.015625)"/>
      <use xlink:href="#DejaVuSans-73" transform="translate(444.921875 0.015625)"/>
      <use xlink:href="#DejaVuSans-20" transform="translate(497.021484 0.015625)"/>
      <use xlink:href="#DejaVuSans-28" transform="translate(528.808594 0.015625)"/>
      <use xlink:href="#DejaVuSans-74" transform="translate(567.822266 0.015625)"/>
      <use xlink:href="#DejaVuSans-6f" transform="translate(607.03125 0.015625)"/>
      <use xlink:href="#DejaVuSans-6e" transform="translate(668.212891 0.015625)"/>
      <use xlink:href="#DejaVuSans-73" transform="translate(731.591797 0.015625)"/>
      <use xlink:href="#DejaVuSans-20" transform="translate(783.691406 0.015625)"/>
      <use xlink:href="#DejaVuSans-Oblique-43" transform="translate(815.478516 0.015625)"/>
      <use xlink:href="#DejaVuSans-Oblique-4f" transform="translate(885.302734 0.015625)"/>
      <use xlink:href="#DejaVuSans-32" transform="translate(964.013672 -16.390625) scale(0.7)"/>
      <use xlink:href="#DejaVuSans-29" transform="translate(1011.28418 0.015625)"/>
     </g>
    </g>
   </g>
   <g id="line2d_11">
    <path d="M 149.982414 47.564084 
L 153.036134 161.080821 
L 302.717236 282.566119 
" clip-path="url(#pc348bb5eb7)" style="fill: none; stroke: #ff6347; stroke-width: 3; stroke-linecap: square"/>
   </g>
   <g id="line2d_12">
    <path d="M 157.562995 79.235439 
L 163.995404 116.317267 
L 189.451207 155.484273 
L 201.752764 169.290925 
L 226.692573 188.187052 
L 252.851013 203.752752 
L 271.426689 213.069356 
L 303.650493 223.400464 
L 323.117674 224.9888 
" clip-path="url(#pc348bb5eb7)" style="fill: none; stroke: #a9a9a9; stroke-width: 3; stroke-linecap: square"/>
   </g>
   <g id="line2d_13">
    <path d="M 169.545485 69.063539 
L 171.344559 93.525491 
L 172.489764 97.366895 
L 179.351708 116.216879 
L 184.570032 127.58564 
L 204.002547 157.008892 
L 208.402604 161.523164 
L 225.457657 176.016906 
L 228.834976 178.755396 
L 241.033217 187.479238 
L 244.565112 189.812115 
L 259.573671 198.202631 
L 263.420413 200.31221 
L 273.086658 205.01831 
L 274.685736 205.354072 
L 287.527707 207.156577 
L 290.461075 207.469557 
L 292.072489 207.584421 
" clip-path="url(#pc348bb5eb7)" style="fill: none; stroke: #ffd700; stroke-width: 3; stroke-linecap: square"/>
   </g>
   <g id="line2d_14">
    <path d="M 210.757934 76.507816 
L 211.091743 87.994611 
L 212.42452 102.150184 
L 213.349906 104.72404 
L 219.568942 118.088057 
L 227.801794 130.619556 
L 239.682784 147.607306 
L 242.135232 150.129593 
L 251.957568 158.576268 
L 260.757669 159.515208 
" clip-path="url(#pc348bb5eb7)" style="fill: none; stroke: #008080; stroke-width: 3; stroke-linecap: square"/>
   </g>
   <g id="patch_3">
    <path d="M 97.365 326.098125 
L 97.365 16.318125 
" style="fill: none; stroke: #000000; stroke-width: 2; stroke-linejoin: miter; stroke-linecap: square"/>
   </g>
   <g id="patch_4">
    <path d="M 378.381 326.098125 
L 378.381 16.318125 
" style="fill: none; stroke: #000000; stroke-width: 2; stroke-linejoin: miter; stroke-linecap: square"/>
   </g>
   <g id="patch_5">
    <path d="M 97.365 326.098125 
L 378.381 326.098125 
" style="fill: none; stroke: #000000; stroke-width: 2; stroke-linejoin: miter; stroke-linecap: square"/>
   </g>
   <g id="patch_6">
    <path d="M 97.365 16.318125 
L 378.381 16.318125 
" style="fill: none; stroke: #000000; stroke-width: 2; stroke-linejoin: miter; stroke-linecap: square"/>
   </g>
  </g>
  <g id="axes_2">
   <g id="patch_7">
    <path d="M 512.535 326.098125 
L 793.551 326.098125 
L 793.551 16.318125 
L 512.535 16.318125 
z
" style="fill: #ffffff"/>
   </g>
   <g id="FillBetweenPolyCollection_5">
    <path d="M 549.732213 132.589926 
L 549.732213 132.589926 
L 549.732213 132.589926 
L 549.732213 132.589926 
z
" clip-path="url(#p75db7176a8)" style="fill: #ff6347; fill-opacity: 0.2; stroke: #ff6347; stroke-opacity: 0.2"/>
    <path d="M 552.100009 168.086916 
L 552.100009 168.086916 
L 552.559226 174.358896 
L 552.559226 174.358896 
L 553.064364 180.304524 
L 553.622675 186.08215 
L 553.622675 186.08215 
L 555.627448 202.592096 
L 556.817782 211.54026 
L 558.166828 221.447205 
L 559.708594 232.449955 
L 565.481787 272.888236 
L 568.371755 283.967054 
L 571.251232 288.640794 
L 571.251232 288.640794 
L 574.458562 291.059043 
L 579.030291 292.586831 
L 579.030291 292.586831 
L 579.030291 292.586831 
L 579.030291 292.586831 
L 579.030291 292.586831 
L 590.185691 295.118858 
L 593.315031 295.792637 
L 596.916724 296.432432 
L 601.106449 296.906152 
L 626.981444 299.757036 
L 637.83329 300.678793 
L 637.83329 300.678793 
L 637.83329 300.678793 
L 626.981444 299.757036 
L 601.106449 296.906152 
L 596.916724 296.432432 
L 593.315031 295.792637 
L 590.185691 295.118858 
L 579.030291 292.586831 
L 579.030291 292.586831 
L 579.030291 292.586831 
L 579.030291 292.586831 
L 579.030291 292.586831 
L 574.458562 291.059043 
L 571.251232 288.640794 
L 571.251232 288.640794 
L 568.371755 283.967054 
L 565.481787 272.888236 
L 559.708594 232.449955 
L 558.166828 221.447205 
L 556.817782 211.54026 
L 555.627448 202.592096 
L 553.622675 186.08215 
L 553.622675 186.08215 
L 553.064364 180.304524 
L 552.559226 174.358896 
L 552.559226 174.358896 
L 552.100009 168.086916 
z
" clip-path="url(#p75db7176a8)" style="fill: #ff6347; fill-opacity: 0.2; stroke: #ff6347; stroke-opacity: 0.2"/>
   </g>
   <g id="FillBetweenPolyCollection_6">
    <path d="M 568.374378 71.973109 
L 568.374378 82.17532 
L 568.407013 82.463774 
L 568.407013 81.964219 
L 568.407013 81.964219 
L 568.374378 71.973109 
z
" clip-path="url(#p75db7176a8)" style="fill: #a9a9a9; fill-opacity: 0.2; stroke: #a9a9a9; stroke-opacity: 0.2"/>
    <path d="M 573.269677 261.470063 
L 573.269677 261.55313 
L 573.269677 261.470063 
L 573.269677 261.470063 
z
" clip-path="url(#p75db7176a8)" style="fill: #a9a9a9; fill-opacity: 0.2; stroke: #a9a9a9; stroke-opacity: 0.2"/>
    <path d="M 574.806272 284.381843 
L 574.806272 284.381843 
L 574.945656 285.599238 
L 574.945656 285.599238 
L 574.945656 285.599238 
L 574.806272 284.381843 
z
" clip-path="url(#p75db7176a8)" style="fill: #a9a9a9; fill-opacity: 0.2; stroke: #a9a9a9; stroke-opacity: 0.2"/>
    <path d="M 574.945656 285.599238 
L 574.945656 285.599238 
L 574.945656 285.599238 
L 574.945656 285.599238 
L 574.945656 285.599238 
L 574.945656 285.599238 
z
" clip-path="url(#p75db7176a8)" style="fill: #a9a9a9; fill-opacity: 0.2; stroke: #a9a9a9; stroke-opacity: 0.2"/>
    <path d="M 574.945656 285.599238 
L 574.945656 285.599238 
L 574.945656 285.599238 
L 574.945656 285.599238 
z
" clip-path="url(#p75db7176a8)" style="fill: #a9a9a9; fill-opacity: 0.2; stroke: #a9a9a9; stroke-opacity: 0.2"/>
    <path d="M 574.945656 285.599238 
L 574.945656 285.599238 
L 574.945656 285.599238 
L 574.945656 285.599238 
L 574.945656 285.599238 
L 574.945656 285.599238 
z
" clip-path="url(#p75db7176a8)" style="fill: #a9a9a9; fill-opacity: 0.2; stroke: #a9a9a9; stroke-opacity: 0.2"/>
    <path d="M 574.945656 285.599238 
L 574.945656 285.599238 
L 574.945656 285.599238 
L 574.945656 285.599238 
L 574.945656 285.599238 
L 574.945656 285.599238 
L 574.945656 285.599238 
L 574.945656 285.599238 
z
" clip-path="url(#p75db7176a8)" style="fill: #a9a9a9; fill-opacity: 0.2; stroke: #a9a9a9; stroke-opacity: 0.2"/>
   </g>
   <g id="FillBetweenPolyCollection_7">
    <defs>
     <path id="m1b13a10e6e" d="M 565.002092 -277.955411 
L 565.002092 -277.955411 
L 565.002092 -277.955411 
L 567.169569 -269.646298 
L 569.329177 -266.140993 
L 569.329177 -266.140993 
L 571.734674 -264.327306 
L 571.734674 -264.327306 
L 571.734674 -264.327306 
L 571.734674 -264.327306 
L 571.734674 -264.327306 
L 569.329177 -266.140993 
L 569.329177 -266.140993 
L 567.169569 -269.646298 
L 565.002092 -277.955411 
L 565.002092 -277.955411 
z
" style="stroke: #ffd700; stroke-opacity: 0.2"/>
    </defs>
    <g clip-path="url(#p75db7176a8)">
     <use xlink:href="#m1b13a10e6e" x="0" y="547.478125" style="fill: #ffd700; fill-opacity: 0.2; stroke: #ffd700; stroke-opacity: 0.2"/>
    </g>
   </g>
   <g id="FillBetweenPolyCollection_8">
    <path d="M 550.123254 138.415734 
L 550.123254 138.415734 
L 550.123254 138.415734 
L 550.123254 138.415734 
z
" clip-path="url(#p75db7176a8)" style="fill: #008080; fill-opacity: 0.2; stroke: #008080; stroke-opacity: 0.2"/>
    <path d="M 552.243514 169.742462 
L 552.243514 169.742462 
L 552.243514 169.742462 
L 552.243514 169.742462 
z
" clip-path="url(#p75db7176a8)" style="fill: #008080; fill-opacity: 0.2; stroke: #008080; stroke-opacity: 0.2"/>
    <path d="M 553.041101 178.534902 
L 553.041101 178.534902 
L 553.041101 178.534902 
L 553.041101 178.534902 
z
" clip-path="url(#p75db7176a8)" style="fill: #008080; fill-opacity: 0.2; stroke: #008080; stroke-opacity: 0.2"/>
   </g>
   <g id="matplotlib.axis_3">
    <g id="xtick_5">
     <g id="line2d_15">
      <g>
       <use xlink:href="#m6bb3464713" x="512.535" y="326.098125" style="stroke: #000000; stroke-width: 1.5"/>
      </g>
     </g>
     <g id="text_13">
      <!-- 0 -->
      <g transform="translate(504.9 353.834375) scale(0.24 -0.24)">
       <use xlink:href="#DejaVuSans-30"/>
      </g>
     </g>
    </g>
    <g id="xtick_6">
     <g id="line2d_16">
      <g>
       <use xlink:href="#m6bb3464713" x="606.207" y="326.098125" style="stroke: #000000; stroke-width: 1.5"/>
      </g>
     </g>
     <g id="text_14">
      <!-- 200 -->
      <g transform="translate(583.302 353.834375) scale(0.24 -0.24)">
       <use xlink:href="#DejaVuSans-32"/>
       <use xlink:href="#DejaVuSans-30" transform="translate(63.623047 0)"/>
       <use xlink:href="#DejaVuSans-30" transform="translate(127.246094 0)"/>
      </g>
     </g>
    </g>
    <g id="xtick_7">
     <g id="line2d_17">
      <g>
       <use xlink:href="#m6bb3464713" x="699.879" y="326.098125" style="stroke: #000000; stroke-width: 1.5"/>
      </g>
     </g>
     <g id="text_15">
      <!-- 400 -->
      <g transform="translate(676.974 353.834375) scale(0.24 -0.24)">
       <use xlink:href="#DejaVuSans-34"/>
       <use xlink:href="#DejaVuSans-30" transform="translate(63.623047 0)"/>
       <use xlink:href="#DejaVuSans-30" transform="translate(127.246094 0)"/>
      </g>
     </g>
    </g>
    <g id="xtick_8">
     <g id="line2d_18">
      <g>
       <use xlink:href="#m6bb3464713" x="793.551" y="326.098125" style="stroke: #000000; stroke-width: 1.5"/>
      </g>
     </g>
     <g id="text_16">
      <!-- 600 -->
      <g transform="translate(770.646 353.834375) scale(0.24 -0.24)">
       <use xlink:href="#DejaVuSans-36"/>
       <use xlink:href="#DejaVuSans-30" transform="translate(63.623047 0)"/>
       <use xlink:href="#DejaVuSans-30" transform="translate(127.246094 0)"/>
      </g>
     </g>
    </g>
    <g id="text_17">
     <!-- Electricity Cost ($) -->
     <g transform="translate(542.131125 381.061875) scale(0.24 -0.24)">
      <use xlink:href="#DejaVuSans-45"/>
      <use xlink:href="#DejaVuSans-6c" transform="translate(63.183594 0)"/>
      <use xlink:href="#DejaVuSans-65" transform="translate(90.966797 0)"/>
      <use xlink:href="#DejaVuSans-63" transform="translate(152.490234 0)"/>
      <use xlink:href="#DejaVuSans-74" transform="translate(207.470703 0)"/>
      <use xlink:href="#DejaVuSans-72" transform="translate(246.679688 0)"/>
      <use xlink:href="#DejaVuSans-69" transform="translate(287.792969 0)"/>
      <use xlink:href="#DejaVuSans-63" transform="translate(315.576172 0)"/>
      <use xlink:href="#DejaVuSans-69" transform="translate(370.556641 0)"/>
      <use xlink:href="#DejaVuSans-74" transform="translate(398.339844 0)"/>
      <use xlink:href="#DejaVuSans-79" transform="translate(437.548828 0)"/>
      <use xlink:href="#DejaVuSans-20" transform="translate(496.728516 0)"/>
      <use xlink:href="#DejaVuSans-43" transform="translate(528.515625 0)"/>
      <use xlink:href="#DejaVuSans-6f" transform="translate(598.339844 0)"/>
      <use xlink:href="#DejaVuSans-73" transform="translate(659.521484 0)"/>
      <use xlink:href="#DejaVuSans-74" transform="translate(711.621094 0)"/>
      <use xlink:href="#DejaVuSans-20" transform="translate(750.830078 0)"/>
      <use xlink:href="#DejaVuSans-28" transform="translate(782.617188 0)"/>
      <use xlink:href="#DejaVuSans-24" transform="translate(821.630859 0)"/>
      <use xlink:href="#DejaVuSans-29" transform="translate(885.253906 0)"/>
     </g>
    </g>
   </g>
   <g id="matplotlib.axis_4">
    <g id="ytick_7">
     <g id="line2d_19">
      <g>
       <use xlink:href="#mced44a64f9" x="512.535" y="326.098125" style="stroke: #000000; stroke-width: 1.5"/>
      </g>
     </g>
     <g id="text_18">
      <!-- 0.10 -->
      <g transform="translate(449.5975 335.21625) scale(0.24 -0.24)">
       <use xlink:href="#DejaVuSans-30"/>
       <use xlink:href="#DejaVuSans-2e" transform="translate(63.623047 0)"/>
       <use xlink:href="#DejaVuSans-31" transform="translate(95.410156 0)"/>
       <use xlink:href="#DejaVuSans-30" transform="translate(159.033203 0)"/>
      </g>
     </g>
    </g>
    <g id="ytick_8">
     <g id="line2d_20">
      <g>
       <use xlink:href="#mced44a64f9" x="512.535" y="264.142125" style="stroke: #000000; stroke-width: 1.5"/>
      </g>
     </g>
     <g id="text_19">
      <!-- 0.12 -->
      <g transform="translate(449.5975 273.26025) scale(0.24 -0.24)">
       <use xlink:href="#DejaVuSans-30"/>
       <use xlink:href="#DejaVuSans-2e" transform="translate(63.623047 0)"/>
       <use xlink:href="#DejaVuSans-31" transform="translate(95.410156 0)"/>
       <use xlink:href="#DejaVuSans-32" transform="translate(159.033203 0)"/>
      </g>
     </g>
    </g>
    <g id="ytick_9">
     <g id="line2d_21">
      <g>
       <use xlink:href="#mced44a64f9" x="512.535" y="202.186125" style="stroke: #000000; stroke-width: 1.5"/>
      </g>
     </g>
     <g id="text_20">
      <!-- 0.14 -->
      <g transform="translate(449.5975 211.30425) scale(0.24 -0.24)">
       <use xlink:href="#DejaVuSans-30"/>
       <use xlink:href="#DejaVuSans-2e" transform="translate(63.623047 0)"/>
       <use xlink:href="#DejaVuSans-31" transform="translate(95.410156 0)"/>
       <use xlink:href="#DejaVuSans-34" transform="translate(159.033203 0)"/>
      </g>
     </g>
    </g>
    <g id="ytick_10">
     <g id="line2d_22">
      <g>
       <use xlink:href="#mced44a64f9" x="512.535" y="140.230125" style="stroke: #000000; stroke-width: 1.5"/>
      </g>
     </g>
     <g id="text_21">
      <!-- 0.16 -->
      <g transform="translate(449.5975 149.34825) scale(0.24 -0.24)">
       <use xlink:href="#DejaVuSans-30"/>
       <use xlink:href="#DejaVuSans-2e" transform="translate(63.623047 0)"/>
       <use xlink:href="#DejaVuSans-31" transform="translate(95.410156 0)"/>
       <use xlink:href="#DejaVuSans-36" transform="translate(159.033203 0)"/>
      </g>
     </g>
    </g>
    <g id="ytick_11">
     <g id="line2d_23">
      <g>
       <use xlink:href="#mced44a64f9" x="512.535" y="78.274125" style="stroke: #000000; stroke-width: 1.5"/>
      </g>
     </g>
     <g id="text_22">
      <!-- 0.18 -->
      <g transform="translate(449.5975 87.39225) scale(0.24 -0.24)">
       <use xlink:href="#DejaVuSans-30"/>
       <use xlink:href="#DejaVuSans-2e" transform="translate(63.623047 0)"/>
       <use xlink:href="#DejaVuSans-31" transform="translate(95.410156 0)"/>
       <use xlink:href="#DejaVuSans-38" transform="translate(159.033203 0)"/>
      </g>
     </g>
    </g>
    <g id="ytick_12">
     <g id="line2d_24">
      <g>
       <use xlink:href="#mced44a64f9" x="512.535" y="16.318125" style="stroke: #000000; stroke-width: 1.5"/>
      </g>
     </g>
     <g id="text_23">
      <!-- 0.20 -->
      <g transform="translate(449.5975 25.43625) scale(0.24 -0.24)">
       <use xlink:href="#DejaVuSans-30"/>
       <use xlink:href="#DejaVuSans-2e" transform="translate(63.623047 0)"/>
       <use xlink:href="#DejaVuSans-32" transform="translate(95.410156 0)"/>
       <use xlink:href="#DejaVuSans-30" transform="translate(159.033203 0)"/>
      </g>
     </g>
    </g>
    <g id="text_24">
     <!-- Emissions (tons $CO_2$) -->
     <g transform="translate(440.60625 297.328125) rotate(-90) scale(0.24 -0.24)">
      <use xlink:href="#DejaVuSans-45" transform="translate(0 0.015625)"/>
      <use xlink:href="#DejaVuSans-6d" transform="translate(63.183594 0.015625)"/>
      <use xlink:href="#DejaVuSans-69" transform="translate(160.595703 0.015625)"/>
      <use xlink:href="#DejaVuSans-73" transform="translate(188.378906 0.015625)"/>
      <use xlink:href="#DejaVuSans-73" transform="translate(240.478516 0.015625)"/>
      <use xlink:href="#DejaVuSans-69" transform="translate(292.578125 0.015625)"/>
      <use xlink:href="#DejaVuSans-6f" transform="translate(320.361328 0.015625)"/>
      <use xlink:href="#DejaVuSans-6e" transform="translate(381.542969 0.015625)"/>
      <use xlink:href="#DejaVuSans-73" transform="translate(444.921875 0.015625)"/>
      <use xlink:href="#DejaVuSans-20" transform="translate(497.021484 0.015625)"/>
      <use xlink:href="#DejaVuSans-28" transform="translate(528.808594 0.015625)"/>
      <use xlink:href="#DejaVuSans-74" transform="translate(567.822266 0.015625)"/>
      <use xlink:href="#DejaVuSans-6f" transform="translate(607.03125 0.015625)"/>
      <use xlink:href="#DejaVuSans-6e" transform="translate(668.212891 0.015625)"/>
      <use xlink:href="#DejaVuSans-73" transform="translate(731.591797 0.015625)"/>
      <use xlink:href="#DejaVuSans-20" transform="translate(783.691406 0.015625)"/>
      <use xlink:href="#DejaVuSans-Oblique-43" transform="translate(815.478516 0.015625)"/>
      <use xlink:href="#DejaVuSans-Oblique-4f" transform="translate(885.302734 0.015625)"/>
      <use xlink:href="#DejaVuSans-32" transform="translate(964.013672 -16.390625) scale(0.7)"/>
      <use xlink:href="#DejaVuSans-29" transform="translate(1011.28418 0.015625)"/>
     </g>
    </g>
   </g>
   <g id="line2d_25">
    <path d="M 549.732213 132.589926 
L 550.525931 144.680265 
L 552.100009 168.086916 
L 552.559226 174.358896 
L 552.559226 174.358896 
L 553.064364 180.304524 
L 553.622675 186.08215 
L 553.622675 186.08215 
L 555.627448 202.592096 
L 556.817782 211.54026 
L 558.166828 221.447205 
L 559.708594 232.449955 
L 565.481787 272.888236 
L 568.371755 283.967054 
L 571.251232 288.640794 
L 571.251232 288.640794 
L 574.458562 291.059043 
L 579.030291 292.586831 
L 579.030291 292.586831 
L 579.030291 292.586831 
L 579.030291 292.586831 
L 579.030291 292.586831 
L 590.185691 295.118858 
L 593.315031 295.792637 
L 596.916724 296.432432 
L 601.106449 296.906152 
L 626.981444 299.757036 
L 637.83329 300.678793 
L 733.21012 305.083476 
" clip-path="url(#p75db7176a8)" style="fill: none; stroke: #ff6347; stroke-width: 3; stroke-linecap: square"/>
   </g>
   <g id="line2d_26">
    <path d="M 568.374378 77.074215 
L 568.407013 82.213996 
L 572.323252 233.90917 
L 573.269677 262.694953 
L 573.269677 262.694953 
L 573.269677 261.511597 
L 573.548445 267.124571 
L 574.806272 284.381843 
L 574.945656 285.599238 
L 574.945656 285.599238 
L 574.945656 285.599238 
L 574.945656 285.599238 
L 574.945656 285.599238 
L 574.945656 285.599238 
L 574.945656 285.599238 
L 574.945656 285.599238 
L 574.945656 285.599238 
L 574.945656 285.599238 
L 574.945656 285.599238 
L 574.945656 285.599238 
L 574.945656 285.599238 
L 574.945656 285.599238 
L 574.945656 285.599238 
L 574.945656 285.599238 
L 574.945656 285.599238 
L 574.945656 285.599238 
L 574.945656 285.599238 
L 574.945656 285.599238 
L 584.603239 293.76505 
" clip-path="url(#p75db7176a8)" style="fill: none; stroke: #a9a9a9; stroke-width: 3; stroke-linecap: square"/>
   </g>
   <g id="line2d_27">
    <path d="M 554.436359 101.099842 
L 554.436359 146.072274 
L 554.860618 158.746276 
L 555.927055 188.956222 
L 555.927055 188.956222 
L 555.927055 188.956222 
L 555.927055 188.956222 
L 555.959691 189.244676 
L 563.02121 251.09248 
L 563.073479 256.018825 
L 565.002092 269.522714 
L 565.002092 269.522714 
L 567.169569 277.831827 
L 569.329177 281.337132 
L 569.329177 281.337132 
L 571.734674 283.150819 
L 571.734674 283.150819 
L 574.401515 284.042029 
" clip-path="url(#p75db7176a8)" style="fill: none; stroke: #ffd700; stroke-width: 3; stroke-linecap: square"/>
   </g>
   <g id="line2d_28">
    <path d="M 550.123254 138.415734 
L 550.123254 138.415734 
L 551.899102 165.038477 
L 552.243514 169.742462 
L 552.622368 174.201683 
L 553.041101 178.534902 
L 554.544681 190.917362 
L 555.437432 197.628485 
L 560.129205 231.011189 
L 560.496352 233.5429 
" clip-path="url(#p75db7176a8)" style="fill: none; stroke: #008080; stroke-width: 3; stroke-linecap: square"/>
   </g>
   <g id="line2d_29"/>
   <g id="line2d_30"/>
   <g id="line2d_31"/>
   <g id="line2d_32"/>
   <g id="patch_8">
    <path d="M 512.535 326.098125 
L 512.535 16.318125 
" style="fill: none; stroke: #000000; stroke-width: 2; stroke-linejoin: miter; stroke-linecap: square"/>
   </g>
   <g id="patch_9">
    <path d="M 793.551 326.098125 
L 793.551 16.318125 
" style="fill: none; stroke: #000000; stroke-width: 2; stroke-linejoin: miter; stroke-linecap: square"/>
   </g>
   <g id="patch_10">
    <path d="M 512.535 326.098125 
L 793.551 326.098125 
" style="fill: none; stroke: #000000; stroke-width: 2; stroke-linejoin: miter; stroke-linecap: square"/>
   </g>
   <g id="patch_11">
    <path d="M 512.535 16.318125 
L 793.551 16.318125 
" style="fill: none; stroke: #000000; stroke-width: 2; stroke-linejoin: miter; stroke-linecap: square"/>
   </g>
  </g>
  <g id="legend_1">
   <g id="line2d_33">
    <path d="M 188.301 422.327187 
L 210.301 422.327187 
L 232.301 422.327187 
" style="fill: none; stroke: #ff6347; stroke-width: 3; stroke-linecap: square"/>
   </g>
   <g id="text_25">
    <!-- Maximum Savings -->
    <g transform="translate(249.901 430.027187) scale(0.22 -0.22)">
     <defs>
      <path id="DejaVuSans-4d" d="M 628 4666 
L 1569 4666 
L 2759 1491 
L 3956 4666 
L 4897 4666 
L 4897 0 
L 4281 0 
L 4281 4097 
L 3078 897 
L 2444 897 
L 1241 4097 
L 1241 0 
L 628 0 
L 628 4666 
z
" transform="scale(0.015625)"/>
      <path id="DejaVuSans-61" d="M 2194 1759 
Q 1497 1759 1228 1600 
Q 959 1441 959 1056 
Q 959 750 1161 570 
Q 1363 391 1709 391 
Q 2188 391 2477 730 
Q 2766 1069 2766 1631 
L 2766 1759 
L 2194 1759 
z
M 3341 1997 
L 3341 0 
L 2766 0 
L 2766 531 
Q 2569 213 2275 61 
Q 1981 -91 1556 -91 
Q 1019 -91 701 211 
Q 384 513 384 1019 
Q 384 1609 779 1909 
Q 1175 2209 1959 2209 
L 2766 2209 
L 2766 2266 
Q 2766 2663 2505 2880 
Q 2244 3097 1772 3097 
Q 1472 3097 1187 3025 
Q 903 2953 641 2809 
L 641 3341 
Q 956 3463 1253 3523 
Q 1550 3584 1831 3584 
Q 2591 3584 2966 3190 
Q 3341 2797 3341 1997 
z
" transform="scale(0.015625)"/>
      <path id="DejaVuSans-78" d="M 3513 3500 
L 2247 1797 
L 3578 0 
L 2900 0 
L 1881 1375 
L 863 0 
L 184 0 
L 1544 1831 
L 300 3500 
L 978 3500 
L 1906 2253 
L 2834 3500 
L 3513 3500 
z
" transform="scale(0.015625)"/>
      <path id="DejaVuSans-75" d="M 544 1381 
L 544 3500 
L 1119 3500 
L 1119 1403 
Q 1119 906 1312 657 
Q 1506 409 1894 409 
Q 2359 409 2629 706 
Q 2900 1003 2900 1516 
L 2900 3500 
L 3475 3500 
L 3475 0 
L 2900 0 
L 2900 538 
Q 2691 219 2414 64 
Q 2138 -91 1772 -91 
Q 1169 -91 856 284 
Q 544 659 544 1381 
z
M 1991 3584 
L 1991 3584 
z
" transform="scale(0.015625)"/>
      <path id="DejaVuSans-53" d="M 3425 4513 
L 3425 3897 
Q 3066 4069 2747 4153 
Q 2428 4238 2131 4238 
Q 1616 4238 1336 4038 
Q 1056 3838 1056 3469 
Q 1056 3159 1242 3001 
Q 1428 2844 1947 2747 
L 2328 2669 
Q 3034 2534 3370 2195 
Q 3706 1856 3706 1288 
Q 3706 609 3251 259 
Q 2797 -91 1919 -91 
Q 1588 -91 1214 -16 
Q 841 59 441 206 
L 441 856 
Q 825 641 1194 531 
Q 1563 422 1919 422 
Q 2459 422 2753 634 
Q 3047 847 3047 1241 
Q 3047 1584 2836 1778 
Q 2625 1972 2144 2069 
L 1759 2144 
Q 1053 2284 737 2584 
Q 422 2884 422 3419 
Q 422 4038 858 4394 
Q 1294 4750 2059 4750 
Q 2388 4750 2728 4690 
Q 3069 4631 3425 4513 
z
" transform="scale(0.015625)"/>
      <path id="DejaVuSans-76" d="M 191 3500 
L 800 3500 
L 1894 563 
L 2988 3500 
L 3597 3500 
L 2284 0 
L 1503 0 
L 191 3500 
z
" transform="scale(0.015625)"/>
      <path id="DejaVuSans-67" d="M 2906 1791 
Q 2906 2416 2648 2759 
Q 2391 3103 1925 3103 
Q 1463 3103 1205 2759 
Q 947 2416 947 1791 
Q 947 1169 1205 825 
Q 1463 481 1925 481 
Q 2391 481 2648 825 
Q 2906 1169 2906 1791 
z
M 3481 434 
Q 3481 -459 3084 -895 
Q 2688 -1331 1869 -1331 
Q 1566 -1331 1297 -1286 
Q 1028 -1241 775 -1147 
L 775 -588 
Q 1028 -725 1275 -790 
Q 1522 -856 1778 -856 
Q 2344 -856 2625 -561 
Q 2906 -266 2906 331 
L 2906 616 
Q 2728 306 2450 153 
Q 2172 0 1784 0 
Q 1141 0 747 490 
Q 353 981 353 1791 
Q 353 2603 747 3093 
Q 1141 3584 1784 3584 
Q 2172 3584 2450 3431 
Q 2728 3278 2906 2969 
L 2906 3500 
L 3481 3500 
L 3481 434 
z
" transform="scale(0.015625)"/>
     </defs>
     <use xlink:href="#DejaVuSans-4d"/>
     <use xlink:href="#DejaVuSans-61" transform="translate(86.279297 0)"/>
     <use xlink:href="#DejaVuSans-78" transform="translate(147.558594 0)"/>
     <use xlink:href="#DejaVuSans-69" transform="translate(206.738281 0)"/>
     <use xlink:href="#DejaVuSans-6d" transform="translate(234.521484 0)"/>
     <use xlink:href="#DejaVuSans-75" transform="translate(331.933594 0)"/>
     <use xlink:href="#DejaVuSans-6d" transform="translate(395.3125 0)"/>
     <use xlink:href="#DejaVuSans-20" transform="translate(492.724609 0)"/>
     <use xlink:href="#DejaVuSans-53" transform="translate(524.511719 0)"/>
     <use xlink:href="#DejaVuSans-61" transform="translate(587.988281 0)"/>
     <use xlink:href="#DejaVuSans-76" transform="translate(649.267578 0)"/>
     <use xlink:href="#DejaVuSans-69" transform="translate(708.447266 0)"/>
     <use xlink:href="#DejaVuSans-6e" transform="translate(736.230469 0)"/>
     <use xlink:href="#DejaVuSans-67" transform="translate(799.609375 0)"/>
     <use xlink:href="#DejaVuSans-73" transform="translate(863.085938 0)"/>
    </g>
   </g>
   <g id="line2d_34">
    <path d="M 188.301 454.619062 
L 210.301 454.619062 
L 232.301 454.619062 
" style="fill: none; stroke: #a9a9a9; stroke-width: 3; stroke-linecap: square"/>
   </g>
   <g id="text_26">
    <!-- 25% Uptime, 0% Power Capacity -->
    <g transform="translate(249.901 462.319062) scale(0.22 -0.22)">
     <defs>
      <path id="DejaVuSans-35" d="M 691 4666 
L 3169 4666 
L 3169 4134 
L 1269 4134 
L 1269 2991 
Q 1406 3038 1543 3061 
Q 1681 3084 1819 3084 
Q 2600 3084 3056 2656 
Q 3513 2228 3513 1497 
Q 3513 744 3044 326 
Q 2575 -91 1722 -91 
Q 1428 -91 1123 -41 
Q 819 9 494 109 
L 494 744 
Q 775 591 1075 516 
Q 1375 441 1709 441 
Q 2250 441 2565 725 
Q 2881 1009 2881 1497 
Q 2881 1984 2565 2268 
Q 2250 2553 1709 2553 
Q 1456 2553 1204 2497 
Q 953 2441 691 2322 
L 691 4666 
z
" transform="scale(0.015625)"/>
      <path id="DejaVuSans-25" d="M 4653 2053 
Q 4381 2053 4226 1822 
Q 4072 1591 4072 1178 
Q 4072 772 4226 539 
Q 4381 306 4653 306 
Q 4919 306 5073 539 
Q 5228 772 5228 1178 
Q 5228 1588 5073 1820 
Q 4919 2053 4653 2053 
z
M 4653 2450 
Q 5147 2450 5437 2106 
Q 5728 1763 5728 1178 
Q 5728 594 5436 251 
Q 5144 -91 4653 -91 
Q 4153 -91 3862 251 
Q 3572 594 3572 1178 
Q 3572 1766 3864 2108 
Q 4156 2450 4653 2450 
z
M 1428 4353 
Q 1159 4353 1004 4120 
Q 850 3888 850 3481 
Q 850 3069 1003 2837 
Q 1156 2606 1428 2606 
Q 1700 2606 1854 2837 
Q 2009 3069 2009 3481 
Q 2009 3884 1853 4118 
Q 1697 4353 1428 4353 
z
M 4250 4750 
L 4750 4750 
L 1831 -91 
L 1331 -91 
L 4250 4750 
z
M 1428 4750 
Q 1922 4750 2215 4408 
Q 2509 4066 2509 3481 
Q 2509 2891 2217 2550 
Q 1925 2209 1428 2209 
Q 931 2209 642 2551 
Q 353 2894 353 3481 
Q 353 4063 643 4406 
Q 934 4750 1428 4750 
z
" transform="scale(0.015625)"/>
      <path id="DejaVuSans-55" d="M 556 4666 
L 1191 4666 
L 1191 1831 
Q 1191 1081 1462 751 
Q 1734 422 2344 422 
Q 2950 422 3222 751 
Q 3494 1081 3494 1831 
L 3494 4666 
L 4128 4666 
L 4128 1753 
Q 4128 841 3676 375 
Q 3225 -91 2344 -91 
Q 1459 -91 1007 375 
Q 556 841 556 1753 
L 556 4666 
z
" transform="scale(0.015625)"/>
      <path id="DejaVuSans-70" d="M 1159 525 
L 1159 -1331 
L 581 -1331 
L 581 3500 
L 1159 3500 
L 1159 2969 
Q 1341 3281 1617 3432 
Q 1894 3584 2278 3584 
Q 2916 3584 3314 3078 
Q 3713 2572 3713 1747 
Q 3713 922 3314 415 
Q 2916 -91 2278 -91 
Q 1894 -91 1617 61 
Q 1341 213 1159 525 
z
M 3116 1747 
Q 3116 2381 2855 2742 
Q 2594 3103 2138 3103 
Q 1681 3103 1420 2742 
Q 1159 2381 1159 1747 
Q 1159 1113 1420 752 
Q 1681 391 2138 391 
Q 2594 391 2855 752 
Q 3116 1113 3116 1747 
z
" transform="scale(0.015625)"/>
      <path id="DejaVuSans-2c" d="M 750 794 
L 1409 794 
L 1409 256 
L 897 -744 
L 494 -744 
L 750 256 
L 750 794 
z
" transform="scale(0.015625)"/>
      <path id="DejaVuSans-50" d="M 1259 4147 
L 1259 2394 
L 2053 2394 
Q 2494 2394 2734 2622 
Q 2975 2850 2975 3272 
Q 2975 3691 2734 3919 
Q 2494 4147 2053 4147 
L 1259 4147 
z
M 628 4666 
L 2053 4666 
Q 2838 4666 3239 4311 
Q 3641 3956 3641 3272 
Q 3641 2581 3239 2228 
Q 2838 1875 2053 1875 
L 1259 1875 
L 1259 0 
L 628 0 
L 628 4666 
z
" transform="scale(0.015625)"/>
      <path id="DejaVuSans-77" d="M 269 3500 
L 844 3500 
L 1563 769 
L 2278 3500 
L 2956 3500 
L 3675 769 
L 4391 3500 
L 4966 3500 
L 4050 0 
L 3372 0 
L 2619 2869 
L 1863 0 
L 1184 0 
L 269 3500 
z
" transform="scale(0.015625)"/>
     </defs>
     <use xlink:href="#DejaVuSans-32"/>
     <use xlink:href="#DejaVuSans-35" transform="translate(63.623047 0)"/>
     <use xlink:href="#DejaVuSans-25" transform="translate(127.246094 0)"/>
     <use xlink:href="#DejaVuSans-20" transform="translate(222.265625 0)"/>
     <use xlink:href="#DejaVuSans-55" transform="translate(254.052734 0)"/>
     <use xlink:href="#DejaVuSans-70" transform="translate(327.246094 0)"/>
     <use xlink:href="#DejaVuSans-74" transform="translate(390.722656 0)"/>
     <use xlink:href="#DejaVuSans-69" transform="translate(429.931641 0)"/>
     <use xlink:href="#DejaVuSans-6d" transform="translate(457.714844 0)"/>
     <use xlink:href="#DejaVuSans-65" transform="translate(555.126953 0)"/>
     <use xlink:href="#DejaVuSans-2c" transform="translate(616.650391 0)"/>
     <use xlink:href="#DejaVuSans-20" transform="translate(648.4375 0)"/>
     <use xlink:href="#DejaVuSans-30" transform="translate(680.224609 0)"/>
     <use xlink:href="#DejaVuSans-25" transform="translate(743.847656 0)"/>
     <use xlink:href="#DejaVuSans-20" transform="translate(838.867188 0)"/>
     <use xlink:href="#DejaVuSans-50" transform="translate(870.654297 0)"/>
     <use xlink:href="#DejaVuSans-6f" transform="translate(927.332031 0)"/>
     <use xlink:href="#DejaVuSans-77" transform="translate(988.513672 0)"/>
     <use xlink:href="#DejaVuSans-65" transform="translate(1070.300781 0)"/>
     <use xlink:href="#DejaVuSans-72" transform="translate(1131.824219 0)"/>
     <use xlink:href="#DejaVuSans-20" transform="translate(1172.9375 0)"/>
     <use xlink:href="#DejaVuSans-43" transform="translate(1204.724609 0)"/>
     <use xlink:href="#DejaVuSans-61" transform="translate(1274.548828 0)"/>
     <use xlink:href="#DejaVuSans-70" transform="translate(1335.828125 0)"/>
     <use xlink:href="#DejaVuSans-61" transform="translate(1399.304688 0)"/>
     <use xlink:href="#DejaVuSans-63" transform="translate(1460.583984 0)"/>
     <use xlink:href="#DejaVuSans-69" transform="translate(1515.564453 0)"/>
     <use xlink:href="#DejaVuSans-74" transform="translate(1543.347656 0)"/>
     <use xlink:href="#DejaVuSans-79" transform="translate(1582.556641 0)"/>
    </g>
   </g>
   <g id="line2d_35">
    <path d="M 188.301 486.910937 
L 210.301 486.910937 
L 232.301 486.910937 
" style="fill: none; stroke: #ffd700; stroke-width: 3; stroke-linecap: square"/>
   </g>
   <g id="text_27">
    <!-- 50% Uptime, 50% Power Capacity -->
    <g transform="translate(249.901 494.610937) scale(0.22 -0.22)">
     <use xlink:href="#DejaVuSans-35"/>
     <use xlink:href="#DejaVuSans-30" transform="translate(63.623047 0)"/>
     <use xlink:href="#DejaVuSans-25" transform="translate(127.246094 0)"/>
     <use xlink:href="#DejaVuSans-20" transform="translate(222.265625 0)"/>
     <use xlink:href="#DejaVuSans-55" transform="translate(254.052734 0)"/>
     <use xlink:href="#DejaVuSans-70" transform="translate(327.246094 0)"/>
     <use xlink:href="#DejaVuSans-74" transform="translate(390.722656 0)"/>
     <use xlink:href="#DejaVuSans-69" transform="translate(429.931641 0)"/>
     <use xlink:href="#DejaVuSans-6d" transform="translate(457.714844 0)"/>
     <use xlink:href="#DejaVuSans-65" transform="translate(555.126953 0)"/>
     <use xlink:href="#DejaVuSans-2c" transform="translate(616.650391 0)"/>
     <use xlink:href="#DejaVuSans-20" transform="translate(648.4375 0)"/>
     <use xlink:href="#DejaVuSans-35" transform="translate(680.224609 0)"/>
     <use xlink:href="#DejaVuSans-30" transform="translate(743.847656 0)"/>
     <use xlink:href="#DejaVuSans-25" transform="translate(807.470703 0)"/>
     <use xlink:href="#DejaVuSans-20" transform="translate(902.490234 0)"/>
     <use xlink:href="#DejaVuSans-50" transform="translate(934.277344 0)"/>
     <use xlink:href="#DejaVuSans-6f" transform="translate(990.955078 0)"/>
     <use xlink:href="#DejaVuSans-77" transform="translate(1052.136719 0)"/>
     <use xlink:href="#DejaVuSans-65" transform="translate(1133.923828 0)"/>
     <use xlink:href="#DejaVuSans-72" transform="translate(1195.447266 0)"/>
     <use xlink:href="#DejaVuSans-20" transform="translate(1236.560547 0)"/>
     <use xlink:href="#DejaVuSans-43" transform="translate(1268.347656 0)"/>
     <use xlink:href="#DejaVuSans-61" transform="translate(1338.171875 0)"/>
     <use xlink:href="#DejaVuSans-70" transform="translate(1399.451172 0)"/>
     <use xlink:href="#DejaVuSans-61" transform="translate(1462.927734 0)"/>
     <use xlink:href="#DejaVuSans-63" transform="translate(1524.207031 0)"/>
     <use xlink:href="#DejaVuSans-69" transform="translate(1579.1875 0)"/>
     <use xlink:href="#DejaVuSans-74" transform="translate(1606.970703 0)"/>
     <use xlink:href="#DejaVuSans-79" transform="translate(1646.179688 0)"/>
    </g>
   </g>
   <g id="line2d_36">
    <path d="M 188.301 519.202812 
L 210.301 519.202812 
L 232.301 519.202812 
" style="fill: none; stroke: #008080; stroke-width: 3; stroke-linecap: square"/>
   </g>
   <g id="text_28">
    <!-- 100% Uptime, 25% Power Capacity -->
    <g transform="translate(249.901 526.902812) scale(0.22 -0.22)">
     <use xlink:href="#DejaVuSans-31"/>
     <use xlink:href="#DejaVuSans-30" transform="translate(63.623047 0)"/>
     <use xlink:href="#DejaVuSans-30" transform="translate(127.246094 0)"/>
     <use xlink:href="#DejaVuSans-25" transform="translate(190.869141 0)"/>
     <use xlink:href="#DejaVuSans-20" transform="translate(285.888672 0)"/>
     <use xlink:href="#DejaVuSans-55" transform="translate(317.675781 0)"/>
     <use xlink:href="#DejaVuSans-70" transform="translate(390.869141 0)"/>
     <use xlink:href="#DejaVuSans-74" transform="translate(454.345703 0)"/>
     <use xlink:href="#DejaVuSans-69" transform="translate(493.554688 0)"/>
     <use xlink:href="#DejaVuSans-6d" transform="translate(521.337891 0)"/>
     <use xlink:href="#DejaVuSans-65" transform="translate(618.75 0)"/>
     <use xlink:href="#DejaVuSans-2c" transform="translate(680.273438 0)"/>
     <use xlink:href="#DejaVuSans-20" transform="translate(712.060547 0)"/>
     <use xlink:href="#DejaVuSans-32" transform="translate(743.847656 0)"/>
     <use xlink:href="#DejaVuSans-35" transform="translate(807.470703 0)"/>
     <use xlink:href="#DejaVuSans-25" transform="translate(871.09375 0)"/>
     <use xlink:href="#DejaVuSans-20" transform="translate(966.113281 0)"/>
     <use xlink:href="#DejaVuSans-50" transform="translate(997.900391 0)"/>
     <use xlink:href="#DejaVuSans-6f" transform="translate(1054.578125 0)"/>
     <use xlink:href="#DejaVuSans-77" transform="translate(1115.759766 0)"/>
     <use xlink:href="#DejaVuSans-65" transform="translate(1197.546875 0)"/>
     <use xlink:href="#DejaVuSans-72" transform="translate(1259.070312 0)"/>
     <use xlink:href="#DejaVuSans-20" transform="translate(1300.183594 0)"/>
     <use xlink:href="#DejaVuSans-43" transform="translate(1331.970703 0)"/>
     <use xlink:href="#DejaVuSans-61" transform="translate(1401.794922 0)"/>
     <use xlink:href="#DejaVuSans-70" transform="translate(1463.074219 0)"/>
     <use xlink:href="#DejaVuSans-61" transform="translate(1526.550781 0)"/>
     <use xlink:href="#DejaVuSans-63" transform="translate(1587.830078 0)"/>
     <use xlink:href="#DejaVuSans-69" transform="translate(1642.810547 0)"/>
     <use xlink:href="#DejaVuSans-74" transform="translate(1670.59375 0)"/>
     <use xlink:href="#DejaVuSans-79" transform="translate(1709.802734 0)"/>
    </g>
   </g>
  </g>
 </g>
 <defs>
  <clipPath id="pc348bb5eb7">
   <rect x="97.365" y="16.318125" width="281.016" height="309.78"/>
  </clipPath>
  <clipPath id="p75db7176a8">
   <rect x="512.535" y="16.318125" width="281.016" height="309.78"/>
  </clipPath>
 </defs>
</svg>
