<?xml version="1.0" encoding="utf-8" standalone="no"?>
<!DOCTYPE svg PUBLIC "-//W3C//DTD SVG 1.1//EN"
  "http://www.w3.org/Graphics/SVG/1.1/DTD/svg11.dtd">
<svg xmlns:xlink="http://www.w3.org/1999/xlink" width="240.863567pt" height="128.027426pt" viewBox="0 0 240.863567 128.027426" xmlns="http://www.w3.org/2000/svg" version="1.1">
 <metadata>
  <rdf:RDF xmlns:dc="http://purl.org/dc/elements/1.1/" xmlns:cc="http://creativecommons.org/ns#" xmlns:rdf="http://www.w3.org/1999/02/22-rdf-syntax-ns#">
   <cc:Work>
    <dc:type rdf:resource="http://purl.org/dc/dcmitype/StillImage"/>
    <dc:date>2025-07-23T10:44:34.532109</dc:date>
    <dc:format>image/svg+xml</dc:format>
    <dc:creator>
     <cc:Agent>
      <dc:title>Matplotlib v3.10.3, https://matplotlib.org/</dc:title>
     </cc:Agent>
    </dc:creator>
   </cc:Work>
  </rdf:RDF>
 </metadata>
 <defs>
  <style type="text/css">*{stroke-linejoin: round; stroke-linecap: butt}</style>
 </defs>
 <g id="figure_1">
  <g id="patch_1">
   <path d="M 0 128.027426 
L 240.863567 128.027426 
L 240.863567 -0 
L 0 -0 
z
" style="fill: #ffffff"/>
  </g>
  <g id="axes_1">
   <g id="patch_2">
    <path d="M 35.947031 107.925707 
L 233.663567 107.925707 
L 233.663567 9.705234 
L 35.947031 9.705234 
z
" style="fill: #ffffff"/>
   </g>
   <g id="matplotlib.axis_1">
    <g id="xtick_1">
     <g id="line2d_1">
      <defs>
       <path id="m23c7d5ea04" d="M 0 0 
L 0 3 
" style="stroke: #000000"/>
      </defs>
      <g>
       <use xlink:href="#m23c7d5ea04" x="56.759298" y="107.925707" style="stroke: #000000"/>
      </g>
     </g>
     <g id="text_1">
      <!-- SPP -->
      <g transform="translate(49.75547 119.436176) scale(0.07 -0.07)">
       <defs>
        <path id="ArialMT-53" d="M 288 1472 
L 859 1522 
Q 900 1178 1048 958 
Q 1197 738 1509 602 
Q 1822 466 2213 466 
Q 2559 466 2825 569 
Q 3091 672 3220 851 
Q 3350 1031 3350 1244 
Q 3350 1459 3225 1620 
Q 3100 1781 2813 1891 
Q 2628 1963 1997 2114 
Q 1366 2266 1113 2400 
Q 784 2572 623 2826 
Q 463 3081 463 3397 
Q 463 3744 659 4045 
Q 856 4347 1234 4503 
Q 1613 4659 2075 4659 
Q 2584 4659 2973 4495 
Q 3363 4331 3572 4012 
Q 3781 3694 3797 3291 
L 3216 3247 
Q 3169 3681 2898 3903 
Q 2628 4125 2100 4125 
Q 1550 4125 1298 3923 
Q 1047 3722 1047 3438 
Q 1047 3191 1225 3031 
Q 1400 2872 2139 2705 
Q 2878 2538 3153 2413 
Q 3553 2228 3743 1945 
Q 3934 1663 3934 1294 
Q 3934 928 3725 604 
Q 3516 281 3123 101 
Q 2731 -78 2241 -78 
Q 1619 -78 1198 103 
Q 778 284 539 648 
Q 300 1013 288 1472 
z
" transform="scale(0.015625)"/>
        <path id="ArialMT-50" d="M 494 0 
L 494 4581 
L 2222 4581 
Q 2678 4581 2919 4538 
Q 3256 4481 3484 4323 
Q 3713 4166 3852 3881 
Q 3991 3597 3991 3256 
Q 3991 2672 3619 2267 
Q 3247 1863 2275 1863 
L 1100 1863 
L 1100 0 
L 494 0 
z
M 1100 2403 
L 2284 2403 
Q 2872 2403 3119 2622 
Q 3366 2841 3366 3238 
Q 3366 3525 3220 3729 
Q 3075 3934 2838 4000 
Q 2684 4041 2272 4041 
L 1100 4041 
L 1100 2403 
z
" transform="scale(0.015625)"/>
       </defs>
       <use xlink:href="#ArialMT-53"/>
       <use xlink:href="#ArialMT-50" transform="translate(66.699219 0)"/>
       <use xlink:href="#ArialMT-50" transform="translate(133.398438 0)"/>
      </g>
     </g>
    </g>
    <g id="xtick_2">
     <g id="line2d_2">
      <g>
       <use xlink:href="#m23c7d5ea04" x="82.774632" y="107.925707" style="stroke: #000000"/>
      </g>
     </g>
     <g id="text_2">
      <!-- CAISO -->
      <g transform="translate(71.883069 119.436176) scale(0.07 -0.07)">
       <defs>
        <path id="ArialMT-43" d="M 3763 1606 
L 4369 1453 
Q 4178 706 3683 314 
Q 3188 -78 2472 -78 
Q 1731 -78 1267 223 
Q 803 525 561 1097 
Q 319 1669 319 2325 
Q 319 3041 592 3573 
Q 866 4106 1370 4382 
Q 1875 4659 2481 4659 
Q 3169 4659 3637 4309 
Q 4106 3959 4291 3325 
L 3694 3184 
Q 3534 3684 3231 3912 
Q 2928 4141 2469 4141 
Q 1941 4141 1586 3887 
Q 1231 3634 1087 3207 
Q 944 2781 944 2328 
Q 944 1744 1114 1308 
Q 1284 872 1643 656 
Q 2003 441 2422 441 
Q 2931 441 3284 734 
Q 3638 1028 3763 1606 
z
" transform="scale(0.015625)"/>
        <path id="ArialMT-41" d="M -9 0 
L 1750 4581 
L 2403 4581 
L 4278 0 
L 3588 0 
L 3053 1388 
L 1138 1388 
L 634 0 
L -9 0 
z
M 1313 1881 
L 2866 1881 
L 2388 3150 
Q 2169 3728 2063 4100 
Q 1975 3659 1816 3225 
L 1313 1881 
z
" transform="scale(0.015625)"/>
        <path id="ArialMT-49" d="M 597 0 
L 597 4581 
L 1203 4581 
L 1203 0 
L 597 0 
z
" transform="scale(0.015625)"/>
        <path id="ArialMT-4f" d="M 309 2231 
Q 309 3372 921 4017 
Q 1534 4663 2503 4663 
Q 3138 4663 3647 4359 
Q 4156 4056 4423 3514 
Q 4691 2972 4691 2284 
Q 4691 1588 4409 1038 
Q 4128 488 3612 205 
Q 3097 -78 2500 -78 
Q 1853 -78 1343 234 
Q 834 547 571 1087 
Q 309 1628 309 2231 
z
M 934 2222 
Q 934 1394 1379 917 
Q 1825 441 2497 441 
Q 3181 441 3623 922 
Q 4066 1403 4066 2288 
Q 4066 2847 3877 3264 
Q 3688 3681 3323 3911 
Q 2959 4141 2506 4141 
Q 1863 4141 1398 3698 
Q 934 3256 934 2222 
z
" transform="scale(0.015625)"/>
       </defs>
       <use xlink:href="#ArialMT-43"/>
       <use xlink:href="#ArialMT-41" transform="translate(72.216797 0)"/>
       <use xlink:href="#ArialMT-49" transform="translate(138.916016 0)"/>
       <use xlink:href="#ArialMT-53" transform="translate(166.699219 0)"/>
       <use xlink:href="#ArialMT-4f" transform="translate(233.398438 0)"/>
      </g>
     </g>
    </g>
    <g id="xtick_3">
     <g id="line2d_3">
      <g>
       <use xlink:href="#m23c7d5ea04" x="108.789965" y="107.925707" style="stroke: #000000"/>
      </g>
     </g>
     <g id="text_3">
      <!-- ERCOT -->
      <g transform="translate(96.539965 119.436176) scale(0.07 -0.07)">
       <defs>
        <path id="ArialMT-45" d="M 506 0 
L 506 4581 
L 3819 4581 
L 3819 4041 
L 1113 4041 
L 1113 2638 
L 3647 2638 
L 3647 2100 
L 1113 2100 
L 1113 541 
L 3925 541 
L 3925 0 
L 506 0 
z
" transform="scale(0.015625)"/>
        <path id="ArialMT-52" d="M 503 0 
L 503 4581 
L 2534 4581 
Q 3147 4581 3465 4457 
Q 3784 4334 3975 4021 
Q 4166 3709 4166 3331 
Q 4166 2844 3850 2509 
Q 3534 2175 2875 2084 
Q 3116 1969 3241 1856 
Q 3506 1613 3744 1247 
L 4541 0 
L 3778 0 
L 3172 953 
Q 2906 1366 2734 1584 
Q 2563 1803 2427 1890 
Q 2291 1978 2150 2013 
Q 2047 2034 1813 2034 
L 1109 2034 
L 1109 0 
L 503 0 
z
M 1109 2559 
L 2413 2559 
Q 2828 2559 3062 2645 
Q 3297 2731 3419 2920 
Q 3541 3109 3541 3331 
Q 3541 3656 3305 3865 
Q 3069 4075 2559 4075 
L 1109 4075 
L 1109 2559 
z
" transform="scale(0.015625)"/>
        <path id="ArialMT-54" d="M 1659 0 
L 1659 4041 
L 150 4041 
L 150 4581 
L 3781 4581 
L 3781 4041 
L 2266 4041 
L 2266 0 
L 1659 0 
z
" transform="scale(0.015625)"/>
       </defs>
       <use xlink:href="#ArialMT-45"/>
       <use xlink:href="#ArialMT-52" transform="translate(66.699219 0)"/>
       <use xlink:href="#ArialMT-43" transform="translate(138.916016 0)"/>
       <use xlink:href="#ArialMT-4f" transform="translate(211.132812 0)"/>
       <use xlink:href="#ArialMT-54" transform="translate(288.916016 0)"/>
      </g>
     </g>
    </g>
    <g id="xtick_4">
     <g id="line2d_4">
      <g>
       <use xlink:href="#m23c7d5ea04" x="134.805299" y="107.925707" style="stroke: #000000"/>
      </g>
     </g>
     <g id="text_4">
      <!-- PJM -->
      <g transform="translate(127.805299 119.436176) scale(0.07 -0.07)">
       <defs>
        <path id="ArialMT-4a" d="M 184 1300 
L 731 1375 
Q 753 850 928 656 
Q 1103 463 1413 463 
Q 1641 463 1806 567 
Q 1972 672 2034 851 
Q 2097 1031 2097 1425 
L 2097 4581 
L 2703 4581 
L 2703 1459 
Q 2703 884 2564 568 
Q 2425 253 2123 87 
Q 1822 -78 1416 -78 
Q 813 -78 492 269 
Q 172 616 184 1300 
z
" transform="scale(0.015625)"/>
        <path id="ArialMT-4d" d="M 475 0 
L 475 4581 
L 1388 4581 
L 2472 1338 
Q 2622 884 2691 659 
Q 2769 909 2934 1394 
L 4031 4581 
L 4847 4581 
L 4847 0 
L 4263 0 
L 4263 3834 
L 2931 0 
L 2384 0 
L 1059 3900 
L 1059 0 
L 475 0 
z
" transform="scale(0.015625)"/>
       </defs>
       <use xlink:href="#ArialMT-50"/>
       <use xlink:href="#ArialMT-4a" transform="translate(66.699219 0)"/>
       <use xlink:href="#ArialMT-4d" transform="translate(116.699219 0)"/>
      </g>
     </g>
    </g>
    <g id="xtick_5">
     <g id="line2d_5">
      <g>
       <use xlink:href="#m23c7d5ea04" x="160.820633" y="107.925707" style="stroke: #000000"/>
      </g>
     </g>
     <g id="text_5">
      <!-- MISO -->
      <g transform="translate(151.875945 119.436176) scale(0.07 -0.07)">
       <use xlink:href="#ArialMT-4d"/>
       <use xlink:href="#ArialMT-49" transform="translate(83.300781 0)"/>
       <use xlink:href="#ArialMT-53" transform="translate(111.083984 0)"/>
       <use xlink:href="#ArialMT-4f" transform="translate(177.783203 0)"/>
      </g>
     </g>
    </g>
    <g id="xtick_6">
     <g id="line2d_6">
      <g>
       <use xlink:href="#m23c7d5ea04" x="186.835966" y="107.925707" style="stroke: #000000"/>
      </g>
     </g>
     <g id="text_6">
      <!-- NYISO -->
      <g transform="translate(175.944404 119.436176) scale(0.07 -0.07)">
       <defs>
        <path id="ArialMT-4e" d="M 488 0 
L 488 4581 
L 1109 4581 
L 3516 984 
L 3516 4581 
L 4097 4581 
L 4097 0 
L 3475 0 
L 1069 3600 
L 1069 0 
L 488 0 
z
" transform="scale(0.015625)"/>
        <path id="ArialMT-59" d="M 1784 0 
L 1784 1941 
L 19 4581 
L 756 4581 
L 1659 3200 
Q 1909 2813 2125 2425 
Q 2331 2784 2625 3234 
L 3513 4581 
L 4219 4581 
L 2391 1941 
L 2391 0 
L 1784 0 
z
" transform="scale(0.015625)"/>
       </defs>
       <use xlink:href="#ArialMT-4e"/>
       <use xlink:href="#ArialMT-59" transform="translate(72.216797 0)"/>
       <use xlink:href="#ArialMT-49" transform="translate(138.916016 0)"/>
       <use xlink:href="#ArialMT-53" transform="translate(166.699219 0)"/>
       <use xlink:href="#ArialMT-4f" transform="translate(233.398438 0)"/>
      </g>
     </g>
    </g>
    <g id="xtick_7">
     <g id="line2d_7">
      <g>
       <use xlink:href="#m23c7d5ea04" x="212.8513" y="107.925707" style="stroke: #000000"/>
      </g>
     </g>
     <g id="text_7">
      <!-- ISONE -->
      <g transform="translate(201.959737 119.436176) scale(0.07 -0.07)">
       <use xlink:href="#ArialMT-49"/>
       <use xlink:href="#ArialMT-53" transform="translate(27.783203 0)"/>
       <use xlink:href="#ArialMT-4f" transform="translate(94.482422 0)"/>
       <use xlink:href="#ArialMT-4e" transform="translate(172.265625 0)"/>
       <use xlink:href="#ArialMT-45" transform="translate(244.482422 0)"/>
      </g>
     </g>
    </g>
   </g>
   <g id="matplotlib.axis_2">
    <g id="ytick_1">
     <g id="line2d_8">
      <defs>
       <path id="m60ecd4c7b2" d="M 0 0 
L -3 0 
" style="stroke: #000000"/>
      </defs>
      <g>
       <use xlink:href="#m60ecd4c7b2" x="35.947031" y="107.925707" style="stroke: #000000"/>
      </g>
     </g>
     <g id="text_8">
      <!-- 0 -->
      <g transform="translate(25.554375 110.430941) scale(0.07 -0.07)">
       <defs>
        <path id="ArialMT-30" d="M 266 2259 
Q 266 3072 433 3567 
Q 600 4063 929 4331 
Q 1259 4600 1759 4600 
Q 2128 4600 2406 4451 
Q 2684 4303 2865 4023 
Q 3047 3744 3150 3342 
Q 3253 2941 3253 2259 
Q 3253 1453 3087 958 
Q 2922 463 2592 192 
Q 2263 -78 1759 -78 
Q 1097 -78 719 397 
Q 266 969 266 2259 
z
M 844 2259 
Q 844 1131 1108 757 
Q 1372 384 1759 384 
Q 2147 384 2411 759 
Q 2675 1134 2675 2259 
Q 2675 3391 2411 3762 
Q 2147 4134 1753 4134 
Q 1366 4134 1134 3806 
Q 844 3388 844 2259 
z
" transform="scale(0.015625)"/>
       </defs>
       <use xlink:href="#ArialMT-30"/>
      </g>
     </g>
    </g>
    <g id="ytick_2">
     <g id="line2d_9">
      <g>
       <use xlink:href="#m60ecd4c7b2" x="35.947031" y="95.648148" style="stroke: #000000"/>
      </g>
     </g>
     <g id="text_9">
      <!-- 20 -->
      <g transform="translate(21.661719 98.153382) scale(0.07 -0.07)">
       <defs>
        <path id="ArialMT-32" d="M 3222 541 
L 3222 0 
L 194 0 
Q 188 203 259 391 
Q 375 700 629 1000 
Q 884 1300 1366 1694 
Q 2113 2306 2375 2664 
Q 2638 3022 2638 3341 
Q 2638 3675 2398 3904 
Q 2159 4134 1775 4134 
Q 1369 4134 1125 3890 
Q 881 3647 878 3216 
L 300 3275 
Q 359 3922 746 4261 
Q 1134 4600 1788 4600 
Q 2447 4600 2831 4234 
Q 3216 3869 3216 3328 
Q 3216 3053 3103 2787 
Q 2991 2522 2730 2228 
Q 2469 1934 1863 1422 
Q 1356 997 1212 845 
Q 1069 694 975 541 
L 3222 541 
z
" transform="scale(0.015625)"/>
       </defs>
       <use xlink:href="#ArialMT-32"/>
       <use xlink:href="#ArialMT-30" transform="translate(55.615234 0)"/>
      </g>
     </g>
    </g>
    <g id="ytick_3">
     <g id="line2d_10">
      <g>
       <use xlink:href="#m60ecd4c7b2" x="35.947031" y="83.370589" style="stroke: #000000"/>
      </g>
     </g>
     <g id="text_10">
      <!-- 40 -->
      <g transform="translate(21.661719 85.875823) scale(0.07 -0.07)">
       <defs>
        <path id="ArialMT-34" d="M 2069 0 
L 2069 1097 
L 81 1097 
L 81 1613 
L 2172 4581 
L 2631 4581 
L 2631 1613 
L 3250 1613 
L 3250 1097 
L 2631 1097 
L 2631 0 
L 2069 0 
z
M 2069 1613 
L 2069 3678 
L 634 1613 
L 2069 1613 
z
" transform="scale(0.015625)"/>
       </defs>
       <use xlink:href="#ArialMT-34"/>
       <use xlink:href="#ArialMT-30" transform="translate(55.615234 0)"/>
      </g>
     </g>
    </g>
    <g id="ytick_4">
     <g id="line2d_11">
      <g>
       <use xlink:href="#m60ecd4c7b2" x="35.947031" y="71.09303" style="stroke: #000000"/>
      </g>
     </g>
     <g id="text_11">
      <!-- 60 -->
      <g transform="translate(21.661719 73.598264) scale(0.07 -0.07)">
       <defs>
        <path id="ArialMT-36" d="M 3184 3459 
L 2625 3416 
Q 2550 3747 2413 3897 
Q 2184 4138 1850 4138 
Q 1581 4138 1378 3988 
Q 1113 3794 959 3422 
Q 806 3050 800 2363 
Q 1003 2672 1297 2822 
Q 1591 2972 1913 2972 
Q 2475 2972 2870 2558 
Q 3266 2144 3266 1488 
Q 3266 1056 3080 686 
Q 2894 316 2569 119 
Q 2244 -78 1831 -78 
Q 1128 -78 684 439 
Q 241 956 241 2144 
Q 241 3472 731 4075 
Q 1159 4600 1884 4600 
Q 2425 4600 2770 4297 
Q 3116 3994 3184 3459 
z
M 888 1484 
Q 888 1194 1011 928 
Q 1134 663 1356 523 
Q 1578 384 1822 384 
Q 2178 384 2434 671 
Q 2691 959 2691 1453 
Q 2691 1928 2437 2201 
Q 2184 2475 1800 2475 
Q 1419 2475 1153 2201 
Q 888 1928 888 1484 
z
" transform="scale(0.015625)"/>
       </defs>
       <use xlink:href="#ArialMT-36"/>
       <use xlink:href="#ArialMT-30" transform="translate(55.615234 0)"/>
      </g>
     </g>
    </g>
    <g id="ytick_5">
     <g id="line2d_12">
      <g>
       <use xlink:href="#m60ecd4c7b2" x="35.947031" y="58.815471" style="stroke: #000000"/>
      </g>
     </g>
     <g id="text_12">
      <!-- 80 -->
      <g transform="translate(21.661719 61.320705) scale(0.07 -0.07)">
       <defs>
        <path id="ArialMT-38" d="M 1131 2484 
Q 781 2613 612 2850 
Q 444 3088 444 3419 
Q 444 3919 803 4259 
Q 1163 4600 1759 4600 
Q 2359 4600 2725 4251 
Q 3091 3903 3091 3403 
Q 3091 3084 2923 2848 
Q 2756 2613 2416 2484 
Q 2838 2347 3058 2040 
Q 3278 1734 3278 1309 
Q 3278 722 2862 322 
Q 2447 -78 1769 -78 
Q 1091 -78 675 323 
Q 259 725 259 1325 
Q 259 1772 486 2073 
Q 713 2375 1131 2484 
z
M 1019 3438 
Q 1019 3113 1228 2906 
Q 1438 2700 1772 2700 
Q 2097 2700 2305 2904 
Q 2513 3109 2513 3406 
Q 2513 3716 2298 3927 
Q 2084 4138 1766 4138 
Q 1444 4138 1231 3931 
Q 1019 3725 1019 3438 
z
M 838 1322 
Q 838 1081 952 856 
Q 1066 631 1291 507 
Q 1516 384 1775 384 
Q 2178 384 2440 643 
Q 2703 903 2703 1303 
Q 2703 1709 2433 1975 
Q 2163 2241 1756 2241 
Q 1359 2241 1098 1978 
Q 838 1716 838 1322 
z
" transform="scale(0.015625)"/>
       </defs>
       <use xlink:href="#ArialMT-38"/>
       <use xlink:href="#ArialMT-30" transform="translate(55.615234 0)"/>
      </g>
     </g>
    </g>
    <g id="ytick_6">
     <g id="line2d_13">
      <g>
       <use xlink:href="#m60ecd4c7b2" x="35.947031" y="46.537912" style="stroke: #000000"/>
      </g>
     </g>
     <g id="text_13">
      <!-- 100 -->
      <g transform="translate(17.769063 49.043146) scale(0.07 -0.07)">
       <defs>
        <path id="ArialMT-31" d="M 2384 0 
L 1822 0 
L 1822 3584 
Q 1619 3391 1289 3197 
Q 959 3003 697 2906 
L 697 3450 
Q 1169 3672 1522 3987 
Q 1875 4303 2022 4600 
L 2384 4600 
L 2384 0 
z
" transform="scale(0.015625)"/>
       </defs>
       <use xlink:href="#ArialMT-31"/>
       <use xlink:href="#ArialMT-30" transform="translate(55.615234 0)"/>
       <use xlink:href="#ArialMT-30" transform="translate(111.230469 0)"/>
      </g>
     </g>
    </g>
    <g id="ytick_7">
     <g id="line2d_14">
      <g>
       <use xlink:href="#m60ecd4c7b2" x="35.947031" y="34.260352" style="stroke: #000000"/>
      </g>
     </g>
     <g id="text_14">
      <!-- 120 -->
      <g transform="translate(17.769063 36.765587) scale(0.07 -0.07)">
       <use xlink:href="#ArialMT-31"/>
       <use xlink:href="#ArialMT-32" transform="translate(55.615234 0)"/>
       <use xlink:href="#ArialMT-30" transform="translate(111.230469 0)"/>
      </g>
     </g>
    </g>
    <g id="ytick_8">
     <g id="line2d_15">
      <g>
       <use xlink:href="#m60ecd4c7b2" x="35.947031" y="21.982793" style="stroke: #000000"/>
      </g>
     </g>
     <g id="text_15">
      <!-- 140 -->
      <g transform="translate(17.769063 24.488028) scale(0.07 -0.07)">
       <use xlink:href="#ArialMT-31"/>
       <use xlink:href="#ArialMT-34" transform="translate(55.615234 0)"/>
       <use xlink:href="#ArialMT-30" transform="translate(111.230469 0)"/>
      </g>
     </g>
    </g>
    <g id="ytick_9">
     <g id="line2d_16">
      <g>
       <use xlink:href="#m60ecd4c7b2" x="35.947031" y="9.705234" style="stroke: #000000"/>
      </g>
     </g>
     <g id="text_16">
      <!-- 160 -->
      <g transform="translate(17.769063 12.210469) scale(0.07 -0.07)">
       <use xlink:href="#ArialMT-31"/>
       <use xlink:href="#ArialMT-36" transform="translate(55.615234 0)"/>
       <use xlink:href="#ArialMT-30" transform="translate(111.230469 0)"/>
      </g>
     </g>
    </g>
    <g id="text_17">
     <!-- Savings [%] -->
     <g transform="translate(12.295781 77.296017) rotate(-90) scale(0.07 -0.07)">
      <defs>
       <path id="ArialMT-61" d="M 2588 409 
Q 2275 144 1986 34 
Q 1697 -75 1366 -75 
Q 819 -75 525 192 
Q 231 459 231 875 
Q 231 1119 342 1320 
Q 453 1522 633 1644 
Q 813 1766 1038 1828 
Q 1203 1872 1538 1913 
Q 2219 1994 2541 2106 
Q 2544 2222 2544 2253 
Q 2544 2597 2384 2738 
Q 2169 2928 1744 2928 
Q 1347 2928 1158 2789 
Q 969 2650 878 2297 
L 328 2372 
Q 403 2725 575 2942 
Q 747 3159 1072 3276 
Q 1397 3394 1825 3394 
Q 2250 3394 2515 3294 
Q 2781 3194 2906 3042 
Q 3031 2891 3081 2659 
Q 3109 2516 3109 2141 
L 3109 1391 
Q 3109 606 3145 398 
Q 3181 191 3288 0 
L 2700 0 
Q 2613 175 2588 409 
z
M 2541 1666 
Q 2234 1541 1622 1453 
Q 1275 1403 1131 1340 
Q 988 1278 909 1158 
Q 831 1038 831 891 
Q 831 666 1001 516 
Q 1172 366 1500 366 
Q 1825 366 2078 508 
Q 2331 650 2450 897 
Q 2541 1088 2541 1459 
L 2541 1666 
z
" transform="scale(0.015625)"/>
       <path id="ArialMT-76" d="M 1344 0 
L 81 3319 
L 675 3319 
L 1388 1331 
Q 1503 1009 1600 663 
Q 1675 925 1809 1294 
L 2547 3319 
L 3125 3319 
L 1869 0 
L 1344 0 
z
" transform="scale(0.015625)"/>
       <path id="ArialMT-69" d="M 425 3934 
L 425 4581 
L 988 4581 
L 988 3934 
L 425 3934 
z
M 425 0 
L 425 3319 
L 988 3319 
L 988 0 
L 425 0 
z
" transform="scale(0.015625)"/>
       <path id="ArialMT-6e" d="M 422 0 
L 422 3319 
L 928 3319 
L 928 2847 
Q 1294 3394 1984 3394 
Q 2284 3394 2536 3286 
Q 2788 3178 2913 3003 
Q 3038 2828 3088 2588 
Q 3119 2431 3119 2041 
L 3119 0 
L 2556 0 
L 2556 2019 
Q 2556 2363 2490 2533 
Q 2425 2703 2258 2804 
Q 2091 2906 1866 2906 
Q 1506 2906 1245 2678 
Q 984 2450 984 1813 
L 984 0 
L 422 0 
z
" transform="scale(0.015625)"/>
       <path id="ArialMT-67" d="M 319 -275 
L 866 -356 
Q 900 -609 1056 -725 
Q 1266 -881 1628 -881 
Q 2019 -881 2231 -725 
Q 2444 -569 2519 -288 
Q 2563 -116 2559 434 
Q 2191 0 1641 0 
Q 956 0 581 494 
Q 206 988 206 1678 
Q 206 2153 378 2554 
Q 550 2956 876 3175 
Q 1203 3394 1644 3394 
Q 2231 3394 2613 2919 
L 2613 3319 
L 3131 3319 
L 3131 450 
Q 3131 -325 2973 -648 
Q 2816 -972 2473 -1159 
Q 2131 -1347 1631 -1347 
Q 1038 -1347 672 -1080 
Q 306 -813 319 -275 
z
M 784 1719 
Q 784 1066 1043 766 
Q 1303 466 1694 466 
Q 2081 466 2343 764 
Q 2606 1063 2606 1700 
Q 2606 2309 2336 2618 
Q 2066 2928 1684 2928 
Q 1309 2928 1046 2623 
Q 784 2319 784 1719 
z
" transform="scale(0.015625)"/>
       <path id="ArialMT-73" d="M 197 991 
L 753 1078 
Q 800 744 1014 566 
Q 1228 388 1613 388 
Q 2000 388 2187 545 
Q 2375 703 2375 916 
Q 2375 1106 2209 1216 
Q 2094 1291 1634 1406 
Q 1016 1563 777 1677 
Q 538 1791 414 1992 
Q 291 2194 291 2438 
Q 291 2659 392 2848 
Q 494 3038 669 3163 
Q 800 3259 1026 3326 
Q 1253 3394 1513 3394 
Q 1903 3394 2198 3281 
Q 2494 3169 2634 2976 
Q 2775 2784 2828 2463 
L 2278 2388 
Q 2241 2644 2061 2787 
Q 1881 2931 1553 2931 
Q 1166 2931 1000 2803 
Q 834 2675 834 2503 
Q 834 2394 903 2306 
Q 972 2216 1119 2156 
Q 1203 2125 1616 2013 
Q 2213 1853 2448 1751 
Q 2684 1650 2818 1456 
Q 2953 1263 2953 975 
Q 2953 694 2789 445 
Q 2625 197 2315 61 
Q 2006 -75 1616 -75 
Q 969 -75 630 194 
Q 291 463 197 991 
z
" transform="scale(0.015625)"/>
       <path id="ArialMT-20" transform="scale(0.015625)"/>
       <path id="ArialMT-5b" d="M 434 -1272 
L 434 4581 
L 1675 4581 
L 1675 4116 
L 997 4116 
L 997 -806 
L 1675 -806 
L 1675 -1272 
L 434 -1272 
z
" transform="scale(0.015625)"/>
       <path id="ArialMT-25" d="M 372 3481 
Q 372 3972 619 4315 
Q 866 4659 1334 4659 
Q 1766 4659 2048 4351 
Q 2331 4044 2331 3447 
Q 2331 2866 2045 2552 
Q 1759 2238 1341 2238 
Q 925 2238 648 2547 
Q 372 2856 372 3481 
z
M 1350 4272 
Q 1141 4272 1002 4090 
Q 863 3909 863 3425 
Q 863 2984 1003 2804 
Q 1144 2625 1350 2625 
Q 1563 2625 1702 2806 
Q 1841 2988 1841 3469 
Q 1841 3913 1700 4092 
Q 1559 4272 1350 4272 
z
M 1353 -169 
L 3859 4659 
L 4316 4659 
L 1819 -169 
L 1353 -169 
z
M 3334 1075 
Q 3334 1569 3581 1911 
Q 3828 2253 4300 2253 
Q 4731 2253 5014 1945 
Q 5297 1638 5297 1041 
Q 5297 459 5011 145 
Q 4725 -169 4303 -169 
Q 3888 -169 3611 142 
Q 3334 453 3334 1075 
z
M 4316 1866 
Q 4103 1866 3964 1684 
Q 3825 1503 3825 1019 
Q 3825 581 3965 400 
Q 4106 219 4313 219 
Q 4528 219 4667 400 
Q 4806 581 4806 1063 
Q 4806 1506 4665 1686 
Q 4525 1866 4316 1866 
z
" transform="scale(0.015625)"/>
       <path id="ArialMT-5d" d="M 1363 -1272 
L 122 -1272 
L 122 -806 
L 800 -806 
L 800 4116 
L 122 4116 
L 122 4581 
L 1363 4581 
L 1363 -1272 
z
" transform="scale(0.015625)"/>
      </defs>
      <use xlink:href="#ArialMT-53"/>
      <use xlink:href="#ArialMT-61" transform="translate(66.699219 0)"/>
      <use xlink:href="#ArialMT-76" transform="translate(122.314453 0)"/>
      <use xlink:href="#ArialMT-69" transform="translate(172.314453 0)"/>
      <use xlink:href="#ArialMT-6e" transform="translate(194.53125 0)"/>
      <use xlink:href="#ArialMT-67" transform="translate(250.146484 0)"/>
      <use xlink:href="#ArialMT-73" transform="translate(305.761719 0)"/>
      <use xlink:href="#ArialMT-20" transform="translate(355.761719 0)"/>
      <use xlink:href="#ArialMT-5b" transform="translate(383.544922 0)"/>
      <use xlink:href="#ArialMT-25" transform="translate(411.328125 0)"/>
      <use xlink:href="#ArialMT-5d" transform="translate(500.244141 0)"/>
     </g>
    </g>
   </g>
   <g id="patch_3">
    <path d="M 47.003548 101.15433 
L 50.905848 101.15433 
L 50.905848 99.072355 
L 47.003548 99.072355 
L 47.003548 101.15433 
z
" clip-path="url(#p9ecd83cada)" style="fill: #437ab5; stroke: #000000; stroke-width: 0.5; stroke-linejoin: miter"/>
   </g>
   <g id="line2d_17">
    <path d="M 48.954698 101.15433 
L 48.954698 104.496446 
" clip-path="url(#p9ecd83cada)" style="fill: none; stroke: #000000; stroke-width: 0.5; stroke-linecap: square"/>
   </g>
   <g id="line2d_18">
    <path d="M 48.954698 99.072355 
L 48.954698 96.419303 
" clip-path="url(#p9ecd83cada)" style="fill: none; stroke: #000000; stroke-width: 0.5; stroke-linecap: square"/>
   </g>
   <g id="line2d_19">
    <path d="M 47.979123 104.496446 
L 49.930273 104.496446 
" clip-path="url(#p9ecd83cada)" style="fill: none; stroke: #000000; stroke-width: 0.5; stroke-linecap: square"/>
   </g>
   <g id="line2d_20">
    <path d="M 47.979123 96.419303 
L 49.930273 96.419303 
" clip-path="url(#p9ecd83cada)" style="fill: none; stroke: #000000; stroke-width: 0.5; stroke-linecap: square"/>
   </g>
   <g id="patch_4">
    <path d="M 73.018882 93.432073 
L 76.921182 93.432073 
L 76.921182 89.600531 
L 73.018882 89.600531 
L 73.018882 93.432073 
z
" clip-path="url(#p9ecd83cada)" style="fill: #437ab5; stroke: #000000; stroke-width: 0.5; stroke-linejoin: miter"/>
   </g>
   <g id="line2d_21">
    <path d="M 74.970032 93.432073 
L 74.970032 94.387891 
" clip-path="url(#p9ecd83cada)" style="fill: none; stroke: #000000; stroke-width: 0.5; stroke-linecap: square"/>
   </g>
   <g id="line2d_22">
    <path d="M 74.970032 89.600531 
L 74.970032 88.268181 
" clip-path="url(#p9ecd83cada)" style="fill: none; stroke: #000000; stroke-width: 0.5; stroke-linecap: square"/>
   </g>
   <g id="line2d_23">
    <path d="M 73.994457 94.387891 
L 75.945607 94.387891 
" clip-path="url(#p9ecd83cada)" style="fill: none; stroke: #000000; stroke-width: 0.5; stroke-linecap: square"/>
   </g>
   <g id="line2d_24">
    <path d="M 73.994457 88.268181 
L 75.945607 88.268181 
" clip-path="url(#p9ecd83cada)" style="fill: none; stroke: #000000; stroke-width: 0.5; stroke-linecap: square"/>
   </g>
   <g id="patch_5">
    <path d="M 99.034215 102.136947 
L 102.936515 102.136947 
L 102.936515 101.432839 
L 99.034215 101.432839 
L 99.034215 102.136947 
z
" clip-path="url(#p9ecd83cada)" style="fill: #437ab5; stroke: #000000; stroke-width: 0.5; stroke-linejoin: miter"/>
   </g>
   <g id="line2d_25">
    <path d="M 100.985365 102.136947 
L 100.985365 103.554701 
" clip-path="url(#p9ecd83cada)" style="fill: none; stroke: #000000; stroke-width: 0.5; stroke-linecap: square"/>
   </g>
   <g id="line2d_26">
    <path d="M 100.985365 101.432839 
L 100.985365 96.463761 
" clip-path="url(#p9ecd83cada)" style="fill: none; stroke: #000000; stroke-width: 0.5; stroke-linecap: square"/>
   </g>
   <g id="line2d_27">
    <path d="M 100.00979 103.554701 
L 101.96094 103.554701 
" clip-path="url(#p9ecd83cada)" style="fill: none; stroke: #000000; stroke-width: 0.5; stroke-linecap: square"/>
   </g>
   <g id="line2d_28">
    <path d="M 100.00979 96.463761 
L 101.96094 96.463761 
" clip-path="url(#p9ecd83cada)" style="fill: none; stroke: #000000; stroke-width: 0.5; stroke-linecap: square"/>
   </g>
   <g id="patch_6">
    <path d="M 125.049549 106.203629 
L 128.951849 106.203629 
L 128.951849 104.861891 
L 125.049549 104.861891 
L 125.049549 106.203629 
z
" clip-path="url(#p9ecd83cada)" style="fill: #437ab5; stroke: #000000; stroke-width: 0.5; stroke-linejoin: miter"/>
   </g>
   <g id="line2d_29">
    <path d="M 127.000699 106.203629 
L 127.000699 106.559062 
" clip-path="url(#p9ecd83cada)" style="fill: none; stroke: #000000; stroke-width: 0.5; stroke-linecap: square"/>
   </g>
   <g id="line2d_30">
    <path d="M 127.000699 104.861891 
L 127.000699 104.597844 
" clip-path="url(#p9ecd83cada)" style="fill: none; stroke: #000000; stroke-width: 0.5; stroke-linecap: square"/>
   </g>
   <g id="line2d_31">
    <path d="M 126.025124 106.559062 
L 127.976274 106.559062 
" clip-path="url(#p9ecd83cada)" style="fill: none; stroke: #000000; stroke-width: 0.5; stroke-linecap: square"/>
   </g>
   <g id="line2d_32">
    <path d="M 126.025124 104.597844 
L 127.976274 104.597844 
" clip-path="url(#p9ecd83cada)" style="fill: none; stroke: #000000; stroke-width: 0.5; stroke-linecap: square"/>
   </g>
   <g id="patch_7">
    <path d="M 151.064882 104.943174 
L 154.967183 104.943174 
L 154.967183 103.406903 
L 151.064882 103.406903 
L 151.064882 104.943174 
z
" clip-path="url(#p9ecd83cada)" style="fill: #437ab5; stroke: #000000; stroke-width: 0.5; stroke-linejoin: miter"/>
   </g>
   <g id="line2d_33">
    <path d="M 153.016032 104.943174 
L 153.016032 105.59101 
" clip-path="url(#p9ecd83cada)" style="fill: none; stroke: #000000; stroke-width: 0.5; stroke-linecap: square"/>
   </g>
   <g id="line2d_34">
    <path d="M 153.016032 103.406903 
L 153.016032 101.722615 
" clip-path="url(#p9ecd83cada)" style="fill: none; stroke: #000000; stroke-width: 0.5; stroke-linecap: square"/>
   </g>
   <g id="line2d_35">
    <path d="M 152.040457 105.59101 
L 153.991608 105.59101 
" clip-path="url(#p9ecd83cada)" style="fill: none; stroke: #000000; stroke-width: 0.5; stroke-linecap: square"/>
   </g>
   <g id="line2d_36">
    <path d="M 152.040457 101.722615 
L 153.991608 101.722615 
" clip-path="url(#p9ecd83cada)" style="fill: none; stroke: #000000; stroke-width: 0.5; stroke-linecap: square"/>
   </g>
   <g id="patch_8">
    <path d="M 177.080216 106.318935 
L 180.982516 106.318935 
L 180.982516 105.832008 
L 177.080216 105.832008 
L 177.080216 106.318935 
z
" clip-path="url(#p9ecd83cada)" style="fill: #437ab5; stroke: #000000; stroke-width: 0.5; stroke-linejoin: miter"/>
   </g>
   <g id="line2d_37">
    <path d="M 179.031366 106.318935 
L 179.031366 106.704104 
" clip-path="url(#p9ecd83cada)" style="fill: none; stroke: #000000; stroke-width: 0.5; stroke-linecap: square"/>
   </g>
   <g id="line2d_38">
    <path d="M 179.031366 105.832008 
L 179.031366 105.584613 
" clip-path="url(#p9ecd83cada)" style="fill: none; stroke: #000000; stroke-width: 0.5; stroke-linecap: square"/>
   </g>
   <g id="line2d_39">
    <path d="M 178.055791 106.704104 
L 180.006941 106.704104 
" clip-path="url(#p9ecd83cada)" style="fill: none; stroke: #000000; stroke-width: 0.5; stroke-linecap: square"/>
   </g>
   <g id="line2d_40">
    <path d="M 178.055791 105.584613 
L 180.006941 105.584613 
" clip-path="url(#p9ecd83cada)" style="fill: none; stroke: #000000; stroke-width: 0.5; stroke-linecap: square"/>
   </g>
   <g id="patch_9">
    <path d="M 203.09555 105.112857 
L 206.99785 105.112857 
L 206.99785 103.862927 
L 203.09555 103.862927 
L 203.09555 105.112857 
z
" clip-path="url(#p9ecd83cada)" style="fill: #437ab5; stroke: #000000; stroke-width: 0.5; stroke-linejoin: miter"/>
   </g>
   <g id="line2d_41">
    <path d="M 205.0467 105.112857 
L 205.0467 106.90956 
" clip-path="url(#p9ecd83cada)" style="fill: none; stroke: #000000; stroke-width: 0.5; stroke-linecap: square"/>
   </g>
   <g id="line2d_42">
    <path d="M 205.0467 103.862927 
L 205.0467 101.70667 
" clip-path="url(#p9ecd83cada)" style="fill: none; stroke: #000000; stroke-width: 0.5; stroke-linecap: square"/>
   </g>
   <g id="line2d_43">
    <path d="M 204.071125 106.90956 
L 206.022275 106.90956 
" clip-path="url(#p9ecd83cada)" style="fill: none; stroke: #000000; stroke-width: 0.5; stroke-linecap: square"/>
   </g>
   <g id="line2d_44">
    <path d="M 204.071125 101.70667 
L 206.022275 101.70667 
" clip-path="url(#p9ecd83cada)" style="fill: none; stroke: #000000; stroke-width: 0.5; stroke-linecap: square"/>
   </g>
   <g id="patch_10">
    <path d="M 52.206615 99.940531 
L 56.108915 99.940531 
L 56.108915 95.87425 
L 52.206615 95.87425 
L 52.206615 99.940531 
z
" clip-path="url(#p9ecd83cada)" style="fill: #2c954d; stroke: #000000; stroke-width: 0.5; stroke-linejoin: miter"/>
   </g>
   <g id="line2d_45">
    <path d="M 54.157765 99.940531 
L 54.157765 102.318583 
" clip-path="url(#p9ecd83cada)" style="fill: none; stroke: #000000; stroke-width: 0.5; stroke-linecap: square"/>
   </g>
   <g id="line2d_46">
    <path d="M 54.157765 95.87425 
L 54.157765 91.964292 
" clip-path="url(#p9ecd83cada)" style="fill: none; stroke: #000000; stroke-width: 0.5; stroke-linecap: square"/>
   </g>
   <g id="line2d_47">
    <path d="M 53.18219 102.318583 
L 55.13334 102.318583 
" clip-path="url(#p9ecd83cada)" style="fill: none; stroke: #000000; stroke-width: 0.5; stroke-linecap: square"/>
   </g>
   <g id="line2d_48">
    <path d="M 53.18219 91.964292 
L 55.13334 91.964292 
" clip-path="url(#p9ecd83cada)" style="fill: none; stroke: #000000; stroke-width: 0.5; stroke-linecap: square"/>
   </g>
   <g id="patch_11">
    <path d="M 78.221948 93.194902 
L 82.124248 93.194902 
L 82.124248 90.724064 
L 78.221948 90.724064 
L 78.221948 93.194902 
z
" clip-path="url(#p9ecd83cada)" style="fill: #2c954d; stroke: #000000; stroke-width: 0.5; stroke-linejoin: miter"/>
   </g>
   <g id="line2d_49">
    <path d="M 80.173098 93.194902 
L 80.173098 94.843723 
" clip-path="url(#p9ecd83cada)" style="fill: none; stroke: #000000; stroke-width: 0.5; stroke-linecap: square"/>
   </g>
   <g id="line2d_50">
    <path d="M 80.173098 90.724064 
L 80.173098 84.886734 
" clip-path="url(#p9ecd83cada)" style="fill: none; stroke: #000000; stroke-width: 0.5; stroke-linecap: square"/>
   </g>
   <g id="line2d_51">
    <path d="M 79.197523 94.843723 
L 81.148673 94.843723 
" clip-path="url(#p9ecd83cada)" style="fill: none; stroke: #000000; stroke-width: 0.5; stroke-linecap: square"/>
   </g>
   <g id="line2d_52">
    <path d="M 79.197523 84.886734 
L 81.148673 84.886734 
" clip-path="url(#p9ecd83cada)" style="fill: none; stroke: #000000; stroke-width: 0.5; stroke-linecap: square"/>
   </g>
   <g id="patch_12">
    <path d="M 104.237282 97.732587 
L 108.139582 97.732587 
L 108.139582 91.897234 
L 104.237282 91.897234 
L 104.237282 97.732587 
z
" clip-path="url(#p9ecd83cada)" style="fill: #2c954d; stroke: #000000; stroke-width: 0.5; stroke-linejoin: miter"/>
   </g>
   <g id="line2d_53">
    <path d="M 106.188432 97.732587 
L 106.188432 101.127581 
" clip-path="url(#p9ecd83cada)" style="fill: none; stroke: #000000; stroke-width: 0.5; stroke-linecap: square"/>
   </g>
   <g id="line2d_54">
    <path d="M 106.188432 91.897234 
L 106.188432 85.83405 
" clip-path="url(#p9ecd83cada)" style="fill: none; stroke: #000000; stroke-width: 0.5; stroke-linecap: square"/>
   </g>
   <g id="line2d_55">
    <path d="M 105.212857 101.127581 
L 107.164007 101.127581 
" clip-path="url(#p9ecd83cada)" style="fill: none; stroke: #000000; stroke-width: 0.5; stroke-linecap: square"/>
   </g>
   <g id="line2d_56">
    <path d="M 105.212857 85.83405 
L 107.164007 85.83405 
" clip-path="url(#p9ecd83cada)" style="fill: none; stroke: #000000; stroke-width: 0.5; stroke-linecap: square"/>
   </g>
   <g id="patch_13">
    <path d="M 130.252616 96.997994 
L 134.154916 96.997994 
L 134.154916 93.352715 
L 130.252616 93.352715 
L 130.252616 96.997994 
z
" clip-path="url(#p9ecd83cada)" style="fill: #2c954d; stroke: #000000; stroke-width: 0.5; stroke-linejoin: miter"/>
   </g>
   <g id="line2d_57">
    <path d="M 132.203766 96.997994 
L 132.203766 99.446469 
" clip-path="url(#p9ecd83cada)" style="fill: none; stroke: #000000; stroke-width: 0.5; stroke-linecap: square"/>
   </g>
   <g id="line2d_58">
    <path d="M 132.203766 93.352715 
L 132.203766 91.144814 
" clip-path="url(#p9ecd83cada)" style="fill: none; stroke: #000000; stroke-width: 0.5; stroke-linecap: square"/>
   </g>
   <g id="line2d_59">
    <path d="M 131.228191 99.446469 
L 133.179341 99.446469 
" clip-path="url(#p9ecd83cada)" style="fill: none; stroke: #000000; stroke-width: 0.5; stroke-linecap: square"/>
   </g>
   <g id="line2d_60">
    <path d="M 131.228191 91.144814 
L 133.179341 91.144814 
" clip-path="url(#p9ecd83cada)" style="fill: none; stroke: #000000; stroke-width: 0.5; stroke-linecap: square"/>
   </g>
   <g id="patch_14">
    <path d="M 156.267949 97.188827 
L 160.170249 97.188827 
L 160.170249 95.436117 
L 156.267949 95.436117 
L 156.267949 97.188827 
z
" clip-path="url(#p9ecd83cada)" style="fill: #2c954d; stroke: #000000; stroke-width: 0.5; stroke-linejoin: miter"/>
   </g>
   <g id="line2d_61">
    <path d="M 158.219099 97.188827 
L 158.219099 100.219702 
" clip-path="url(#p9ecd83cada)" style="fill: none; stroke: #000000; stroke-width: 0.5; stroke-linecap: square"/>
   </g>
   <g id="line2d_62">
    <path d="M 158.219099 95.436117 
L 158.219099 84.71433 
" clip-path="url(#p9ecd83cada)" style="fill: none; stroke: #000000; stroke-width: 0.5; stroke-linecap: square"/>
   </g>
   <g id="line2d_63">
    <path d="M 157.243524 100.219702 
L 159.194674 100.219702 
" clip-path="url(#p9ecd83cada)" style="fill: none; stroke: #000000; stroke-width: 0.5; stroke-linecap: square"/>
   </g>
   <g id="line2d_64">
    <path d="M 157.243524 84.71433 
L 159.194674 84.71433 
" clip-path="url(#p9ecd83cada)" style="fill: none; stroke: #000000; stroke-width: 0.5; stroke-linecap: square"/>
   </g>
   <g id="patch_15">
    <path d="M 182.283283 94.124737 
L 186.185583 94.124737 
L 186.185583 89.15685 
L 182.283283 89.15685 
L 182.283283 94.124737 
z
" clip-path="url(#p9ecd83cada)" style="fill: #2c954d; stroke: #000000; stroke-width: 0.5; stroke-linejoin: miter"/>
   </g>
   <g id="line2d_65">
    <path d="M 184.234433 94.124737 
L 184.234433 98.656413 
" clip-path="url(#p9ecd83cada)" style="fill: none; stroke: #000000; stroke-width: 0.5; stroke-linecap: square"/>
   </g>
   <g id="line2d_66">
    <path d="M 184.234433 89.15685 
L 184.234433 86.881582 
" clip-path="url(#p9ecd83cada)" style="fill: none; stroke: #000000; stroke-width: 0.5; stroke-linecap: square"/>
   </g>
   <g id="line2d_67">
    <path d="M 183.258858 98.656413 
L 185.210008 98.656413 
" clip-path="url(#p9ecd83cada)" style="fill: none; stroke: #000000; stroke-width: 0.5; stroke-linecap: square"/>
   </g>
   <g id="line2d_68">
    <path d="M 183.258858 86.881582 
L 185.210008 86.881582 
" clip-path="url(#p9ecd83cada)" style="fill: none; stroke: #000000; stroke-width: 0.5; stroke-linecap: square"/>
   </g>
   <g id="patch_16">
    <path d="M 208.298616 96.520547 
L 212.200916 96.520547 
L 212.200916 91.043801 
L 208.298616 91.043801 
L 208.298616 96.520547 
z
" clip-path="url(#p9ecd83cada)" style="fill: #2c954d; stroke: #000000; stroke-width: 0.5; stroke-linejoin: miter"/>
   </g>
   <g id="line2d_69">
    <path d="M 210.249766 96.520547 
L 210.249766 98.772279 
" clip-path="url(#p9ecd83cada)" style="fill: none; stroke: #000000; stroke-width: 0.5; stroke-linecap: square"/>
   </g>
   <g id="line2d_70">
    <path d="M 210.249766 91.043801 
L 210.249766 87.974834 
" clip-path="url(#p9ecd83cada)" style="fill: none; stroke: #000000; stroke-width: 0.5; stroke-linecap: square"/>
   </g>
   <g id="line2d_71">
    <path d="M 209.274191 98.772279 
L 211.225341 98.772279 
" clip-path="url(#p9ecd83cada)" style="fill: none; stroke: #000000; stroke-width: 0.5; stroke-linecap: square"/>
   </g>
   <g id="line2d_72">
    <path d="M 209.274191 87.974834 
L 211.225341 87.974834 
" clip-path="url(#p9ecd83cada)" style="fill: none; stroke: #000000; stroke-width: 0.5; stroke-linecap: square"/>
   </g>
   <g id="patch_17">
    <path d="M 57.409681 68.887373 
L 61.311982 68.887373 
L 61.311982 47.324063 
L 57.409681 47.324063 
L 57.409681 68.887373 
z
" clip-path="url(#p9ecd83cada)" style="fill: #d5702f; stroke: #000000; stroke-width: 0.5; stroke-linejoin: miter"/>
   </g>
   <g id="line2d_73">
    <path d="M 59.360831 68.887373 
L 59.360831 91.999533 
" clip-path="url(#p9ecd83cada)" style="fill: none; stroke: #000000; stroke-width: 0.5; stroke-linecap: square"/>
   </g>
   <g id="line2d_74">
    <path d="M 59.360831 47.324063 
L 59.360831 15.143553 
" clip-path="url(#p9ecd83cada)" style="fill: none; stroke: #000000; stroke-width: 0.5; stroke-linecap: square"/>
   </g>
   <g id="line2d_75">
    <path d="M 58.385256 91.999533 
L 60.336407 91.999533 
" clip-path="url(#p9ecd83cada)" style="fill: none; stroke: #000000; stroke-width: 0.5; stroke-linecap: square"/>
   </g>
   <g id="line2d_76">
    <path d="M 58.385256 15.143553 
L 60.336407 15.143553 
" clip-path="url(#p9ecd83cada)" style="fill: none; stroke: #000000; stroke-width: 0.5; stroke-linecap: square"/>
   </g>
   <g id="patch_18">
    <path d="M 83.425015 82.911246 
L 87.327315 82.911246 
L 87.327315 73.271426 
L 83.425015 73.271426 
L 83.425015 82.911246 
z
" clip-path="url(#p9ecd83cada)" style="fill: #d5702f; stroke: #000000; stroke-width: 0.5; stroke-linejoin: miter"/>
   </g>
   <g id="line2d_77">
    <path d="M 85.376165 82.911246 
L 85.376165 90.002013 
" clip-path="url(#p9ecd83cada)" style="fill: none; stroke: #000000; stroke-width: 0.5; stroke-linecap: square"/>
   </g>
   <g id="line2d_78">
    <path d="M 85.376165 73.271426 
L 85.376165 41.184089 
" clip-path="url(#p9ecd83cada)" style="fill: none; stroke: #000000; stroke-width: 0.5; stroke-linecap: square"/>
   </g>
   <g id="line2d_79">
    <path d="M 84.40059 90.002013 
L 86.35174 90.002013 
" clip-path="url(#p9ecd83cada)" style="fill: none; stroke: #000000; stroke-width: 0.5; stroke-linecap: square"/>
   </g>
   <g id="line2d_80">
    <path d="M 84.40059 41.184089 
L 86.35174 41.184089 
" clip-path="url(#p9ecd83cada)" style="fill: none; stroke: #000000; stroke-width: 0.5; stroke-linecap: square"/>
   </g>
   <g id="patch_19">
    <path d="M 109.440349 84.338944 
L 113.342649 84.338944 
L 113.342649 64.961452 
L 109.440349 64.961452 
L 109.440349 84.338944 
z
" clip-path="url(#p9ecd83cada)" style="fill: #d5702f; stroke: #000000; stroke-width: 0.5; stroke-linejoin: miter"/>
   </g>
   <g id="line2d_81">
    <path d="M 111.391499 84.338944 
L 111.391499 90.534876 
" clip-path="url(#p9ecd83cada)" style="fill: none; stroke: #000000; stroke-width: 0.5; stroke-linecap: square"/>
   </g>
   <g id="line2d_82">
    <path d="M 111.391499 64.961452 
L 111.391499 51.372194 
" clip-path="url(#p9ecd83cada)" style="fill: none; stroke: #000000; stroke-width: 0.5; stroke-linecap: square"/>
   </g>
   <g id="line2d_83">
    <path d="M 110.415924 90.534876 
L 112.367074 90.534876 
" clip-path="url(#p9ecd83cada)" style="fill: none; stroke: #000000; stroke-width: 0.5; stroke-linecap: square"/>
   </g>
   <g id="line2d_84">
    <path d="M 110.415924 51.372194 
L 112.367074 51.372194 
" clip-path="url(#p9ecd83cada)" style="fill: none; stroke: #000000; stroke-width: 0.5; stroke-linecap: square"/>
   </g>
   <g id="patch_20">
    <path d="M 135.455682 94.556133 
L 139.357982 94.556133 
L 139.357982 80.11777 
L 135.455682 80.11777 
L 135.455682 94.556133 
z
" clip-path="url(#p9ecd83cada)" style="fill: #d5702f; stroke: #000000; stroke-width: 0.5; stroke-linejoin: miter"/>
   </g>
   <g id="line2d_85">
    <path d="M 137.406832 94.556133 
L 137.406832 94.908417 
" clip-path="url(#p9ecd83cada)" style="fill: none; stroke: #000000; stroke-width: 0.5; stroke-linecap: square"/>
   </g>
   <g id="line2d_86">
    <path d="M 137.406832 80.11777 
L 137.406832 74.391878 
" clip-path="url(#p9ecd83cada)" style="fill: none; stroke: #000000; stroke-width: 0.5; stroke-linecap: square"/>
   </g>
   <g id="line2d_87">
    <path d="M 136.431257 94.908417 
L 138.382407 94.908417 
" clip-path="url(#p9ecd83cada)" style="fill: none; stroke: #000000; stroke-width: 0.5; stroke-linecap: square"/>
   </g>
   <g id="line2d_88">
    <path d="M 136.431257 74.391878 
L 138.382407 74.391878 
" clip-path="url(#p9ecd83cada)" style="fill: none; stroke: #000000; stroke-width: 0.5; stroke-linecap: square"/>
   </g>
   <g id="patch_21">
    <path d="M 161.471016 94.005618 
L 165.373316 94.005618 
L 165.373316 80.236922 
L 161.471016 80.236922 
L 161.471016 94.005618 
z
" clip-path="url(#p9ecd83cada)" style="fill: #d5702f; stroke: #000000; stroke-width: 0.5; stroke-linejoin: miter"/>
   </g>
   <g id="line2d_89">
    <path d="M 163.422166 94.005618 
L 163.422166 94.589675 
" clip-path="url(#p9ecd83cada)" style="fill: none; stroke: #000000; stroke-width: 0.5; stroke-linecap: square"/>
   </g>
   <g id="line2d_90">
    <path d="M 163.422166 80.236922 
L 163.422166 77.945567 
" clip-path="url(#p9ecd83cada)" style="fill: none; stroke: #000000; stroke-width: 0.5; stroke-linecap: square"/>
   </g>
   <g id="line2d_91">
    <path d="M 162.446591 94.589675 
L 164.397741 94.589675 
" clip-path="url(#p9ecd83cada)" style="fill: none; stroke: #000000; stroke-width: 0.5; stroke-linecap: square"/>
   </g>
   <g id="line2d_92">
    <path d="M 162.446591 77.945567 
L 164.397741 77.945567 
" clip-path="url(#p9ecd83cada)" style="fill: none; stroke: #000000; stroke-width: 0.5; stroke-linecap: square"/>
   </g>
   <g id="patch_22">
    <path d="M 187.48635 93.747319 
L 191.38865 93.747319 
L 191.38865 89.245464 
L 187.48635 89.245464 
L 187.48635 93.747319 
z
" clip-path="url(#p9ecd83cada)" style="fill: #d5702f; stroke: #000000; stroke-width: 0.5; stroke-linejoin: miter"/>
   </g>
   <g id="line2d_93">
    <path d="M 189.4375 93.747319 
L 189.4375 97.497387 
" clip-path="url(#p9ecd83cada)" style="fill: none; stroke: #000000; stroke-width: 0.5; stroke-linecap: square"/>
   </g>
   <g id="line2d_94">
    <path d="M 189.4375 89.245464 
L 189.4375 84.866201 
" clip-path="url(#p9ecd83cada)" style="fill: none; stroke: #000000; stroke-width: 0.5; stroke-linecap: square"/>
   </g>
   <g id="line2d_95">
    <path d="M 188.461925 97.497387 
L 190.413075 97.497387 
" clip-path="url(#p9ecd83cada)" style="fill: none; stroke: #000000; stroke-width: 0.5; stroke-linecap: square"/>
   </g>
   <g id="line2d_96">
    <path d="M 188.461925 84.866201 
L 190.413075 84.866201 
" clip-path="url(#p9ecd83cada)" style="fill: none; stroke: #000000; stroke-width: 0.5; stroke-linecap: square"/>
   </g>
   <g id="patch_23">
    <path d="M 213.501683 94.863879 
L 217.403983 94.863879 
L 217.403983 91.758523 
L 213.501683 91.758523 
L 213.501683 94.863879 
z
" clip-path="url(#p9ecd83cada)" style="fill: #d5702f; stroke: #000000; stroke-width: 0.5; stroke-linejoin: miter"/>
   </g>
   <g id="line2d_97">
    <path d="M 215.452833 94.863879 
L 215.452833 97.890886 
" clip-path="url(#p9ecd83cada)" style="fill: none; stroke: #000000; stroke-width: 0.5; stroke-linecap: square"/>
   </g>
   <g id="line2d_98">
    <path d="M 215.452833 91.758523 
L 215.452833 86.656851 
" clip-path="url(#p9ecd83cada)" style="fill: none; stroke: #000000; stroke-width: 0.5; stroke-linecap: square"/>
   </g>
   <g id="line2d_99">
    <path d="M 214.477258 97.890886 
L 216.428408 97.890886 
" clip-path="url(#p9ecd83cada)" style="fill: none; stroke: #000000; stroke-width: 0.5; stroke-linecap: square"/>
   </g>
   <g id="line2d_100">
    <path d="M 214.477258 86.656851 
L 216.428408 86.656851 
" clip-path="url(#p9ecd83cada)" style="fill: none; stroke: #000000; stroke-width: 0.5; stroke-linecap: square"/>
   </g>
   <g id="patch_24">
    <path d="M 62.612748 107.925707 
L 66.515048 107.925707 
L 66.515048 107.925707 
L 62.612748 107.925707 
L 62.612748 107.925707 
z
" clip-path="url(#p9ecd83cada)" style="fill: #c97cb6; stroke: #000000; stroke-width: 0.5; stroke-linejoin: miter"/>
   </g>
   <g id="line2d_101">
    <path d="M 64.563898 107.925707 
L 64.563898 129.027426 
" clip-path="url(#p9ecd83cada)" style="fill: none; stroke: #000000; stroke-width: 0.5; stroke-linecap: square"/>
   </g>
   <g id="line2d_102">
    <path d="M 64.563898 107.925707 
L 64.563898 46.537912 
" clip-path="url(#p9ecd83cada)" style="fill: none; stroke: #000000; stroke-width: 0.5; stroke-linecap: square"/>
   </g>
   <g id="line2d_103">
    <path clip-path="url(#p9ecd83cada)" style="fill: none; stroke: #000000; stroke-width: 0.5; stroke-linecap: square"/>
   </g>
   <g id="line2d_104">
    <path d="M 63.588323 46.537912 
L 65.539473 46.537912 
" clip-path="url(#p9ecd83cada)" style="fill: none; stroke: #000000; stroke-width: 0.5; stroke-linecap: square"/>
   </g>
   <g id="patch_25">
    <path d="M 88.628082 107.925707 
L 92.530382 107.925707 
L 92.530382 104.877133 
L 88.628082 104.877133 
L 88.628082 107.925707 
z
" clip-path="url(#p9ecd83cada)" style="fill: #c97cb6; stroke: #000000; stroke-width: 0.5; stroke-linejoin: miter"/>
   </g>
   <g id="line2d_105">
    <path d="M 90.579232 107.925707 
L 90.579232 129.027426 
" clip-path="url(#p9ecd83cada)" style="fill: none; stroke: #000000; stroke-width: 0.5; stroke-linecap: square"/>
   </g>
   <g id="line2d_106">
    <path d="M 90.579232 104.877133 
L 90.579232 46.537912 
" clip-path="url(#p9ecd83cada)" style="fill: none; stroke: #000000; stroke-width: 0.5; stroke-linecap: square"/>
   </g>
   <g id="line2d_107">
    <path clip-path="url(#p9ecd83cada)" style="fill: none; stroke: #000000; stroke-width: 0.5; stroke-linecap: square"/>
   </g>
   <g id="line2d_108">
    <path d="M 89.603657 46.537912 
L 91.554807 46.537912 
" clip-path="url(#p9ecd83cada)" style="fill: none; stroke: #000000; stroke-width: 0.5; stroke-linecap: square"/>
   </g>
   <g id="patch_26">
    <path d="M 114.643415 107.925707 
L 118.545715 107.925707 
L 118.545715 107.925707 
L 114.643415 107.925707 
L 114.643415 107.925707 
z
" clip-path="url(#p9ecd83cada)" style="fill: #c97cb6; stroke: #000000; stroke-width: 0.5; stroke-linejoin: miter"/>
   </g>
   <g id="line2d_109">
    <path d="M 116.594565 107.925707 
L 116.594565 129.027426 
" clip-path="url(#p9ecd83cada)" style="fill: none; stroke: #000000; stroke-width: 0.5; stroke-linecap: square"/>
   </g>
   <g id="line2d_110">
    <path d="M 116.594565 107.925707 
L 116.594565 89.893325 
" clip-path="url(#p9ecd83cada)" style="fill: none; stroke: #000000; stroke-width: 0.5; stroke-linecap: square"/>
   </g>
   <g id="line2d_111">
    <path clip-path="url(#p9ecd83cada)" style="fill: none; stroke: #000000; stroke-width: 0.5; stroke-linecap: square"/>
   </g>
   <g id="line2d_112">
    <path d="M 115.61899 89.893325 
L 117.57014 89.893325 
" clip-path="url(#p9ecd83cada)" style="fill: none; stroke: #000000; stroke-width: 0.5; stroke-linecap: square"/>
   </g>
   <g id="patch_27">
    <path d="M 140.658749 107.925707 
L 144.561049 107.925707 
L 144.561049 107.925707 
L 140.658749 107.925707 
L 140.658749 107.925707 
z
" clip-path="url(#p9ecd83cada)" style="fill: #c97cb6; stroke: #000000; stroke-width: 0.5; stroke-linejoin: miter"/>
   </g>
   <g id="line2d_113">
    <path d="M 142.609899 107.925707 
L 142.609899 129.027426 
" clip-path="url(#p9ecd83cada)" style="fill: none; stroke: #000000; stroke-width: 0.5; stroke-linecap: square"/>
   </g>
   <g id="line2d_114">
    <path d="M 142.609899 107.925707 
L 142.609899 58.057995 
" clip-path="url(#p9ecd83cada)" style="fill: none; stroke: #000000; stroke-width: 0.5; stroke-linecap: square"/>
   </g>
   <g id="line2d_115">
    <path clip-path="url(#p9ecd83cada)" style="fill: none; stroke: #000000; stroke-width: 0.5; stroke-linecap: square"/>
   </g>
   <g id="line2d_116">
    <path d="M 141.634324 58.057995 
L 143.585474 58.057995 
" clip-path="url(#p9ecd83cada)" style="fill: none; stroke: #000000; stroke-width: 0.5; stroke-linecap: square"/>
   </g>
   <g id="patch_28">
    <path d="M 166.674083 107.925707 
L 170.576383 107.925707 
L 170.576383 104.770685 
L 166.674083 104.770685 
L 166.674083 107.925707 
z
" clip-path="url(#p9ecd83cada)" style="fill: #c97cb6; stroke: #000000; stroke-width: 0.5; stroke-linejoin: miter"/>
   </g>
   <g id="line2d_117">
    <path d="M 168.625233 107.925707 
L 168.625233 129.027426 
" clip-path="url(#p9ecd83cada)" style="fill: none; stroke: #000000; stroke-width: 0.5; stroke-linecap: square"/>
   </g>
   <g id="line2d_118">
    <path d="M 168.625233 104.770685 
L 168.625233 70.915715 
" clip-path="url(#p9ecd83cada)" style="fill: none; stroke: #000000; stroke-width: 0.5; stroke-linecap: square"/>
   </g>
   <g id="line2d_119">
    <path clip-path="url(#p9ecd83cada)" style="fill: none; stroke: #000000; stroke-width: 0.5; stroke-linecap: square"/>
   </g>
   <g id="line2d_120">
    <path d="M 167.649658 70.915715 
L 169.600808 70.915715 
" clip-path="url(#p9ecd83cada)" style="fill: none; stroke: #000000; stroke-width: 0.5; stroke-linecap: square"/>
   </g>
   <g id="patch_29">
    <path d="M 192.689416 107.925707 
L 196.591716 107.925707 
L 196.591716 107.925707 
L 192.689416 107.925707 
L 192.689416 107.925707 
z
" clip-path="url(#p9ecd83cada)" style="fill: #c97cb6; stroke: #000000; stroke-width: 0.5; stroke-linejoin: miter"/>
   </g>
   <g id="line2d_121">
    <path d="M 194.640566 107.925707 
L 194.640566 129.027426 
" clip-path="url(#p9ecd83cada)" style="fill: none; stroke: #000000; stroke-width: 0.5; stroke-linecap: square"/>
   </g>
   <g id="line2d_122">
    <path d="M 194.640566 107.925707 
L 194.640566 77.680553 
" clip-path="url(#p9ecd83cada)" style="fill: none; stroke: #000000; stroke-width: 0.5; stroke-linecap: square"/>
   </g>
   <g id="line2d_123">
    <path clip-path="url(#p9ecd83cada)" style="fill: none; stroke: #000000; stroke-width: 0.5; stroke-linecap: square"/>
   </g>
   <g id="line2d_124">
    <path d="M 193.664991 77.680553 
L 195.616141 77.680553 
" clip-path="url(#p9ecd83cada)" style="fill: none; stroke: #000000; stroke-width: 0.5; stroke-linecap: square"/>
   </g>
   <g id="patch_30">
    <path d="M 218.70475 107.925707 
L 222.60705 107.925707 
L 222.60705 107.925707 
L 218.70475 107.925707 
L 218.70475 107.925707 
z
" clip-path="url(#p9ecd83cada)" style="fill: #c97cb6; stroke: #000000; stroke-width: 0.5; stroke-linejoin: miter"/>
   </g>
   <g id="line2d_125">
    <path d="M 220.6559 107.925707 
L 220.6559 129.027426 
" clip-path="url(#p9ecd83cada)" style="fill: none; stroke: #000000; stroke-width: 0.5; stroke-linecap: square"/>
   </g>
   <g id="line2d_126">
    <path d="M 220.6559 107.925707 
L 220.6559 74.488595 
" clip-path="url(#p9ecd83cada)" style="fill: none; stroke: #000000; stroke-width: 0.5; stroke-linecap: square"/>
   </g>
   <g id="line2d_127">
    <path clip-path="url(#p9ecd83cada)" style="fill: none; stroke: #000000; stroke-width: 0.5; stroke-linecap: square"/>
   </g>
   <g id="line2d_128">
    <path d="M 219.680325 74.488595 
L 221.631475 74.488595 
" clip-path="url(#p9ecd83cada)" style="fill: none; stroke: #000000; stroke-width: 0.5; stroke-linecap: square"/>
   </g>
   <g id="line2d_129">
    <path d="M 47.003548 100.215641 
L 50.905848 100.215641 
" clip-path="url(#p9ecd83cada)" style="fill: none"/>
   </g>
   <g id="line2d_130">
    <path d="M 73.018882 92.39074 
L 76.921182 92.39074 
" clip-path="url(#p9ecd83cada)" style="fill: none"/>
   </g>
   <g id="line2d_131">
    <path d="M 99.034215 101.799134 
L 102.936515 101.799134 
" clip-path="url(#p9ecd83cada)" style="fill: none"/>
   </g>
   <g id="line2d_132">
    <path d="M 125.049549 105.564755 
L 128.951849 105.564755 
" clip-path="url(#p9ecd83cada)" style="fill: none"/>
   </g>
   <g id="line2d_133">
    <path d="M 151.064882 103.821623 
L 154.967183 103.821623 
" clip-path="url(#p9ecd83cada)" style="fill: none"/>
   </g>
   <g id="line2d_134">
    <path d="M 177.080216 106.115856 
L 180.982516 106.115856 
" clip-path="url(#p9ecd83cada)" style="fill: none"/>
   </g>
   <g id="line2d_135">
    <path d="M 203.09555 104.761024 
L 206.99785 104.761024 
" clip-path="url(#p9ecd83cada)" style="fill: none"/>
   </g>
   <g id="line2d_136">
    <path d="M 52.206615 96.84229 
L 56.108915 96.84229 
" clip-path="url(#p9ecd83cada)" style="fill: none"/>
   </g>
   <g id="line2d_137">
    <path d="M 78.221948 91.717423 
L 82.124248 91.717423 
" clip-path="url(#p9ecd83cada)" style="fill: none"/>
   </g>
   <g id="line2d_138">
    <path d="M 104.237282 95.255805 
L 108.139582 95.255805 
" clip-path="url(#p9ecd83cada)" style="fill: none"/>
   </g>
   <g id="line2d_139">
    <path d="M 130.252616 95.611232 
L 134.154916 95.611232 
" clip-path="url(#p9ecd83cada)" style="fill: none"/>
   </g>
   <g id="line2d_140">
    <path d="M 156.267949 96.527712 
L 160.170249 96.527712 
" clip-path="url(#p9ecd83cada)" style="fill: none"/>
   </g>
   <g id="line2d_141">
    <path d="M 182.283283 92.403035 
L 186.185583 92.403035 
" clip-path="url(#p9ecd83cada)" style="fill: none"/>
   </g>
   <g id="line2d_142">
    <path d="M 208.298616 93.446024 
L 212.200916 93.446024 
" clip-path="url(#p9ecd83cada)" style="fill: none"/>
   </g>
   <g id="line2d_143">
    <path d="M 57.409681 58.407344 
L 61.311982 58.407344 
" clip-path="url(#p9ecd83cada)" style="fill: none"/>
   </g>
   <g id="line2d_144">
    <path d="M 83.425015 80.4537 
L 87.327315 80.4537 
" clip-path="url(#p9ecd83cada)" style="fill: none"/>
   </g>
   <g id="line2d_145">
    <path d="M 109.440349 80.207822 
L 113.342649 80.207822 
" clip-path="url(#p9ecd83cada)" style="fill: none"/>
   </g>
   <g id="line2d_146">
    <path d="M 135.455682 86.017301 
L 139.357982 86.017301 
" clip-path="url(#p9ecd83cada)" style="fill: none"/>
   </g>
   <g id="line2d_147">
    <path d="M 161.471016 86.962105 
L 165.373316 86.962105 
" clip-path="url(#p9ecd83cada)" style="fill: none"/>
   </g>
   <g id="line2d_148">
    <path d="M 187.48635 91.789915 
L 191.38865 91.789915 
" clip-path="url(#p9ecd83cada)" style="fill: none"/>
   </g>
   <g id="line2d_149">
    <path d="M 213.501683 94.057562 
L 217.403983 94.057562 
" clip-path="url(#p9ecd83cada)" style="fill: none"/>
   </g>
   <g id="line2d_150">
    <path d="M 62.612748 107.925707 
L 66.515048 107.925707 
" clip-path="url(#p9ecd83cada)" style="fill: none"/>
   </g>
   <g id="line2d_151">
    <path d="M 88.628082 107.925707 
L 92.530382 107.925707 
" clip-path="url(#p9ecd83cada)" style="fill: none"/>
   </g>
   <g id="line2d_152">
    <path d="M 114.643415 107.925707 
L 118.545715 107.925707 
" clip-path="url(#p9ecd83cada)" style="fill: none"/>
   </g>
   <g id="line2d_153">
    <path d="M 140.658749 107.925707 
L 144.561049 107.925707 
" clip-path="url(#p9ecd83cada)" style="fill: none"/>
   </g>
   <g id="line2d_154">
    <path d="M 166.674083 107.925707 
L 170.576383 107.925707 
" clip-path="url(#p9ecd83cada)" style="fill: none"/>
   </g>
   <g id="line2d_155">
    <path d="M 192.689416 107.925707 
L 196.591716 107.925707 
" clip-path="url(#p9ecd83cada)" style="fill: none"/>
   </g>
   <g id="line2d_156">
    <path d="M 218.70475 107.925707 
L 222.60705 107.925707 
" clip-path="url(#p9ecd83cada)" style="fill: none"/>
   </g>
   <g id="patch_31">
    <path d="M 35.947031 107.925707 
L 35.947031 9.705234 
" style="fill: none; stroke: #000000; stroke-linejoin: miter; stroke-linecap: square"/>
   </g>
   <g id="patch_32">
    <path d="M 233.663567 107.925707 
L 233.663567 9.705234 
" style="fill: none; stroke: #000000; stroke-linejoin: miter; stroke-linecap: square"/>
   </g>
   <g id="patch_33">
    <path d="M 35.947031 107.925707 
L 233.663567 107.925707 
" style="fill: none; stroke: #000000; stroke-linejoin: miter; stroke-linecap: square"/>
   </g>
   <g id="patch_34">
    <path d="M 35.947031 9.705234 
L 233.663567 9.705234 
" style="fill: none; stroke: #000000; stroke-linejoin: miter; stroke-linecap: square"/>
   </g>
   <g id="legend_1">
    <g id="patch_35">
     <path d="M 203.758254 21.138203 
L 209.008254 21.138203 
L 209.008254 16.010703 
L 203.758254 16.010703 
z
" style="fill: #437ab5; stroke: #000000; stroke-width: 0.5; stroke-linejoin: miter"/>
    </g>
    <g id="text_18">
     <!-- AEF -->
     <g transform="translate(211.808254 21.015703) scale(0.07 -0.07)">
      <defs>
       <path id="ArialMT-46" d="M 525 0 
L 525 4581 
L 3616 4581 
L 3616 4041 
L 1131 4041 
L 1131 2622 
L 3281 2622 
L 3281 2081 
L 1131 2081 
L 1131 0 
L 525 0 
z
" transform="scale(0.015625)"/>
      </defs>
      <use xlink:href="#ArialMT-41"/>
      <use xlink:href="#ArialMT-45" transform="translate(66.699219 0)"/>
      <use xlink:href="#ArialMT-46" transform="translate(133.398438 0)"/>
     </g>
    </g>
    <g id="patch_36">
     <path d="M 203.758254 31.039922 
L 209.008254 31.039922 
L 209.008254 25.912422 
L 203.758254 25.912422 
z
" style="fill: #2c954d; stroke: #000000; stroke-width: 0.5; stroke-linejoin: miter"/>
    </g>
    <g id="text_19">
     <!-- MEF -->
     <g transform="translate(211.808254 30.917422) scale(0.07 -0.07)">
      <use xlink:href="#ArialMT-4d"/>
      <use xlink:href="#ArialMT-45" transform="translate(83.300781 0)"/>
      <use xlink:href="#ArialMT-46" transform="translate(150 0)"/>
     </g>
    </g>
    <g id="patch_37">
     <path d="M 203.758254 40.941641 
L 209.008254 40.941641 
L 209.008254 35.814141 
L 203.758254 35.814141 
z
" style="fill: #d5702f; stroke: #000000; stroke-width: 0.5; stroke-linejoin: miter"/>
    </g>
    <g id="text_20">
     <!-- DAM -->
     <g transform="translate(211.808254 40.819141) scale(0.07 -0.07)">
      <defs>
       <path id="ArialMT-44" d="M 494 0 
L 494 4581 
L 2072 4581 
Q 2606 4581 2888 4516 
Q 3281 4425 3559 4188 
Q 3922 3881 4101 3404 
Q 4281 2928 4281 2316 
Q 4281 1794 4159 1391 
Q 4038 988 3847 723 
Q 3656 459 3429 307 
Q 3203 156 2883 78 
Q 2563 0 2147 0 
L 494 0 
z
M 1100 541 
L 2078 541 
Q 2531 541 2789 625 
Q 3047 709 3200 863 
Q 3416 1078 3536 1442 
Q 3656 1806 3656 2325 
Q 3656 3044 3420 3430 
Q 3184 3816 2847 3947 
Q 2603 4041 2063 4041 
L 1100 4041 
L 1100 541 
z
" transform="scale(0.015625)"/>
      </defs>
      <use xlink:href="#ArialMT-44"/>
      <use xlink:href="#ArialMT-41" transform="translate(72.216797 0)"/>
      <use xlink:href="#ArialMT-4d" transform="translate(138.916016 0)"/>
     </g>
    </g>
    <g id="patch_38">
     <path d="M 203.758254 50.843359 
L 209.008254 50.843359 
L 209.008254 45.715859 
L 203.758254 45.715859 
z
" style="fill: #c97cb6; stroke: #000000; stroke-width: 0.5; stroke-linejoin: miter"/>
    </g>
    <g id="text_21">
     <!-- Tariff -->
     <g transform="translate(211.808254 50.720859) scale(0.07 -0.07)">
      <defs>
       <path id="ArialMT-72" d="M 416 0 
L 416 3319 
L 922 3319 
L 922 2816 
Q 1116 3169 1280 3281 
Q 1444 3394 1641 3394 
Q 1925 3394 2219 3213 
L 2025 2691 
Q 1819 2813 1613 2813 
Q 1428 2813 1281 2702 
Q 1134 2591 1072 2394 
Q 978 2094 978 1738 
L 978 0 
L 416 0 
z
" transform="scale(0.015625)"/>
       <path id="ArialMT-66" d="M 556 0 
L 556 2881 
L 59 2881 
L 59 3319 
L 556 3319 
L 556 3672 
Q 556 4006 616 4169 
Q 697 4388 901 4523 
Q 1106 4659 1475 4659 
Q 1713 4659 2000 4603 
L 1916 4113 
Q 1741 4144 1584 4144 
Q 1328 4144 1222 4034 
Q 1116 3925 1116 3625 
L 1116 3319 
L 1763 3319 
L 1763 2881 
L 1116 2881 
L 1116 0 
L 556 0 
z
" transform="scale(0.015625)"/>
      </defs>
      <use xlink:href="#ArialMT-54"/>
      <use xlink:href="#ArialMT-61" transform="translate(49.958984 0)"/>
      <use xlink:href="#ArialMT-72" transform="translate(105.574219 0)"/>
      <use xlink:href="#ArialMT-69" transform="translate(138.875 0)"/>
      <use xlink:href="#ArialMT-66" transform="translate(161.091797 0)"/>
      <use xlink:href="#ArialMT-66" transform="translate(187.125 0)"/>
     </g>
    </g>
   </g>
  </g>
 </g>
 <defs>
  <clipPath id="p9ecd83cada">
   <rect x="35.947031" y="9.705234" width="197.716535" height="98.220472"/>
  </clipPath>
 </defs>
</svg>
